<?xml version="1.0" encoding="UTF-8" standalone="no"?><svg xmlns="http://www.w3.org/2000/svg" xmlns:xlink="http://www.w3.org/1999/xlink" contentScriptType="application/ecmascript" contentStyleType="text/css" height="463px" preserveAspectRatio="none" style="width:444px;height:463px;" version="1.1" viewBox="0 0 444 463" width="444px" zoomAndPan="magnify"><defs><filter height="300%" id="fhsgt5g2szp3e" width="300%" x="-1" y="-1"><feGaussianBlur result="blurOut" stdDeviation="2.0"/><feColorMatrix in="blurOut" result="blurOut2" type="matrix" values="0 0 0 0 0 0 0 0 0 0 0 0 0 0 0 0 0 0 .4 0"/><feOffset dx="4.0" dy="4.0" in="blurOut2" result="blurOut3"/><feBlend in="SourceGraphic" in2="blurOut3" mode="normal"/></filter></defs><g><rect fill="#FFFFFF" filter="url(#fhsgt5g2szp3e)" height="87.3984" style="stroke: #F57F17; stroke-width: 1.0;" width="10" x="99.5" y="69.4297"/><rect fill="#FFFFFF" filter="url(#fhsgt5g2szp3e)" height="87.3984" style="stroke: #F57F17; stroke-width: 1.0;" width="10" x="99.5" y="185.9609"/><rect fill="#FFFFFF" filter="url(#fhsgt5g2szp3e)" height="87.3984" style="stroke: #F57F17; stroke-width: 1.0;" width="10" x="99.5" y="345.625"/><rect fill="#FFFFFF" filter="url(#fhsgt5g2szp3e)" height="29.1328" style="stroke: #F57F17; stroke-width: 1.0;" width="10" x="398.5" y="98.5625"/><rect fill="#FFFFFF" filter="url(#fhsgt5g2szp3e)" height="29.1328" style="stroke: #F57F17; stroke-width: 1.0;" width="10" x="398.5" y="215.0938"/><rect fill="#FFFFFF" filter="url(#fhsgt5g2szp3e)" height="29.1328" style="stroke: #F57F17; stroke-width: 1.0;" width="10" x="398.5" y="374.7578"/><line style="stroke: #F57F17; stroke-width: 1.0; stroke-dasharray: 5.0,5.0;" x1="33" x2="33" y1="38.2969" y2="451.0234"/><line style="stroke: #F57F17; stroke-width: 1.0; stroke-dasharray: 5.0,5.0;" x1="104" x2="104" y1="38.2969" y2="451.0234"/><line style="stroke: #F57F17; stroke-width: 1.0; stroke-dasharray: 5.0,5.0;" x1="403.5" x2="403.5" y1="38.2969" y2="451.0234"/><rect fill="#FFFFFF" filter="url(#fhsgt5g2szp3e)" height="30.2969" style="stroke: #F57F17; stroke-width: 1.5;" width="47" x="8" y="3"/><text fill="#000000" font-family="sans-serif" font-size="14" lengthAdjust="spacingAndGlyphs" textLength="33" x="15" y="22.9951">Core</text><rect fill="#FFFFFF" filter="url(#fhsgt5g2szp3e)" height="30.2969" style="stroke: #F57F17; stroke-width: 1.5;" width="43" x="81" y="3"/><text fill="#000000" font-family="sans-serif" font-size="14" lengthAdjust="spacingAndGlyphs" textLength="29" x="88" y="22.9951">OCF</text><rect fill="#FFFFFF" filter="url(#fhsgt5g2szp3e)" height="30.2969" style="stroke: #F57F17; stroke-width: 1.5;" width="44" x="379.5" y="3"/><text fill="#000000" font-family="sans-serif" font-size="14" lengthAdjust="spacingAndGlyphs" textLength="30" x="386.5" y="22.9951">OCS</text><rect fill="#FFFFFF" filter="url(#fhsgt5g2szp3e)" height="87.3984" style="stroke: #F57F17; stroke-width: 1.0;" width="10" x="99.5" y="69.4297"/><rect fill="#FFFFFF" filter="url(#fhsgt5g2szp3e)" height="87.3984" style="stroke: #F57F17; stroke-width: 1.0;" width="10" x="99.5" y="185.9609"/><rect fill="#FFFFFF" filter="url(#fhsgt5g2szp3e)" height="87.3984" style="stroke: #F57F17; stroke-width: 1.0;" width="10" x="99.5" y="345.625"/><rect fill="#FFFFFF" filter="url(#fhsgt5g2szp3e)" height="29.1328" style="stroke: #F57F17; stroke-width: 1.0;" width="10" x="398.5" y="98.5625"/><rect fill="#FFFFFF" filter="url(#fhsgt5g2szp3e)" height="29.1328" style="stroke: #F57F17; stroke-width: 1.0;" width="10" x="398.5" y="215.0938"/><rect fill="#FFFFFF" filter="url(#fhsgt5g2szp3e)" height="29.1328" style="stroke: #F57F17; stroke-width: 1.0;" width="10" x="398.5" y="374.7578"/><polygon fill="#A80036" points="87.5,65.4297,97.5,69.4297,87.5,73.4297,91.5,69.4297" style="stroke: #A80036; stroke-width: 1.0;"/><line style="stroke: #A80036; stroke-width: 1.0;" x1="33.5" x2="93.5" y1="69.4297" y2="69.4297"/><text fill="#000000" font-family="sans-serif" font-size="13" lengthAdjust="spacingAndGlyphs" textLength="34" x="40.5" y="64.3638">CCR-I</text><polygon fill="#A80036" points="386.5,94.5625,396.5,98.5625,386.5,102.5625,390.5,98.5625" style="stroke: #A80036; stroke-width: 1.0;"/><line style="stroke: #A80036; stroke-width: 1.0;" x1="109.5" x2="392.5" y1="98.5625" y2="98.5625"/><text fill="#000000" font-family="sans-serif" font-size="13" lengthAdjust="spacingAndGlyphs" textLength="108" x="116.5" y="93.4966">POST /ratingdata</text><polygon fill="#A80036" points="120.5,123.6953,110.5,127.6953,120.5,131.6953,116.5,127.6953" style="stroke: #A80036; stroke-width: 1.0;"/><line style="stroke: #A80036; stroke-width: 1.0;" x1="114.5" x2="402.5" y1="127.6953" y2="127.6953"/><text fill="#000000" font-family="sans-serif" font-size="13" lengthAdjust="spacingAndGlyphs" textLength="79" x="126.5" y="122.6294">201 Created</text><polygon fill="#A80036" points="44.5,152.8281,34.5,156.8281,44.5,160.8281,40.5,156.8281" style="stroke: #A80036; stroke-width: 1.0;"/><line style="stroke: #A80036; stroke-width: 1.0;" x1="38.5" x2="103.5" y1="156.8281" y2="156.8281"/><text fill="#000000" font-family="sans-serif" font-size="13" lengthAdjust="spacingAndGlyphs" textLength="35" x="50.5" y="151.7622">CCA-I</text><polygon fill="#A80036" points="87.5,181.9609,97.5,185.9609,87.5,189.9609,91.5,185.9609" style="stroke: #A80036; stroke-width: 1.0;"/><line style="stroke: #A80036; stroke-width: 1.0;" x1="33.5" x2="93.5" y1="185.9609" y2="185.9609"/><text fill="#000000" font-family="sans-serif" font-size="13" lengthAdjust="spacingAndGlyphs" textLength="41" x="40.5" y="180.895">CCR-U</text><polygon fill="#A80036" points="386.5,211.0938,396.5,215.0938,386.5,219.0938,390.5,215.0938" style="stroke: #A80036; stroke-width: 1.0;"/><line style="stroke: #A80036; stroke-width: 1.0;" x1="109.5" x2="392.5" y1="215.0938" y2="215.0938"/><text fill="#000000" font-family="sans-serif" font-size="13" lengthAdjust="spacingAndGlyphs" textLength="268" x="116.5" y="210.0278">POST /ratingdata/{RatingDataRef}/update</text><polygon fill="#A80036" points="120.5,240.2266,110.5,244.2266,120.5,248.2266,116.5,244.2266" style="stroke: #A80036; stroke-width: 1.0;"/><line style="stroke: #A80036; stroke-width: 1.0;" x1="114.5" x2="402.5" y1="244.2266" y2="244.2266"/><text fill="#000000" font-family="sans-serif" font-size="13" lengthAdjust="spacingAndGlyphs" textLength="46" x="126.5" y="239.1606">200 OK</text><polygon fill="#A80036" points="44.5,269.3594,34.5,273.3594,44.5,277.3594,40.5,273.3594" style="stroke: #A80036; stroke-width: 1.0;"/><line style="stroke: #A80036; stroke-width: 1.0;" x1="38.5" x2="103.5" y1="273.3594" y2="273.3594"/><text fill="#000000" font-family="sans-serif" font-size="13" lengthAdjust="spacingAndGlyphs" textLength="42" x="50.5" y="268.2935">CCA-U</text><rect fill="#EEEEEE" filter="url(#fhsgt5g2szp3e)" height="3" style="stroke: #EEEEEE; stroke-width: 1.0;" width="429.5" x="3" y="301.9258"/><line style="stroke: #000000; stroke-width: 1.0;" x1="3" x2="432.5" y1="301.9258" y2="301.9258"/><line style="stroke: #000000; stroke-width: 1.0;" x1="3" x2="432.5" y1="304.9258" y2="304.9258"/><rect fill="#EEEEEE" filter="url(#fhsgt5g2szp3e)" height="23.1328" style="stroke: #000000; stroke-width: 2.0;" width="95" x="170.25" y="291.3594"/><text fill="#000000" font-family="sans-serif" font-size="13" font-weight="bold" lengthAdjust="spacingAndGlyphs" textLength="76" x="176.25" y="307.4263">Repetition</text><polygon fill="#A80036" points="87.5,341.625,97.5,345.625,87.5,349.625,91.5,345.625" style="stroke: #A80036; stroke-width: 1.0;"/><line style="stroke: #A80036; stroke-width: 1.0;" x1="33.5" x2="93.5" y1="345.625" y2="345.625"/><text fill="#000000" font-family="sans-serif" font-size="13" lengthAdjust="spacingAndGlyphs" textLength="38" x="40.5" y="340.5591">CCR-T</text><polygon fill="#A80036" points="386.5,370.7578,396.5,374.7578,386.5,378.7578,390.5,374.7578" style="stroke: #A80036; stroke-width: 1.0;"/><line style="stroke: #A80036; stroke-width: 1.0;" x1="109.5" x2="392.5" y1="374.7578" y2="374.7578"/><text fill="#000000" font-family="sans-serif" font-size="13" lengthAdjust="spacingAndGlyphs" textLength="270" x="116.5" y="369.6919">POST /ratingdata/{RatingDataRef}/release</text><polygon fill="#A80036" points="120.5,399.8906,110.5,403.8906,120.5,407.8906,116.5,403.8906" style="stroke: #A80036; stroke-width: 1.0;"/><line style="stroke: #A80036; stroke-width: 1.0;" x1="114.5" x2="402.5" y1="403.8906" y2="403.8906"/><text fill="#000000" font-family="sans-serif" font-size="13" lengthAdjust="spacingAndGlyphs" textLength="46" x="126.5" y="398.8247">200 OK</text><polygon fill="#A80036" points="44.5,429.0234,34.5,433.0234,44.5,437.0234,40.5,433.0234" style="stroke: #A80036; stroke-width: 1.0;"/><line style="stroke: #A80036; stroke-width: 1.0;" x1="38.5" x2="103.5" y1="433.0234" y2="433.0234"/><text fill="#000000" font-family="sans-serif" font-size="13" lengthAdjust="spacingAndGlyphs" textLength="39" x="50.5" y="427.9575">CCA-T</text><!--
@startuml

skinparam sequence {
ParticipantBorderColor #f57f17
ParticipantBackgroundColor white
LifeLineBorderColor #f57f17
LifeLineBackgroundColor white
}
participant Core as core
participant OCF as ocf
participant OCS as ocs
hide footbox

core -> ocf : CCR-I
activate ocf
ocf -> ocs : POST /ratingdata
activate ocs
ocf <- ocs : 201 Created
deactivate ocs
core <- ocf : CCA-I
deactivate ocf

core -> ocf : CCR-U
activate ocf
ocf -> ocs : POST /ratingdata/{RatingDataRef}/update
activate ocs
ocf <- ocs : 200 OK
deactivate ocs
core <- ocf : CCA-U
deactivate ocf

== Repetition ==

core -> ocf : CCR-T
activate ocf
ocf -> ocs : POST /ratingdata/{RatingDataRef}/release
activate ocs
ocf <- ocs : 200 OK
deactivate ocs
core <- ocf : CCA-T
deactivate ocf


@enduml

PlantUML version 1.2018.13(Mon Nov 26 17:11:51 UTC 2018)
(GPL source distribution)
Java Runtime: OpenJDK Runtime Environment
JVM: OpenJDK 64-Bit Server VM
Java Version: 11.0.17+8-post-Ubuntu-1ubuntu220.04
Operating System: Linux
OS Version: 5.15.0-1025-gcp
Default Encoding: ANSI_X3.4-1968
Language: en
Country: US
--></g></svg>