<?xml version="1.0" encoding="UTF-8" standalone="no"?><svg xmlns="http://www.w3.org/2000/svg" xmlns:xlink="http://www.w3.org/1999/xlink" contentScriptType="application/ecmascript" contentStyleType="text/css" height="459px" preserveAspectRatio="none" style="width:440px;height:459px;" version="1.1" viewBox="0 0 440 459" width="440px" zoomAndPan="magnify"><defs/><g><rect fill="#FFFFFF" height="87.3984" style="stroke: #F57F17; stroke-width: 1.0;" width="10" x="97.5" y="65.4297"/><rect fill="#FFFFFF" height="87.3984" style="stroke: #F57F17; stroke-width: 1.0;" width="10" x="97.5" y="181.9609"/><rect fill="#FFFFFF" height="87.3984" style="stroke: #F57F17; stroke-width: 1.0;" width="10" x="97.5" y="341.625"/><rect fill="#FFFFFF" height="29.1328" style="stroke: #F57F17; stroke-width: 1.0;" width="10" x="396.5" y="94.5625"/><rect fill="#FFFFFF" height="29.1328" style="stroke: #F57F17; stroke-width: 1.0;" width="10" x="396.5" y="211.0938"/><rect fill="#FFFFFF" height="29.1328" style="stroke: #F57F17; stroke-width: 1.0;" width="10" x="396.5" y="370.7578"/><line style="stroke: #F57F17; stroke-width: 1.0; stroke-dasharray: 5.0,5.0;" x1="31" x2="31" y1="34.2969" y2="447.0234"/><line style="stroke: #F57F17; stroke-width: 1.0; stroke-dasharray: 5.0,5.0;" x1="102" x2="102" y1="34.2969" y2="447.0234"/><line style="stroke: #F57F17; stroke-width: 1.0; stroke-dasharray: 5.0,5.0;" x1="401.5" x2="401.5" y1="34.2969" y2="447.0234"/><rect fill="#FFFFFF" height="30.2969" style="stroke: #F57F17; stroke-width: 1.5;" width="47" x="8" y="3"/><text fill="#000000" font-family="sans-serif" font-size="14" lengthAdjust="spacingAndGlyphs" textLength="33" x="15" y="22.9951">Core</text><rect fill="#FFFFFF" height="30.2969" style="stroke: #F57F17; stroke-width: 1.5;" width="43" x="81" y="3"/><text fill="#000000" font-family="sans-serif" font-size="14" lengthAdjust="spacingAndGlyphs" textLength="29" x="88" y="22.9951">OCF</text><rect fill="#FFFFFF" height="30.2969" style="stroke: #F57F17; stroke-width: 1.5;" width="44" x="379.5" y="3"/><text fill="#000000" font-family="sans-serif" font-size="14" lengthAdjust="spacingAndGlyphs" textLength="30" x="386.5" y="22.9951">OCS</text><rect fill="#FFFFFF" height="87.3984" style="stroke: #F57F17; stroke-width: 1.0;" width="10" x="97.5" y="65.4297"/><rect fill="#FFFFFF" height="87.3984" style="stroke: #F57F17; stroke-width: 1.0;" width="10" x="97.5" y="181.9609"/><rect fill="#FFFFFF" height="87.3984" style="stroke: #F57F17; stroke-width: 1.0;" width="10" x="97.5" y="341.625"/><rect fill="#FFFFFF" height="29.1328" style="stroke: #F57F17; stroke-width: 1.0;" width="10" x="396.5" y="94.5625"/><rect fill="#FFFFFF" height="29.1328" style="stroke: #F57F17; stroke-width: 1.0;" width="10" x="396.5" y="211.0938"/><rect fill="#FFFFFF" height="29.1328" style="stroke: #F57F17; stroke-width: 1.0;" width="10" x="396.5" y="370.7578"/><polygon fill="#A80036" points="85.5,61.4297,95.5,65.4297,85.5,69.4297,89.5,65.4297" style="stroke: #A80036; stroke-width: 1.0;"/><line style="stroke: #A80036; stroke-width: 1.0;" x1="31.5" x2="91.5" y1="65.4297" y2="65.4297"/><text fill="#000000" font-family="sans-serif" font-size="13" lengthAdjust="spacingAndGlyphs" textLength="34" x="38.5" y="60.3638">CCR-I</text><polygon fill="#A80036" points="384.5,90.5625,394.5,94.5625,384.5,98.5625,388.5,94.5625" style="stroke: #A80036; stroke-width: 1.0;"/><line style="stroke: #A80036; stroke-width: 1.0;" x1="107.5" x2="390.5" y1="94.5625" y2="94.5625"/><text fill="#000000" font-family="sans-serif" font-size="13" lengthAdjust="spacingAndGlyphs" textLength="108" x="114.5" y="89.4966">POST /ratingdata</text><polygon fill="#A80036" points="118.5,119.6953,108.5,123.6953,118.5,127.6953,114.5,123.6953" style="stroke: #A80036; stroke-width: 1.0;"/><line style="stroke: #A80036; stroke-width: 1.0;" x1="112.5" x2="400.5" y1="123.6953" y2="123.6953"/><text fill="#000000" font-family="sans-serif" font-size="13" lengthAdjust="spacingAndGlyphs" textLength="79" x="124.5" y="118.6294">201 Created</text><polygon fill="#A80036" points="42.5,148.8281,32.5,152.8281,42.5,156.8281,38.5,152.8281" style="stroke: #A80036; stroke-width: 1.0;"/><line style="stroke: #A80036; stroke-width: 1.0;" x1="36.5" x2="101.5" y1="152.8281" y2="152.8281"/><text fill="#000000" font-family="sans-serif" font-size="13" lengthAdjust="spacingAndGlyphs" textLength="35" x="48.5" y="147.7622">CCA-I</text><polygon fill="#A80036" points="85.5,177.9609,95.5,181.9609,85.5,185.9609,89.5,181.9609" style="stroke: #A80036; stroke-width: 1.0;"/><line style="stroke: #A80036; stroke-width: 1.0;" x1="31.5" x2="91.5" y1="181.9609" y2="181.9609"/><text fill="#000000" font-family="sans-serif" font-size="13" lengthAdjust="spacingAndGlyphs" textLength="41" x="38.5" y="176.895">CCR-U</text><polygon fill="#A80036" points="384.5,207.0938,394.5,211.0938,384.5,215.0938,388.5,211.0938" style="stroke: #A80036; stroke-width: 1.0;"/><line style="stroke: #A80036; stroke-width: 1.0;" x1="107.5" x2="390.5" y1="211.0938" y2="211.0938"/><text fill="#000000" font-family="sans-serif" font-size="13" lengthAdjust="spacingAndGlyphs" textLength="268" x="114.5" y="206.0278">POST /ratingdata/{RatingDataRef}/update</text><polygon fill="#A80036" points="118.5,236.2266,108.5,240.2266,118.5,244.2266,114.5,240.2266" style="stroke: #A80036; stroke-width: 1.0;"/><line style="stroke: #A80036; stroke-width: 1.0;" x1="112.5" x2="400.5" y1="240.2266" y2="240.2266"/><text fill="#000000" font-family="sans-serif" font-size="13" lengthAdjust="spacingAndGlyphs" textLength="46" x="124.5" y="235.1606">200 OK</text><polygon fill="#A80036" points="42.5,265.3594,32.5,269.3594,42.5,273.3594,38.5,269.3594" style="stroke: #A80036; stroke-width: 1.0;"/><line style="stroke: #A80036; stroke-width: 1.0;" x1="36.5" x2="101.5" y1="269.3594" y2="269.3594"/><text fill="#000000" font-family="sans-serif" font-size="13" lengthAdjust="spacingAndGlyphs" textLength="42" x="48.5" y="264.2935">CCA-U</text><rect fill="#EEEEEE" height="3" style="stroke: #EEEEEE; stroke-width: 1.0;" width="425.5" x="3" y="297.9258"/><line style="stroke: #000000; stroke-width: 1.0;" x1="3" x2="428.5" y1="297.9258" y2="297.9258"/><line style="stroke: #000000; stroke-width: 1.0;" x1="3" x2="428.5" y1="300.9258" y2="300.9258"/><rect fill="#EEEEEE" height="23.1328" style="stroke: #000000; stroke-width: 2.0;" width="95" x="168.25" y="287.3594"/><text fill="#000000" font-family="sans-serif" font-size="13" font-weight="bold" lengthAdjust="spacingAndGlyphs" textLength="76" x="174.25" y="303.4263">Repetition</text><polygon fill="#A80036" points="85.5,337.625,95.5,341.625,85.5,345.625,89.5,341.625" style="stroke: #A80036; stroke-width: 1.0;"/><line style="stroke: #A80036; stroke-width: 1.0;" x1="31.5" x2="91.5" y1="341.625" y2="341.625"/><text fill="#000000" font-family="sans-serif" font-size="13" lengthAdjust="spacingAndGlyphs" textLength="38" x="38.5" y="336.5591">CCR-T</text><polygon fill="#A80036" points="384.5,366.7578,394.5,370.7578,384.5,374.7578,388.5,370.7578" style="stroke: #A80036; stroke-width: 1.0;"/><line style="stroke: #A80036; stroke-width: 1.0;" x1="107.5" x2="390.5" y1="370.7578" y2="370.7578"/><text fill="#000000" font-family="sans-serif" font-size="13" lengthAdjust="spacingAndGlyphs" textLength="270" x="114.5" y="365.6919">POST /ratingdata/{RatingDataRef}/release</text><polygon fill="#A80036" points="118.5,395.8906,108.5,399.8906,118.5,403.8906,114.5,399.8906" style="stroke: #A80036; stroke-width: 1.0;"/><line style="stroke: #A80036; stroke-width: 1.0;" x1="112.5" x2="400.5" y1="399.8906" y2="399.8906"/><text fill="#000000" font-family="sans-serif" font-size="13" lengthAdjust="spacingAndGlyphs" textLength="46" x="124.5" y="394.8247">200 OK</text><polygon fill="#A80036" points="42.5,425.0234,32.5,429.0234,42.5,433.0234,38.5,429.0234" style="stroke: #A80036; stroke-width: 1.0;"/><line style="stroke: #A80036; stroke-width: 1.0;" x1="36.5" x2="101.5" y1="429.0234" y2="429.0234"/><text fill="#000000" font-family="sans-serif" font-size="13" lengthAdjust="spacingAndGlyphs" textLength="39" x="48.5" y="423.9575">CCA-T</text><!--
@startuml

skinparam shadowing false
skinparam sequence {
ParticipantBorderColor #f57f17
ParticipantBackgroundColor white
LifeLineBorderColor #f57f17
LifeLineBackgroundColor white
}
participant Core as core
participant OCF as ocf
participant OCS as ocs
hide footbox

core -> ocf : CCR-I
activate ocf
ocf -> ocs : POST /ratingdata
activate ocs
ocf <- ocs : 201 Created
deactivate ocs
core <- ocf : CCA-I
deactivate ocf

core -> ocf : CCR-U
activate ocf
ocf -> ocs : POST /ratingdata/{RatingDataRef}/update
activate ocs
ocf <- ocs : 200 OK
deactivate ocs
core <- ocf : CCA-U
deactivate ocf

== Repetition ==

core -> ocf : CCR-T
activate ocf
ocf -> ocs : POST /ratingdata/{RatingDataRef}/release
activate ocs
ocf <- ocs : 200 OK
deactivate ocs
core <- ocf : CCA-T
deactivate ocf


@enduml

PlantUML version 1.2018.13(Mon Nov 26 17:11:51 UTC 2018)
(GPL source distribution)
Java Runtime: OpenJDK Runtime Environment
JVM: OpenJDK 64-Bit Server VM
Java Version: 11.0.17+8-post-Ubuntu-1ubuntu220.04
Operating System: Linux
OS Version: 5.15.0-1025-gcp
Default Encoding: ANSI_X3.4-1968
Language: en
Country: US
--></g></svg>