<?xml version="1.0" encoding="UTF-8" standalone="no"?>
<!DOCTYPE svg PUBLIC "-//W3C//DTD SVG 1.1//EN" "http://www.w3.org/Graphics/SVG/1.1/DTD/svg11.dtd">
<svg version="1.1" xmlns="http://www.w3.org/2000/svg" xmlns:dc="http://purl.org/dc/elements/1.1/" xmlns:xl="http://www.w3.org/1999/xlink" viewBox="-277 -35.5 800.5 498" width="800.5" height="498">
  <defs/>
  <g id="OCF_SLPs" fill="none" stroke="none" fill-opacity="1" stroke-opacity="1" stroke-dasharray="none">
    <title>OCF SLPs</title>
    <g id="OCF_SLPs_Layer_1">
      <title>Layer 1</title>
      <g id="Graphic_30">
        <path d="M -76.90666 -33 L 108.59334 -33 C 115.22076 -33 120.59334 -27.627417 120.59334 -21 L 120.59334 448 C 120.59334 454.6274 115.22076 460 108.59334 460 L -76.90666 460 C -83.53407 460 -88.90666 454.6274 -88.90666 448 L -88.90666 -21 C -88.90666 -27.627417 -83.53407 -33 -76.90666 -33 Z" fill="white"/>
        <path d="M -76.90666 -33 L 108.59334 -33 C 115.22076 -33 120.59334 -27.627417 120.59334 -21 L 120.59334 448 C 120.59334 454.6274 115.22076 460 108.59334 460 L -76.90666 460 C -83.53407 460 -88.90666 454.6274 -88.90666 448 L -88.90666 -21 C -88.90666 -27.627417 -83.53407 -33 -76.90666 -33 Z" stroke="#ffa900" stroke-linecap="round" stroke-linejoin="round" stroke-width="3"/>
        <text transform="translate(-83.90666 -13)" fill="black">
          <tspan font-family="Roboto" font-size="18" fill="black" x="46.73877" y="17">SigScale CSE</tspan>
        </text>
      </g>
      <g id="Graphic_29">
        <path d="M 208 127 L 509 127 C 515.6274 127 521 132.37258 521 139 L 521 298 C 521 304.6274 515.6274 310 509 310 L 208 310 C 201.37258 310 196 304.6274 196 298 L 196 139 C 196 132.37258 201.37258 127 208 127 Z" fill="white"/>
        <path d="M 208 127 L 509 127 C 515.6274 127 521 132.37258 521 139 L 521 298 C 521 304.6274 515.6274 310 509 310 L 208 310 C 201.37258 310 196 304.6274 196 298 L 196 139 C 196 132.37258 201.37258 127 208 127 Z" stroke="#ffa900" stroke-linecap="round" stroke-linejoin="round" stroke-width="3"/>
        <text transform="translate(201 147)" fill="black">
          <tspan font-family="Roboto" font-size="18" fill="black" x="103.4165" y="17">SigScale OCS</tspan>
        </text>
      </g>
      <g id="Graphic_28">
        <path d="M 251.5 194.5 L 335.5 194.5 C 339.91828 194.5 343.5 198.08172 343.5 202.5 L 343.5 261.5 C 343.5 265.91828 339.91828 269.5 335.5 269.5 L 251.5 269.5 C 247.08172 269.5 243.5 265.91828 243.5 261.5 L 243.5 202.5 C 243.5 198.08172 247.08172 194.5 251.5 194.5 Z" fill="#ffa900"/>
        <text transform="translate(248.5 217.5)" fill="white">
          <tspan font-family="Montserrat" font-size="24" fill="white" x="28.728" y="23">RF</tspan>
        </text>
      </g>
      <g id="Graphic_27">
        <path d="M 386.5 194.5 L 470.5 194.5 C 474.9183 194.5 478.5 198.08172 478.5 202.5 L 478.5 261.5 C 478.5 265.91828 474.9183 269.5 470.5 269.5 L 386.5 269.5 C 382.0817 269.5 378.5 265.91828 378.5 261.5 L 378.5 202.5 C 378.5 198.08172 382.0817 194.5 386.5 194.5 Z" fill="#ffa900"/>
        <text transform="translate(383.5 217.5)" fill="white">
          <tspan font-family="Montserrat" font-size="24" fill="white" x="8.292" y="23">ABMF</tspan>
        </text>
      </g>
      <g id="Line_26">
        <line x1="65.84334" y1="104.09225" x2="243.5" y2="203.90775" stroke="#aaa" stroke-linecap="round" stroke-linejoin="round" stroke-width="3"/>
      </g>
      <g id="Graphic_25">
        <rect x="137.07131" y="139.38329" width="25.886" height="24" fill="white"/>
        <text transform="translate(138.07131 140.38329)" fill="black">
          <tspan font-family="Montserrat" font-size="18" fill="black" x="0" y="17">Re</tspan>
        </text>
      </g>
      <g id="Graphic_24">
        <path d="M -262.963 80.02825 C -279.125 76 -272.68 42.08875 -246.898 47.875 C -244.506 36.59575 -214.525 38.4265 -214.721 47.875 C -195.922 35.79025 -171.898 59.887 -188.012 71.97175 C -168.676 77.83075 -188.256 109.39825 -204.125 104.125 C -205.395 112.91425 -233.764 115.99 -236.254 104.125 C -252.318 116.79625 -285.814 97.3135 -262.963 80.02825 Z" fill="#ccc"/>
        <text transform="translate(-256 61.5)" fill="white">
          <tspan font-family="Montserrat" font-size="24" fill="white" x="4.728" y="23">EPC</tspan>
        </text>
      </g>
      <g id="Graphic_23">
        <path d="M -262.963 184.02825 C -279.125 180 -272.68 146.08875 -246.898 151.875 C -244.506 140.59575 -214.525 142.4265 -214.721 151.875 C -195.922 139.79025 -171.898 163.887 -188.012 175.97175 C -168.676 181.83075 -188.256 213.39825 -204.125 208.125 C -205.395 216.91425 -233.764 219.99 -236.254 208.125 C -252.318 220.79625 -285.814 201.3135 -262.963 184.02825 Z" fill="#ccc"/>
        <text transform="translate(-256 165.5)" fill="white">
          <tspan font-family="Montserrat" font-size="24" fill="white" x="7.536" y="23">IMS</tspan>
        </text>
      </g>
      <g id="Line_22">
        <line x1="-181.88944" y1="180" x2="-34.156656" y2="180" stroke="#aaa" stroke-linecap="round" stroke-linejoin="round" stroke-width="3"/>
      </g>
      <g id="Graphic_21">
        <rect x="-146.8363" y="168" width="26.3" height="24" fill="white"/>
        <text transform="translate(-145.8363 169)" fill="black">
          <tspan font-family="Montserrat" font-size="18" fill="black" x="0" y="17">Ro</tspan>
        </text>
      </g>
      <g id="Line_20">
        <line x1="-181.88944" y1="76" x2="-34.156656" y2="76" stroke="#aaa" stroke-linecap="round" stroke-linejoin="round" stroke-width="3"/>
      </g>
      <g id="Graphic_19">
        <rect x="-146.51316" y="64" width="25.67" height="24" fill="white"/>
        <text transform="translate(-145.51316 65)" fill="black">
          <tspan font-family="Montserrat" font-size="18" fill="black" x="0" y="17">Gy</tspan>
        </text>
      </g>
      <g id="Line_18">
        <line x1="65.84334" y1="189.36408" x2="243.5" y2="222.63592" stroke="#aaa" stroke-linecap="round" stroke-linejoin="round" stroke-width="3"/>
      </g>
      <g id="Graphic_17">
        <rect x="137.57513" y="193.22212" width="25.886" height="24" fill="white"/>
        <text transform="translate(138.57513 194.22212)" fill="black">
          <tspan font-family="Montserrat" font-size="18" fill="black" x="0" y="17">Re</tspan>
        </text>
      </g>
      <g id="Graphic_16">
        <path d="M -262.963 288.02825 C -279.125 284 -272.68 250.08875 -246.898 255.875 C -244.506 244.59575 -214.525 246.4265 -214.721 255.875 C -195.922 243.79025 -171.898 267.887 -188.012 279.97175 C -168.676 285.83075 -188.256 317.39825 -204.125 312.125 C -205.395 320.91425 -233.764 323.99 -236.254 312.125 C -252.318 324.79625 -285.814 305.3135 -262.963 288.02825 Z" fill="#ccc"/>
        <text transform="translate(-256 269.5)" fill="white">
          <tspan font-family="Montserrat" font-size="24" fill="white" x="14.04" y="23">CS</tspan>
        </text>
      </g>
      <g id="Line_15">
        <line x1="-181.88944" y1="284" x2="-34.156656" y2="284" stroke="#aaa" stroke-linecap="round" stroke-linejoin="round" stroke-width="3"/>
      </g>
      <g id="Graphic_14">
        <rect x="-152.78334" y="272" width="40.448" height="24" fill="white"/>
        <text transform="translate(-151.78334 273)" fill="black">
          <tspan font-family="Montserrat" font-size="18" fill="black" x="15987212e-20" y="17">CAP</tspan>
        </text>
      </g>
      <g id="Line_13">
        <line x1="65.84334" y1="274.63592" x2="243.5" y2="241.36408" stroke="#aaa" stroke-linecap="round" stroke-linejoin="round" stroke-width="3"/>
      </g>
      <g id="Graphic_12">
        <rect x="139.1246" y="246.4877" width="25.886" height="24" fill="white"/>
        <text transform="translate(140.1246 247.4877)" fill="black">
          <tspan font-family="Montserrat" font-size="18" fill="black" x="0" y="17">Re</tspan>
        </text>
      </g>
      <g id="Graphic_11">
        <path d="M -262.963 288.02825 C -279.125 284 -272.68 250.08875 -246.898 255.875 C -244.506 244.59575 -214.525 246.4265 -214.721 255.875 C -195.922 243.79025 -171.898 267.887 -188.012 279.97175 C -168.676 285.83075 -188.256 317.39825 -204.125 312.125 C -205.395 320.91425 -233.764 323.99 -236.254 312.125 C -252.318 324.79625 -285.814 305.3135 -262.963 288.02825 Z" fill="#ccc"/>
        <text transform="translate(-256 269.5)" fill="white">
          <tspan font-family="Montserrat" font-size="24" fill="white" x="14.04" y="23">CS</tspan>
        </text>
      </g>
      <g id="Graphic_10">
        <path d="M -26.156656 38.5 L 57.843344 38.5 C 62.26162 38.5 65.84334 42.08172 65.84334 46.5 L 65.84334 105.5 C 65.84334 109.91828 62.26162 113.5 57.843344 113.5 L -26.156656 113.5 C -30.574934 113.5 -34.156656 109.91828 -34.156656 105.5 L -34.156656 46.5 C -34.156656 42.08172 -30.574934 38.5 -26.156656 38.5 Z" fill="#ffa900"/>
        <text transform="translate(-29.156656 61.5)" fill="white">
          <tspan font-family="Montserrat" font-size="24" fill="white" x="18.708" y="23">OCF</tspan>
        </text>
      </g>
      <g id="Graphic_9">
        <path d="M -26.156656 142.5 L 57.843344 142.5 C 62.26162 142.5 65.84334 146.08172 65.84334 150.5 L 65.84334 209.5 C 65.84334 213.91828 62.26162 217.5 57.843344 217.5 L -26.156656 217.5 C -30.574934 217.5 -34.156656 213.91828 -34.156656 209.5 L -34.156656 150.5 C -34.156656 146.08172 -30.574934 142.5 -26.156656 142.5 Z" fill="#ffa900"/>
        <text transform="translate(-29.156656 165.5)" fill="white">
          <tspan font-family="Montserrat" font-size="24" fill="white" x="18.708" y="23">OCF</tspan>
        </text>
      </g>
      <g id="Graphic_8">
        <path d="M -26.156656 246.5 L 57.843344 246.5 C 62.26162 246.5 65.84334 250.08172 65.84334 254.5 L 65.84334 313.5 C 65.84334 317.91828 62.26162 321.5 57.843344 321.5 L -26.156656 321.5 C -30.574934 321.5 -34.156656 317.91828 -34.156656 313.5 L -34.156656 254.5 C -34.156656 250.08172 -30.574934 246.5 -26.156656 246.5 Z" fill="#ffa900"/>
        <text transform="translate(-29.156656 269.5)" fill="white">
          <tspan font-family="Montserrat" font-size="24" fill="white" x="18.708" y="23">OCF</tspan>
        </text>
      </g>
      <g id="Graphic_7">
        <path d="M -26.156656 350.5 L 57.843344 350.5 C 62.26162 350.5 65.84334 354.08172 65.84334 358.5 L 65.84334 417.5 C 65.84334 421.9183 62.26162 425.5 57.843344 425.5 L -26.156656 425.5 C -30.574934 425.5 -34.156656 421.9183 -34.156656 417.5 L -34.156656 358.5 C -34.156656 354.08172 -30.574934 350.5 -26.156656 350.5 Z" fill="#ffa900"/>
        <text transform="translate(-29.156656 373.5)" fill="white">
          <tspan font-family="Montserrat" font-size="24" fill="white" x="18.708" y="23">OCF</tspan>
        </text>
      </g>
      <g id="Graphic_6">
        <path d="M -262.963 392.02825 C -279.125 388 -272.68 354.08875 -246.898 359.875 C -244.506 348.59575 -214.525 350.4265 -214.721 359.875 C -195.922 347.79025 -171.898 371.887 -188.012 383.97175 C -168.676 389.83075 -188.256 421.39825 -204.125 416.125 C -205.395 424.91425 -233.764 427.99 -236.254 416.125 C -252.318 428.79625 -285.814 409.3135 -262.963 392.02825 Z" fill="#ccc"/>
        <text transform="translate(-256 373.5)" fill="white">
          <tspan font-family="Montserrat" font-size="24" fill="white" x="1.212" y="23">NGN</tspan>
        </text>
      </g>
      <g id="Line_5">
        <line x1="-181.88944" y1="388" x2="-34.156656" y2="388" stroke="#aaa" stroke-linecap="round" stroke-linejoin="round" stroke-width="3"/>
      </g>
      <g id="Graphic_4">
        <rect x="-156.50934" y="376" width="47.9" height="24" fill="white"/>
        <text transform="translate(-155.50934 377)" fill="black">
          <tspan font-family="Montserrat" font-size="18" fill="black" x="7283063e-19" y="17">INAP</tspan>
        </text>
      </g>
      <g id="Line_3">
        <line x1="65.84334" y1="359.90775" x2="243.5" y2="260.09225" stroke="#aaa" stroke-linecap="round" stroke-linejoin="round" stroke-width="3"/>
      </g>
      <g id="Graphic_2">
        <rect x="139.1246" y="299.4631" width="25.886" height="24" fill="white"/>
        <text transform="translate(140.1246 300.4631)" fill="black">
          <tspan font-family="Montserrat" font-size="18" fill="black" x="0" y="17">Re</tspan>
        </text>
      </g>
    </g>
  </g>
</svg>
