<svg xmlns="http://www.w3.org/2000/svg" xmlns:xlink="http://www.w3.org/1999/xlink" contentStyleType="text/css" data-diagram-type="SEQUENCE" height="415px" preserveAspectRatio="none" style="width:404px;height:415px;background:#FFFFFF;" version="1.1" viewBox="0 0 404 415" width="404px" zoomAndPan="magnify"><defs/><g><g><title>IWF</title><rect fill="#FFFFFF" height="87.9316" style="stroke:#181818;stroke-width:1;" width="10" x="96.3794" y="67.7988"/></g><g><title>IWF</title><rect fill="#FFFFFF" height="87.9316" style="stroke:#181818;stroke-width:1;" width="10" x="96.3794" y="185.041"/></g><g><title>IWF</title><rect fill="#FFFFFF" height="87.9316" style="stroke:#181818;stroke-width:1;" width="10" x="96.3794" y="302.2832"/></g><g><title>CHF</title><rect fill="#FFFFFF" height="29.3105" style="stroke:#181818;stroke-width:1;" width="10" x="372.354" y="97.1094"/></g><g><title>CHF</title><rect fill="#FFFFFF" height="29.3105" style="stroke:#181818;stroke-width:1;" width="10" x="372.354" y="214.3516"/></g><g><title>CHF</title><rect fill="#FFFFFF" height="29.3105" style="stroke:#181818;stroke-width:1;" width="10" x="372.354" y="331.5938"/></g><g><title>PCRF</title><rect fill="#000000" fill-opacity="0.00000" height="371.7266" width="8" x="24.8916" y="36.4883"/><line style="stroke:#F57F17;stroke-width:0.5;stroke-dasharray:5,5;" x1="28" x2="28" y1="36.4883" y2="408.2148"/></g><g><title>IWF</title><rect fill="#000000" fill-opacity="0.00000" height="371.7266" width="8" x="97.3794" y="36.4883"/><line style="stroke:#F57F17;stroke-width:0.5;stroke-dasharray:5,5;" x1="100.6216" x2="100.6216" y1="36.4883" y2="408.2148"/></g><g><title>CHF</title><rect fill="#000000" fill-opacity="0.00000" height="371.7266" width="8" x="373.354" y="36.4883"/><line style="stroke:#F57F17;stroke-width:0.5;stroke-dasharray:5,5;" x1="376.6138" x2="376.6138" y1="36.4883" y2="408.2148"/></g><g class="participant participant-head" data-participant="pcrf"><rect fill="#FFFFFF" height="30.4883" rx="2.5" ry="2.5" style="stroke:#F57F17;stroke-width:0.5;" width="47.7832" x="5" y="5"/><text fill="#000000" font-family="sans-serif" font-size="14" lengthAdjust="spacing" textLength="33.7832" x="12" y="25.5352">PCRF</text></g><g class="participant participant-head" data-participant="iwf"><rect fill="#FFFFFF" height="30.4883" rx="2.5" ry="2.5" style="stroke:#F57F17;stroke-width:0.5;" width="37.5156" x="82.6216" y="5"/><text fill="#000000" font-family="sans-serif" font-size="14" lengthAdjust="spacing" textLength="23.5156" x="89.6216" y="25.5352">IWF</text></g><g class="participant participant-head" data-participant="chf"><rect fill="#FFFFFF" height="30.4883" rx="2.5" ry="2.5" style="stroke:#F57F17;stroke-width:0.5;" width="41.4805" x="356.6138" y="5"/><text fill="#000000" font-family="sans-serif" font-size="14" lengthAdjust="spacing" textLength="27.4805" x="363.6138" y="25.5352">CHF</text></g><g><title>IWF</title><rect fill="#FFFFFF" height="87.9316" style="stroke:#181818;stroke-width:1;" width="10" x="96.3794" y="67.7988"/></g><g><title>IWF</title><rect fill="#FFFFFF" height="87.9316" style="stroke:#181818;stroke-width:1;" width="10" x="96.3794" y="185.041"/></g><g><title>IWF</title><rect fill="#FFFFFF" height="87.9316" style="stroke:#181818;stroke-width:1;" width="10" x="96.3794" y="302.2832"/></g><g><title>CHF</title><rect fill="#FFFFFF" height="29.3105" style="stroke:#181818;stroke-width:1;" width="10" x="372.354" y="97.1094"/></g><g><title>CHF</title><rect fill="#FFFFFF" height="29.3105" style="stroke:#181818;stroke-width:1;" width="10" x="372.354" y="214.3516"/></g><g><title>CHF</title><rect fill="#FFFFFF" height="29.3105" style="stroke:#181818;stroke-width:1;" width="10" x="372.354" y="331.5938"/></g><g class="message" data-participant-1="pcrf" data-participant-2="iwf"><polygon fill="#181818" points="84.3794,63.7988,94.3794,67.7988,84.3794,71.7988,88.3794,67.7988" style="stroke:#181818;stroke-width:1;"/><line style="stroke:#181818;stroke-width:1;" x1="28.8916" x2="90.3794" y1="67.7988" y2="67.7988"/><text fill="#000000" font-family="sans-serif" font-size="13" lengthAdjust="spacing" textLength="33.4204" x="35.8916" y="63.0566">SLR-I</text></g><g class="message" data-participant-1="iwf" data-participant-2="chf"><polygon fill="#181818" points="360.354,93.1094,370.354,97.1094,360.354,101.1094,364.354,97.1094" style="stroke:#181818;stroke-width:1;"/><line style="stroke:#181818;stroke-width:1;" x1="106.3794" x2="366.354" y1="97.1094" y2="97.1094"/><text fill="#000000" font-family="sans-serif" font-size="13" lengthAdjust="spacing" textLength="128.1592" x="113.3794" y="92.3672">POST /subscriptions</text></g><g class="message" data-participant-1="chf" data-participant-2="iwf"><polygon fill="#181818" points="117.3794,122.4199,107.3794,126.4199,117.3794,130.4199,113.3794,126.4199" style="stroke:#181818;stroke-width:1;"/><line style="stroke:#181818;stroke-width:1;" x1="111.3794" x2="376.354" y1="126.4199" y2="126.4199"/><text fill="#000000" font-family="sans-serif" font-size="13" lengthAdjust="spacing" textLength="77.7969" x="123.3794" y="121.6777">201 Created</text></g><g class="message" data-participant-1="iwf" data-participant-2="pcrf"><polygon fill="#181818" points="39.8916,151.7305,29.8916,155.7305,39.8916,159.7305,35.8916,155.7305" style="stroke:#181818;stroke-width:1;"/><line style="stroke:#181818;stroke-width:1;" x1="33.8916" x2="100.3794" y1="155.7305" y2="155.7305"/><text fill="#000000" font-family="sans-serif" font-size="13" lengthAdjust="spacing" textLength="34.1694" x="45.8916" y="150.9883">SLA-I</text></g><g class="message" data-participant-1="pcrf" data-participant-2="iwf"><polygon fill="#181818" points="84.3794,181.041,94.3794,185.041,84.3794,189.041,88.3794,185.041" style="stroke:#181818;stroke-width:1;"/><line style="stroke:#181818;stroke-width:1;" x1="28.8916" x2="90.3794" y1="185.041" y2="185.041"/><text fill="#000000" font-family="sans-serif" font-size="13" lengthAdjust="spacing" textLength="38.6826" x="35.8916" y="180.2988">SLR-U</text></g><g class="message" data-participant-1="iwf" data-participant-2="chf"><polygon fill="#181818" points="360.354,210.3516,370.354,214.3516,360.354,218.3516,364.354,214.3516" style="stroke:#181818;stroke-width:1;"/><line style="stroke:#181818;stroke-width:1;" x1="106.3794" x2="366.354" y1="214.3516" y2="214.3516"/><text fill="#000000" font-family="sans-serif" font-size="13" lengthAdjust="spacing" textLength="225.3608" x="113.3794" y="209.6094">PUT /subscriptions/{subscriptionId}</text></g><g class="message" data-participant-1="chf" data-participant-2="iwf"><polygon fill="#181818" points="117.3794,239.6621,107.3794,243.6621,117.3794,247.6621,113.3794,243.6621" style="stroke:#181818;stroke-width:1;"/><line style="stroke:#181818;stroke-width:1;" x1="111.3794" x2="376.354" y1="243.6621" y2="243.6621"/><text fill="#000000" font-family="sans-serif" font-size="13" lengthAdjust="spacing" textLength="47.3599" x="123.3794" y="238.9199">200 OK</text></g><g class="message" data-participant-1="iwf" data-participant-2="pcrf"><polygon fill="#181818" points="39.8916,268.9727,29.8916,272.9727,39.8916,276.9727,35.8916,272.9727" style="stroke:#181818;stroke-width:1;"/><line style="stroke:#181818;stroke-width:1;" x1="33.8916" x2="100.3794" y1="272.9727" y2="272.9727"/><text fill="#000000" font-family="sans-serif" font-size="13" lengthAdjust="spacing" textLength="43.4878" x="45.8916" y="268.2305">CCA-U</text></g><g class="message" data-participant-1="pcrf" data-participant-2="iwf"><polygon fill="#181818" points="84.3794,298.2832,94.3794,302.2832,84.3794,306.2832,88.3794,302.2832" style="stroke:#181818;stroke-width:1;"/><line style="stroke:#181818;stroke-width:1;" x1="28.8916" x2="90.3794" y1="302.2832" y2="302.2832"/><text fill="#000000" font-family="sans-serif" font-size="13" lengthAdjust="spacing" textLength="37.8955" x="35.8916" y="297.541">SLR-T</text></g><g class="message" data-participant-1="iwf" data-participant-2="chf"><polygon fill="#181818" points="360.354,327.5938,370.354,331.5938,360.354,335.5938,364.354,331.5938" style="stroke:#181818;stroke-width:1;"/><line style="stroke:#181818;stroke-width:1;" x1="106.3794" x2="366.354" y1="331.5938" y2="331.5938"/><text fill="#000000" font-family="sans-serif" font-size="13" lengthAdjust="spacing" textLength="246.9746" x="113.3794" y="326.8516">DELETE /subscriptions/{subscriptionId}</text></g><g class="message" data-participant-1="chf" data-participant-2="iwf"><polygon fill="#181818" points="117.3794,356.9043,107.3794,360.9043,117.3794,364.9043,113.3794,360.9043" style="stroke:#181818;stroke-width:1;"/><line style="stroke:#181818;stroke-width:1;" x1="111.3794" x2="376.354" y1="360.9043" y2="360.9043"/><text fill="#000000" font-family="sans-serif" font-size="13" lengthAdjust="spacing" textLength="100.5596" x="123.3794" y="356.1621">204 No Content</text></g><g class="message" data-participant-1="iwf" data-participant-2="pcrf"><polygon fill="#181818" points="39.8916,386.2148,29.8916,390.2148,39.8916,394.2148,35.8916,390.2148" style="stroke:#181818;stroke-width:1;"/><line style="stroke:#181818;stroke-width:1;" x1="33.8916" x2="100.3794" y1="390.2148" y2="390.2148"/><text fill="#000000" font-family="sans-serif" font-size="13" lengthAdjust="spacing" textLength="38.6445" x="45.8916" y="385.4727">SLA-T</text></g><!--SRC=[fP1TQy8m58RlyoiEx5hKiI6CCN1PnyhA5AtiEYOdDkYIBebp8Fxt9Tr7hPHwiSkSz-iXRgrqoInx0rSmONPAhq2oZKFYQWNVjwWvmfvCcVMAgv9fVs-iG4lDnbYuaDSZEHmrPCRNAsksMdnRTeNoI38bCLCQsy9_McloGCgw7APqzWZCGScjR0ZfQtLNk-QPFbLdNaXIA84WZV5Byqb8B83UNGp03SopMIybZ7lrmJnMBL48UaW6VJgPvz1tswNZLfLU6UrgTooFxjlUZ_joC0HgCMY226pugjbW_9qTXzaZInnkGLjqeIrEoVhxusSg3fse0vWyTrDIEWu4vodp3ig794lov5-WL_1YW1hjKVlptvgV0dy1]--></g></svg>