<?xml version="1.0" encoding="us-ascii" standalone="no"?><svg xmlns="http://www.w3.org/2000/svg" xmlns:xlink="http://www.w3.org/1999/xlink" contentStyleType="text/css" height="266px" preserveAspectRatio="none" style="width:232px;height:266px;background:#FFFFFF;" version="1.1" viewBox="0 0 232 266" width="232px" zoomAndPan="magnify"><defs/><g><rect fill="#FFFFFF" height="40" rx="12.5" ry="12.5" style="stroke:#F57F17;stroke-width:0.5;" width="50" x="104.3362" y="103"/><text fill="#000000" font-family="sans-serif" font-size="14" lengthAdjust="spacing" textLength="24" x="117.3362" y="127.8467">null</text><rect fill="#FFFFFF" height="40" rx="12.5" ry="12.5" style="stroke:#F57F17;stroke-width:0.5;" width="50" x="7.3362" y="220"/><text fill="#000000" font-family="sans-serif" font-size="14" lengthAdjust="spacing" textLength="40" x="12.3362" y="244.8467">active</text><ellipse cx="129.3362" cy="16" fill="#222222" rx="10" ry="10" style="stroke:#222222;stroke-width:1.0;"/><ellipse cx="214.3362" cy="240" fill="none" rx="11" ry="11" style="stroke:#222222;stroke-width:1.0;"/><ellipse cx="214.3362" cy="240" fill="#222222" rx="6" ry="6" style="stroke:#222222;stroke-width:1.0;"/><!--link *start* to null--><g id="link_*start*_null"><path d="M129.3362,26.32 C129.3362,43.38 129.3362,73.98 129.3362,96.64 " fill="none" id="*start*-to-null" style="stroke:#181818;stroke-width:1.0;"/><polygon fill="#181818" points="129.3362,102.64,133.3362,93.64,129.3362,97.64,125.3362,93.64,129.3362,102.64" style="stroke:#181818;stroke-width:1.0;"/><text fill="#000000" font-family="sans-serif" font-size="13" lengthAdjust="spacing" textLength="26" x="130.3362" y="69.0669">ACR</text></g><!--link null to active--><g id="link_null_active"><path d="M103.8862,127.7 C78.3162,132.92 40.2162,145.15 22.3362,173 C13.3862,186.95 15.3927,200.3136 20.8127,214.3336 " fill="none" id="null-to-active" style="stroke:#181818;stroke-width:1.0;"/><polygon fill="#181818" points="22.9762,219.93,23.4618,210.0931,21.1732,215.2664,16,212.9778,22.9762,219.93" style="stroke:#181818;stroke-width:1.0;"/><text fill="#000000" font-family="sans-serif" font-size="13" lengthAdjust="spacing" textLength="62" x="23.3362" y="186.0669">ACR Start</text></g><!--link active to null--><g id="link_active_null"><path d="M57.4162,220.86 C68.2962,212.26 80.7262,201.38 90.3362,190 C102.5362,175.56 110.4605,162.18 117.5405,148.36 " fill="none" id="active-to-null" style="stroke:#181818;stroke-width:1.0;"/><polygon fill="#181818" points="120.2762,143.02,112.6126,149.2062,117.9964,147.47,119.7326,152.8538,120.2762,143.02" style="stroke:#181818;stroke-width:1.0;"/><text fill="#000000" font-family="sans-serif" font-size="13" lengthAdjust="spacing" textLength="60" x="104.3362" y="186.0669">ACR Stop</text></g><!--link null to *end*--><g id="link_null_*end*"><path d="M154.3962,138.46 C167.3262,147.04 182.4162,158.97 192.3362,173 C204.6162,190.35 209.3654,209.131 211.7854,222.871 " fill="none" id="null-to-*end*" style="stroke:#181818;stroke-width:1.0;"/><polygon fill="#181818" points="212.8262,228.78,215.2044,219.2226,211.9589,223.8558,207.3257,220.6103,212.8262,228.78" style="stroke:#181818;stroke-width:1.0;"/></g><!--link active to active--><g id="link_active_active"><path d="M57.6162,230.19 C75.1062,227.21 92.3362,230.48 92.3362,240 C92.3362,249.52 81.0209,253.7978 63.5309,250.8178 " fill="none" id="active-to-active" style="stroke:#181818;stroke-width:1.0;"/><polygon fill="#181818" points="57.6162,249.81,65.8164,255.2648,62.5451,250.6498,67.1601,247.3785,57.6162,249.81" style="stroke:#181818;stroke-width:1.0;"/><text fill="#000000" font-family="sans-serif" font-size="13" lengthAdjust="spacing" textLength="75" x="98.3362" y="244.5669">ACR Interim</text></g><!--SRC=[POmn2y8m48Nt-nK7sOGE3b9m4CJ9LSVYS3GNUvWc8Jaj_djhBLJezdZV-rudbf7xf6-qNDeiIIK6A0y9YJBrM3goSP1mHqU-C1GbPGnFxz4CdOpP6BUhtRQU4RKgBrv1Q3OthAh3JztZyNI1ANwxsPbQl2fbNTZe0So3rVOSbBFq_tpv7vzYWWy0]--></g></svg>