<?xml version="1.0" encoding="UTF-8" standalone="no"?><svg xmlns="http://www.w3.org/2000/svg" xmlns:xlink="http://www.w3.org/1999/xlink" contentScriptType="application/ecmascript" contentStyleType="text/css" height="928px" preserveAspectRatio="none" style="width:1452px;height:928px;" version="1.1" viewBox="0 0 1452 928" width="1452px" zoomAndPan="magnify"><defs><filter height="300%" id="f5b0s008da67l" width="300%" x="-1" y="-1"><feGaussianBlur result="blurOut" stdDeviation="2.0"/><feColorMatrix in="blurOut" result="blurOut2" type="matrix" values="0 0 0 0 0 0 0 0 0 0 0 0 0 0 0 0 0 0 .4 0"/><feOffset dx="4.0" dy="4.0" in="blurOut2" result="blurOut3"/><feBlend in="SourceGraphic" in2="blurOut3" mode="normal"/></filter></defs><g><ellipse cx="785" cy="18" fill="#000000" filter="url(#f5b0s008da67l)" rx="10" ry="10" style="stroke: none; stroke-width: 1.0;"/><ellipse cx="16" cy="257" fill="none" filter="url(#f5b0s008da67l)" rx="10" ry="10" style="stroke: #000000; stroke-width: 1.0;"/><ellipse cx="16.5" cy="257.5" fill="#000000" rx="6" ry="6" style="stroke: none; stroke-width: 1.0;"/><rect fill="#FEFECE" filter="url(#f5b0s008da67l)" height="50" rx="12.5" ry="12.5" style="stroke: #A80036; stroke-width: 1.5;" width="50" x="760" y="105"/><line style="stroke: #A80036; stroke-width: 1.5;" x1="760" x2="810" y1="131.2969" y2="131.2969"/><text fill="#000000" font-family="sans-serif" font-size="14" lengthAdjust="spacingAndGlyphs" textLength="24" x="773" y="122.9951">null</text><rect fill="#FEFECE" filter="url(#f5b0s008da67l)" height="50" rx="12.5" ry="12.5" style="stroke: #A80036; stroke-width: 1.5;" width="225" x="344.5" y="232"/><line style="stroke: #A80036; stroke-width: 1.5;" x1="344.5" x2="569.5" y1="258.2969" y2="258.2969"/><text fill="#000000" font-family="sans-serif" font-size="14" lengthAdjust="spacingAndGlyphs" textLength="205" x="354.5" y="249.9951">authorize_origination_attempt</text><rect fill="#FEFECE" filter="url(#f5b0s008da67l)" height="50" rx="12.5" ry="12.5" style="stroke: #A80036; stroke-width: 1.5;" width="193" x="909.5" y="232"/><line style="stroke: #A80036; stroke-width: 1.5;" x1="909.5" x2="1102.5" y1="258.2969" y2="258.2969"/><text fill="#000000" font-family="sans-serif" font-size="14" lengthAdjust="spacingAndGlyphs" textLength="173" x="919.5" y="249.9951">terminating_call_handling</text><rect fill="#FEFECE" filter="url(#f5b0s008da67l)" height="50" rx="12.5" ry="12.5" style="stroke: #A80036; stroke-width: 1.5;" width="149" x="131.5" y="359"/><line style="stroke: #A80036; stroke-width: 1.5;" x1="131.5" x2="280.5" y1="385.2969" y2="385.2969"/><text fill="#000000" font-family="sans-serif" font-size="14" lengthAdjust="spacingAndGlyphs" textLength="129" x="141.5" y="376.9951">collect_information</text><rect fill="#FEFECE" filter="url(#f5b0s008da67l)" height="50" rx="12.5" ry="12.5" style="stroke: #A80036; stroke-width: 1.5;" width="156" x="384" y="486"/><line style="stroke: #A80036; stroke-width: 1.5;" x1="384" x2="540" y1="512.2969" y2="512.2969"/><text fill="#000000" font-family="sans-serif" font-size="14" lengthAdjust="spacingAndGlyphs" textLength="136" x="394" y="503.9951">analyse_information</text><rect fill="#FEFECE" filter="url(#f5b0s008da67l)" height="50" rx="12.5" ry="12.5" style="stroke: #A80036; stroke-width: 1.5;" width="69" x="695.5" y="613"/><line style="stroke: #A80036; stroke-width: 1.5;" x1="695.5" x2="764.5" y1="639.2969" y2="639.2969"/><text fill="#000000" font-family="sans-serif" font-size="14" lengthAdjust="spacingAndGlyphs" textLength="49" x="705.5" y="630.9951">routing</text><rect fill="#FEFECE" filter="url(#f5b0s008da67l)" height="50" rx="12.5" ry="12.5" style="stroke: #A80036; stroke-width: 1.5;" width="87" x="794.5" y="740"/><line style="stroke: #A80036; stroke-width: 1.5;" x1="794.5" x2="881.5" y1="766.2969" y2="766.2969"/><text fill="#000000" font-family="sans-serif" font-size="14" lengthAdjust="spacingAndGlyphs" textLength="67" x="804.5" y="757.9951">o_alerting</text><rect fill="#FEFECE" filter="url(#f5b0s008da67l)" height="50" rx="12.5" ry="12.5" style="stroke: #A80036; stroke-width: 1.5;" width="83" x="1113.5" y="359"/><line style="stroke: #A80036; stroke-width: 1.5;" x1="1113.5" x2="1196.5" y1="385.2969" y2="385.2969"/><text fill="#000000" font-family="sans-serif" font-size="14" lengthAdjust="spacingAndGlyphs" textLength="63" x="1123.5" y="376.9951">t_alerting</text><rect fill="#FEFECE" filter="url(#f5b0s008da67l)" height="50" rx="12.5" ry="12.5" style="stroke: #A80036; stroke-width: 1.5;" width="60" x="926" y="867"/><line style="stroke: #A80036; stroke-width: 1.5;" x1="926" x2="986" y1="893.2969" y2="893.2969"/><text fill="#000000" font-family="sans-serif" font-size="14" lengthAdjust="spacingAndGlyphs" textLength="40" x="936" y="884.9951">active</text><!--link *start to null--><path d="M785,28 C785,43.46 785,75.68 785,99.6 " fill="none" id="*start-null" style="stroke: #A80036; stroke-width: 1.0;"/><polygon fill="#A80036" points="785,104.87,789,95.87,785,99.87,781,95.87,785,104.87" style="stroke: #A80036; stroke-width: 1.0;"/><text fill="#000000" font-family="sans-serif" font-size="13" lengthAdjust="spacingAndGlyphs" textLength="26" x="786" y="71.0669">CCR</text><!--link null to authorize_origination_attempt--><path d="M759.81,140.6 C710.12,159.54 597.99,202.27 525.01,230.08 " fill="none" id="null-authorize_origination_attempt" style="stroke: #A80036; stroke-width: 1.0;"/><polygon fill="#A80036" points="520.26,231.89,530.0935,232.439,524.9352,230.1172,527.257,224.9588,520.26,231.89" style="stroke: #A80036; stroke-width: 1.0;"/><text fill="#000000" font-family="sans-serif" font-size="13" lengthAdjust="spacingAndGlyphs" textLength="67" x="641" y="198.0669">originating</text><!--link authorize_origination_attempt to null--><path d="M483.23,231.96 C501.54,216.41 527.22,196.91 553,185 C621.14,153.52 709.28,139.54 754.81,134.06 " fill="none" id="authorize_origination_attempt-null" style="stroke: #A80036; stroke-width: 1.0;"/><polygon fill="#A80036" points="759.88,133.46,750.4738,130.5405,754.9143,134.045,751.4098,138.4856,759.88,133.46" style="stroke: #A80036; stroke-width: 1.0;"/><text fill="#000000" font-family="sans-serif" font-size="13" lengthAdjust="spacingAndGlyphs" textLength="38" x="554" y="198.0669">CCR-T</text><!--link null to terminating_call_handling--><path d="M810.23,133.22 C846.83,137.58 915.26,150.1 961,185 C975.18,195.82 986.07,212.48 993.59,226.95 " fill="none" id="null-terminating_call_handling" style="stroke: #A80036; stroke-width: 1.0;"/><polygon fill="#A80036" points="996.01,231.76,995.5376,221.9225,993.7625,227.2936,988.3914,225.5185,996.01,231.76" style="stroke: #A80036; stroke-width: 1.0;"/><text fill="#000000" font-family="sans-serif" font-size="13" lengthAdjust="spacingAndGlyphs" textLength="74" x="978" y="198.0669">terminating</text><!--link terminating_call_handling to null--><path d="M963.18,231.78 C919.57,207.12 853.1,169.52 814.87,147.89 " fill="none" id="terminating_call_handling-null" style="stroke: #A80036; stroke-width: 1.0;"/><polygon fill="#A80036" points="810.35,145.34,816.1937,153.2679,814.6956,147.813,820.1505,146.3149,810.35,145.34" style="stroke: #A80036; stroke-width: 1.0;"/><text fill="#000000" font-family="sans-serif" font-size="13" lengthAdjust="spacingAndGlyphs" textLength="38" x="909" y="198.0669">CCR-T</text><!--link null to *end--><path d="M759.68,131.42 C637.59,133.64 113.14,145.42 53,185 C33.39,197.91 23.55,224.69 19.12,241.42 " fill="none" id="null-*end" style="stroke: #A80036; stroke-width: 1.0;"/><polygon fill="#A80036" points="17.82,246.67,23.8672,238.8962,19.0226,241.8168,16.102,236.9721,17.82,246.67" style="stroke: #A80036; stroke-width: 1.0;"/><!--link authorize_origination_attempt to collect_information--><path d="M344.46,272.29 C293.13,281.06 239.83,294.09 222,312 C211.2,322.84 207.04,339.32 205.65,353.67 " fill="none" id="authorize_origination_attempt-collect_information" style="stroke: #A80036; stroke-width: 1.0;"/><polygon fill="#A80036" points="205.26,358.85,209.9423,350.1853,205.6457,353.8649,201.9661,349.5683,205.26,358.85" style="stroke: #A80036; stroke-width: 1.0;"/><text fill="#000000" font-family="sans-serif" font-size="13" lengthAdjust="spacingAndGlyphs" textLength="65" x="223" y="325.0669">CCR-I RSU</text><!--link authorize_origination_attempt to collect_information--><path d="M395.75,282.02 C374.37,290.89 350.38,301.37 329,312 C301.99,325.43 272.7,342.24 249.49,356.13 " fill="none" id="authorize_origination_attempt-collect_information" style="stroke: #A80036; stroke-width: 1.0;"/><polygon fill="#A80036" points="244.93,358.87,254.7054,357.6695,249.2175,356.2975,250.5895,350.8096,244.93,358.87" style="stroke: #A80036; stroke-width: 1.0;"/><text fill="#000000" font-family="sans-serif" font-size="13" lengthAdjust="spacingAndGlyphs" textLength="72" x="330" y="325.0669">CCR-U RSU</text><!--link authorize_origination_attempt to analyse_information--><path d="M453.99,282.07 C450.66,311.88 446.13,364.2 449,409 C450.55,433.23 454.18,460.54 457.21,480.64 " fill="none" id="authorize_origination_attempt-analyse_information" style="stroke: #A80036; stroke-width: 1.0;"/><polygon fill="#A80036" points="457.97,485.59,460.5612,476.0881,457.2129,480.6476,452.6534,477.2994,457.97,485.59" style="stroke: #A80036; stroke-width: 1.0;"/><text fill="#000000" font-family="sans-serif" font-size="13" lengthAdjust="spacingAndGlyphs" textLength="106" x="450" y="388.5669">CCR-I RSU called</text><!--link authorize_origination_attempt to analyse_information--><path d="M494.04,282.01 C518.1,299.96 547.42,326.89 561,359 C569.65,379.47 569.4,388.43 561,409 C548.85,438.75 523.26,464.47 501.14,482.51 " fill="none" id="authorize_origination_attempt-analyse_information" style="stroke: #A80036; stroke-width: 1.0;"/><polygon fill="#A80036" points="497.05,485.79,506.5732,483.2785,500.9502,482.6613,501.5673,477.0382,497.05,485.79" style="stroke: #A80036; stroke-width: 1.0;"/><text fill="#000000" font-family="sans-serif" font-size="13" lengthAdjust="spacingAndGlyphs" textLength="113" x="568" y="388.5669">CCR-U RSU called</text><!--link authorize_origination_attempt to authorize_origination_attempt--><path d="M569.54,251.51 C590.09,252.2 604.5,254.03 604.5,257 C604.5,259.71 592.46,261.47 574.7,262.29 " fill="none" id="authorize_origination_attempt-authorize_origination_attempt" style="stroke: #A80036; stroke-width: 1.0;"/><polygon fill="#A80036" points="569.54,262.49,578.6931,266.126,574.536,262.2896,578.3724,258.1325,569.54,262.49" style="stroke: #A80036; stroke-width: 1.0;"/><text fill="#000000" font-family="sans-serif" font-size="13" lengthAdjust="spacingAndGlyphs" textLength="34" x="610.5" y="261.5669">CCR-I</text><!--link authorize_origination_attempt to authorize_origination_attempt--><path d="M569.81,245.41 C613.61,244.96 650.5,248.83 650.5,257 C650.5,264.85 616.43,268.73 574.91,268.62 " fill="none" id="authorize_origination_attempt-authorize_origination_attempt" style="stroke: #A80036; stroke-width: 1.0;"/><polygon fill="#A80036" points="569.81,268.59,578.787,272.6414,574.8099,268.6186,578.8327,264.6415,569.81,268.59" style="stroke: #A80036; stroke-width: 1.0;"/><text fill="#000000" font-family="sans-serif" font-size="13" lengthAdjust="spacingAndGlyphs" textLength="41" x="656.5" y="261.5669">CCR-U</text><!--link terminating_call_handling to t_alerting--><path d="M1021.29,282.32 C1031.34,297.03 1045.48,315.48 1061,329 C1075.27,341.43 1092.83,352.42 1108.9,361.2 " fill="none" id="terminating_call_handling-t_alerting" style="stroke: #A80036; stroke-width: 1.0;"/><polygon fill="#A80036" points="1113.38,363.61,1107.3552,355.8189,1108.9786,361.2378,1103.5596,362.8612,1113.38,363.61" style="stroke: #A80036; stroke-width: 1.0;"/><text fill="#000000" font-family="sans-serif" font-size="13" lengthAdjust="spacingAndGlyphs" textLength="65" x="1062" y="325.0669">CCR-I RSU</text><!--link terminating_call_handling to t_alerting--><path d="M1090.13,282.13 C1105.64,289.67 1120.53,299.43 1132,312 C1142.42,323.42 1148.13,339.63 1151.24,353.67 " fill="none" id="terminating_call_handling-t_alerting" style="stroke: #A80036; stroke-width: 1.0;"/><polygon fill="#A80036" points="1152.28,358.73,1154.3727,349.106,1151.2665,353.8338,1146.5387,350.7276,1152.28,358.73" style="stroke: #A80036; stroke-width: 1.0;"/><text fill="#000000" font-family="sans-serif" font-size="13" lengthAdjust="spacingAndGlyphs" textLength="72" x="1143" y="325.0669">CCR-U RSU</text><!--link terminating_call_handling to active--><path d="M1006,282.43 C1006,307.63 1006,348.06 1006,383 C1006,383 1006,383 1006,766 C1006,800.99 988.91,837.79 974.71,862.33 " fill="none" id="terminating_call_handling-active" style="stroke: #A80036; stroke-width: 1.0;"/><polygon fill="#A80036" points="972.1,866.77,980.1242,861.0593,974.6451,862.4662,973.2381,856.9871,972.1,866.77" style="stroke: #A80036; stroke-width: 1.0;"/><text fill="#000000" font-family="sans-serif" font-size="13" lengthAdjust="spacingAndGlyphs" textLength="74" x="1007" y="579.0669">CCR-U USU</text><!--link terminating_call_handling to terminating_call_handling--><path d="M1102.62,251.38 C1122.89,251.96 1137.5,253.84 1137.5,257 C1137.5,259.89 1125.29,261.7 1107.72,262.44 " fill="none" id="terminating_call_handling-terminating_call_handling" style="stroke: #A80036; stroke-width: 1.0;"/><polygon fill="#A80036" points="1102.62,262.62,1111.7518,266.3093,1107.6171,262.4487,1111.4777,258.314,1102.62,262.62" style="stroke: #A80036; stroke-width: 1.0;"/><text fill="#000000" font-family="sans-serif" font-size="13" lengthAdjust="spacingAndGlyphs" textLength="34" x="1143.5" y="261.5669">CCR-I</text><!--link terminating_call_handling to terminating_call_handling--><path d="M1102.61,245.52 C1145.7,244.55 1183.5,248.37 1183.5,257 C1183.5,265.29 1148.59,269.15 1107.63,268.57 " fill="none" id="terminating_call_handling-terminating_call_handling" style="stroke: #A80036; stroke-width: 1.0;"/><polygon fill="#A80036" points="1102.61,268.48,1111.5282,272.6592,1107.609,268.58,1111.6882,264.6608,1102.61,268.48" style="stroke: #A80036; stroke-width: 1.0;"/><text fill="#000000" font-family="sans-serif" font-size="13" lengthAdjust="spacingAndGlyphs" textLength="41" x="1189.5" y="261.5669">CCR-U</text><!--link collect_information to analyse_information--><path d="M226.07,409.13 C240.04,424.52 259.89,443.8 281,456 C310.92,473.29 346.87,485.49 378.82,493.87 " fill="none" id="collect_information-analyse_information" style="stroke: #A80036; stroke-width: 1.0;"/><polygon fill="#A80036" points="383.91,495.18,376.1868,489.0683,379.0669,493.9371,374.1982,496.8172,383.91,495.18" style="stroke: #A80036; stroke-width: 1.0;"/><text fill="#000000" font-family="sans-serif" font-size="13" lengthAdjust="spacingAndGlyphs" textLength="113" x="282" y="452.0669">CCR-U RSU called</text><!--link collect_information to collect_information--><path d="M280.72,372.48 C300.51,373.14 315.5,376.98 315.5,384 C315.5,390.36 303.19,394.12 286.15,395.25 " fill="none" id="collect_information-collect_information" style="stroke: #A80036; stroke-width: 1.0;"/><polygon fill="#A80036" points="280.72,395.52,289.904,399.0774,285.7141,395.2767,289.5147,391.0869,280.72,395.52" style="stroke: #A80036; stroke-width: 1.0;"/><text fill="#000000" font-family="sans-serif" font-size="13" lengthAdjust="spacingAndGlyphs" textLength="41" x="321.5" y="388.5669">CCR-U</text><!--link collect_information to null--><path d="M200.42,358.72 C198.33,344.55 197.78,326.64 204,312 C224.04,264.85 241.67,255.87 287,232 C448.35,147.03 673.83,133.43 754.67,131.34 " fill="none" id="collect_information-null" style="stroke: #A80036; stroke-width: 1.0;"/><polygon fill="#A80036" points="759.78,131.22,750.6802,127.4527,754.7817,131.3485,750.8858,135.45,759.78,131.22" style="stroke: #A80036; stroke-width: 1.0;"/><text fill="#000000" font-family="sans-serif" font-size="13" lengthAdjust="spacingAndGlyphs" textLength="38" x="288" y="261.5669">CCR-T</text><!--link analyse_information to active--><path d="M473.3,536 C503.52,597.34 592.6,760.36 719,837 C782.89,875.74 871.77,886.72 920.51,889.81 " fill="none" id="analyse_information-active" style="stroke: #A80036; stroke-width: 1.0;"/><polygon fill="#A80036" points="925.67,890.12,916.9265,885.5867,920.679,889.8197,916.446,893.5722,925.67,890.12" style="stroke: #A80036; stroke-width: 1.0;"/><text fill="#000000" font-family="sans-serif" font-size="13" lengthAdjust="spacingAndGlyphs" textLength="74" x="581" y="706.0669">CCR-U USU</text><!--link analyse_information to routing--><path d="M513.67,536.1 C565.29,560.18 643.51,596.66 690.4,618.53 " fill="none" id="analyse_information-routing" style="stroke: #A80036; stroke-width: 1.0;"/><polygon fill="#A80036" points="695.12,620.73,688.6572,613.2982,690.5894,618.6148,685.2728,620.5471,695.12,620.73" style="stroke: #A80036; stroke-width: 1.0;"/><text fill="#000000" font-family="sans-serif" font-size="13" lengthAdjust="spacingAndGlyphs" textLength="41" x="613" y="579.0669">CCR-U</text><!--link analyse_information to null--><path d="M383.69,507.97 C269.49,501.16 74.82,472.98 114,359 C137.26,291.32 154.78,273.62 213,232 C301.84,168.48 649.81,140.15 754.83,132.93 " fill="none" id="analyse_information-null" style="stroke: #A80036; stroke-width: 1.0;"/><polygon fill="#A80036" points="759.94,132.58,750.6874,129.2051,754.9517,132.9221,751.2347,137.1863,759.94,132.58" style="stroke: #A80036; stroke-width: 1.0;"/><text fill="#000000" font-family="sans-serif" font-size="13" lengthAdjust="spacingAndGlyphs" textLength="38" x="134" y="325.0669">CCR-T</text><!--link routing to active--><path d="M715.24,663.18 C697.94,694.99 674.74,751.36 701,790 C750.88,863.4 863.29,883.46 920.74,888.94 " fill="none" id="routing-active" style="stroke: #A80036; stroke-width: 1.0;"/><polygon fill="#A80036" points="925.79,889.4,917.1928,884.5949,920.8109,888.9435,916.4624,892.5615,925.79,889.4" style="stroke: #A80036; stroke-width: 1.0;"/><text fill="#000000" font-family="sans-serif" font-size="13" lengthAdjust="spacingAndGlyphs" textLength="74" x="702" y="769.5669">CCR-U USU</text><!--link routing to o_alerting--><path d="M750.82,663.1 C768.83,683.94 794.86,714.07 813.79,735.98 " fill="none" id="routing-o_alerting" style="stroke: #A80036; stroke-width: 1.0;"/><polygon fill="#A80036" points="817.24,739.97,814.4023,730.5388,813.979,736.1798,808.338,735.7564,817.24,739.97" style="stroke: #A80036; stroke-width: 1.0;"/><text fill="#000000" font-family="sans-serif" font-size="13" lengthAdjust="spacingAndGlyphs" textLength="41" x="791" y="706.0669">CCR-U</text><!--link routing to null--><path d="M747.71,613 C763.78,588.79 785,549.7 785,512 C785,256 785,256 785,256 C785,223.38 785,185.97 785,160.65 " fill="none" id="routing-null" style="stroke: #A80036; stroke-width: 1.0;"/><polygon fill="#A80036" points="785,155.43,781,164.43,785,160.43,789,164.43,785,155.43" style="stroke: #A80036; stroke-width: 1.0;"/><text fill="#000000" font-family="sans-serif" font-size="13" lengthAdjust="spacingAndGlyphs" textLength="38" x="786" y="388.5669">CCR-T</text><!--link o_alerting to active--><path d="M860.2,790.09 C872.95,803.88 889.31,821.47 904,837 C911.99,845.45 920.74,854.58 928.75,862.89 " fill="none" id="o_alerting-active" style="stroke: #A80036; stroke-width: 1.0;"/><polygon fill="#A80036" points="932.61,866.89,929.2422,857.6349,929.1393,863.2908,923.4834,863.1879,932.61,866.89" style="stroke: #A80036; stroke-width: 1.0;"/><text fill="#000000" font-family="sans-serif" font-size="13" lengthAdjust="spacingAndGlyphs" textLength="74" x="905" y="833.0669">CCR-U USU</text><!--link o_alerting to o_alerting--><path d="M881.59,753.51 C900.4,752.57 916.5,756.4 916.5,765 C916.5,772.79 903.28,776.67 886.8,776.62 " fill="none" id="o_alerting-o_alerting" style="stroke: #A80036; stroke-width: 1.0;"/><polygon fill="#A80036" points="881.59,776.49,890.4721,780.7454,886.588,776.6328,890.7006,772.7487,881.59,776.49" style="stroke: #A80036; stroke-width: 1.0;"/><text fill="#000000" font-family="sans-serif" font-size="13" lengthAdjust="spacingAndGlyphs" textLength="41" x="922.5" y="769.5669">CCR-U</text><!--link o_alerting to null--><path d="M850.66,739.83 C862.38,715.17 878,675.46 878,639 C878,446.5 878,446.5 878,446.5 C878,337.02 825.84,214.58 799.65,159.98 " fill="none" id="o_alerting-null" style="stroke: #A80036; stroke-width: 1.0;"/><polygon fill="#A80036" points="797.35,155.23,797.6588,165.074,799.5229,159.7331,804.8638,161.5973,797.35,155.23" style="stroke: #A80036; stroke-width: 1.0;"/><text fill="#000000" font-family="sans-serif" font-size="13" lengthAdjust="spacingAndGlyphs" textLength="38" x="879" y="452.0669">CCR-T</text><!--link t_alerting to active--><path d="M1144.56,409.4 C1134.89,434.24 1122,474.09 1122,510 C1122,510 1122,510 1122,766 C1122,831.05 1039.65,866.48 990.95,881.74 " fill="none" id="t_alerting-active" style="stroke: #A80036; stroke-width: 1.0;"/><polygon fill="#A80036" points="986.06,883.24,995.8349,884.4451,990.8432,881.7836,993.5047,876.792,986.06,883.24" style="stroke: #A80036; stroke-width: 1.0;"/><text fill="#000000" font-family="sans-serif" font-size="13" lengthAdjust="spacingAndGlyphs" textLength="74" x="1123" y="642.5669">CCR-U USU</text><!--link t_alerting to t_alerting--><path d="M1196.71,372.56 C1215.36,371.47 1231.5,375.28 1231.5,384 C1231.5,391.9 1218.25,395.77 1201.88,395.62 " fill="none" id="t_alerting-t_alerting" style="stroke: #A80036; stroke-width: 1.0;"/><polygon fill="#A80036" points="1196.71,395.44,1205.5672,399.7469,1201.707,395.6118,1205.8421,391.7516,1196.71,395.44" style="stroke: #A80036; stroke-width: 1.0;"/><text fill="#000000" font-family="sans-serif" font-size="13" lengthAdjust="spacingAndGlyphs" textLength="41" x="1237.5" y="388.5669">CCR-U</text><!--link t_alerting to null--><path d="M1190.68,358.89 C1231.47,328.37 1288.53,274.63 1255,232 C1199.99,162.07 910.57,138.56 815.38,132.66 " fill="none" id="t_alerting-null" style="stroke: #A80036; stroke-width: 1.0;"/><polygon fill="#A80036" points="810.19,132.34,818.9343,136.8718,815.181,132.6395,819.4134,128.8862,810.19,132.34" style="stroke: #A80036; stroke-width: 1.0;"/><text fill="#000000" font-family="sans-serif" font-size="13" lengthAdjust="spacingAndGlyphs" textLength="38" x="1266" y="261.5669">CCR-T</text><!--link active to null--><path d="M986.24,889.07 C1086.39,881.87 1401,852.37 1401,766 C1401,256 1401,256 1401,256 C1401,135.17 940.02,129.85 815.62,130.61 " fill="none" id="active-null" style="stroke: #A80036; stroke-width: 1.0;"/><polygon fill="#A80036" points="810.3,130.65,819.334,134.5727,815.2998,130.6071,819.2654,126.573,810.3,130.65" style="stroke: #A80036; stroke-width: 1.0;"/><text fill="#000000" font-family="sans-serif" font-size="13" lengthAdjust="spacingAndGlyphs" textLength="38" x="1402" y="515.5669">CCR-T</text><!--link active to active--><path d="M986.09,881.1 C1004.07,878.68 1021,882.31 1021,892 C1021,900.78 1007.1,904.59 991.11,903.42 " fill="none" id="active-active" style="stroke: #A80036; stroke-width: 1.0;"/><polygon fill="#A80036" points="986.09,902.9,994.6321,907.8024,991.0636,903.413,995.4529,899.8446,986.09,902.9" style="stroke: #A80036; stroke-width: 1.0;"/><text fill="#000000" font-family="sans-serif" font-size="13" lengthAdjust="spacingAndGlyphs" textLength="41" x="1027" y="896.5669">CCR-U</text><!--
@startuml

state null {
}
state authorize_origination_attempt {
}
state terminating_call_handling {
}
state collect_information {
}
state analyse_information {
}
state routing {
}
state o_alerting {
}
state t_alerting {
}
state active {
}

[*] - -> null : CCR
null - -> authorize_origination_attempt : originating
null - -> terminating_call_handling : terminating
null - -> [*]

authorize_origination_attempt - -> collect_information : CCR-I RSU
authorize_origination_attempt - -> collect_information : CCR-U RSU
authorize_origination_attempt - -> analyse_information : CCR-I RSU called
authorize_origination_attempt - -> analyse_information : CCR-U RSU called
authorize_origination_attempt - -> authorize_origination_attempt : CCR-I
authorize_origination_attempt - -> authorize_origination_attempt : CCR-U
authorize_origination_attempt - -> null : CCR-T

terminating_call_handling - -> t_alerting : CCR-I RSU
terminating_call_handling - -> t_alerting : CCR-U RSU
terminating_call_handling - -> active : CCR-U USU
terminating_call_handling - -> terminating_call_handling : CCR-I
terminating_call_handling - -> terminating_call_handling : CCR-U
terminating_call_handling - -> null : CCR-T

collect_information - -> analyse_information : CCR-U RSU called
collect_information - -> collect_information : CCR-U 
collect_information - -> null : CCR-T

analyse_information - -> active : CCR-U USU
analyse_information - -> routing : CCR-U
analyse_information - -> null : CCR-T

routing - -> active : CCR-U USU
routing - -> o_alerting : CCR-U
routing - -> null : CCR-T

o_alerting - -> active : CCR-U USU
o_alerting - -> o_alerting : CCR-U
o_alerting - -> null : CCR-T

t_alerting - -> active : CCR-U USU
t_alerting - -> t_alerting : CCR-U
t_alerting - -> null : CCR-T

active - -> null : CCR-T
active - -> active : CCR-U

@enduml

PlantUML version 1.2018.13(Mon Nov 26 17:11:51 UTC 2018)
(GPL source distribution)
Java Runtime: OpenJDK Runtime Environment
JVM: OpenJDK 64-Bit Server VM
Java Version: 11.0.17+8-post-Ubuntu-1ubuntu220.04
Operating System: Linux
OS Version: 5.15.0-1025-gcp
Default Encoding: ANSI_X3.4-1968
Language: en
Country: US
--></g></svg>