<?xml version="1.0" encoding="UTF-8" standalone="no"?><svg xmlns="http://www.w3.org/2000/svg" xmlns:xlink="http://www.w3.org/1999/xlink" contentScriptType="application/ecmascript" contentStyleType="text/css" height="624px" preserveAspectRatio="none" style="width:563px;height:624px;" version="1.1" viewBox="0 0 563 624" width="563px" zoomAndPan="magnify"><defs/><g><rect fill="#FFFFFF" height="40" rx="12.5" ry="12.5" style="stroke: #A80036; stroke-width: 1.5;" width="50" x="270" y="105"/><text fill="#000000" font-family="sans-serif" font-size="14" lengthAdjust="spacingAndGlyphs" textLength="24" x="283" y="129.8467">null</text><rect fill="#FFFFFF" height="40" rx="12.5" ry="12.5" style="stroke: #A80036; stroke-width: 1.5;" width="182" x="64" y="222"/><text fill="#000000" font-family="sans-serif" font-size="14" lengthAdjust="spacingAndGlyphs" textLength="172" x="69" y="246.8467">authorize_event_attempt</text><rect fill="#FFFFFF" height="40" rx="12.5" ry="12.5" style="stroke: #A80036; stroke-width: 1.5;" width="139" x="232.5" y="339"/><text fill="#000000" font-family="sans-serif" font-size="14" lengthAdjust="spacingAndGlyphs" textLength="129" x="237.5" y="363.8467">collect_information</text><rect fill="#FFFFFF" height="40" rx="12.5" ry="12.5" style="stroke: #A80036; stroke-width: 1.5;" width="146" x="24" y="456"/><text fill="#000000" font-family="sans-serif" font-size="14" lengthAdjust="spacingAndGlyphs" textLength="136" x="29" y="480.8467">analyse_information</text><rect fill="#FFFFFF" height="40" rx="12.5" ry="12.5" style="stroke: #A80036; stroke-width: 1.5;" width="50" x="277" y="573"/><text fill="#000000" font-family="sans-serif" font-size="14" lengthAdjust="spacingAndGlyphs" textLength="40" x="282" y="597.8467">active</text><ellipse cx="295" cy="18" fill="#000000" rx="10" ry="10" style="stroke: none; stroke-width: 1.0;"/><ellipse cx="542" cy="242" fill="none" rx="10" ry="10" style="stroke: #000000; stroke-width: 1.0;"/><ellipse cx="542.5" cy="242.5" fill="#000000" rx="6" ry="6" style="stroke: none; stroke-width: 1.0;"/><!--link *start to null--><path d="M295,28.32 C295,44.12 295,76.65 295,99.38 " fill="none" id="*start-null" style="stroke: #A80036; stroke-width: 1.0;"/><polygon fill="#A80036" points="295,104.64,299,95.64,295,99.64,291,95.64,295,104.64" style="stroke: #A80036; stroke-width: 1.0;"/><text fill="#000000" font-family="sans-serif" font-size="13" lengthAdjust="spacingAndGlyphs" textLength="26" x="296" y="71.0669">CCR</text><!--link null to authorize_event_attempt--><path d="M287.37,145.09 C280.82,159.49 270.19,178.92 256,192 C243.72,203.31 228.36,212.53 213.34,219.81 " fill="none" id="null-authorize_event_attempt" style="stroke: #A80036; stroke-width: 1.0;"/><polygon fill="#A80036" points="208.7,222,218.5461,221.7662,213.2196,219.8614,215.1243,214.5349,208.7,222" style="stroke: #A80036; stroke-width: 1.0;"/><text fill="#000000" font-family="sans-serif" font-size="13" lengthAdjust="spacingAndGlyphs" textLength="26" x="271" y="188.0669">CCR</text><!--link authorize_event_attempt to null--><path d="M82.06,221.91 C53.66,210.88 31.45,195.16 48,175 C75.13,141.96 204.99,130.8 264.77,127.38 " fill="none" id="authorize_event_attempt-null" style="stroke: #A80036; stroke-width: 1.0;"/><polygon fill="#A80036" points="269.98,127.09,260.7659,123.6115,264.9882,127.3761,261.2236,131.5984,269.98,127.09" style="stroke: #A80036; stroke-width: 1.0;"/><text fill="#000000" font-family="sans-serif" font-size="13" lengthAdjust="spacingAndGlyphs" textLength="62" x="49" y="188.0669">One-Time</text><!--link authorize_event_attempt to null--><path d="M146.58,221.88 C141.72,207.66 138.3,188.46 148,175 C174.5,138.23 229.79,128.64 264.5,126.37 " fill="none" id="authorize_event_attempt-null" style="stroke: #A80036; stroke-width: 1.0;"/><polygon fill="#A80036" points="269.88,126.07,260.6665,122.59,264.8881,126.3552,261.1229,130.5769,269.88,126.07" style="stroke: #A80036; stroke-width: 1.0;"/><text fill="#000000" font-family="sans-serif" font-size="13" lengthAdjust="spacingAndGlyphs" textLength="98" x="149" y="188.0669">Fail | Terminate</text><!--link null to *end--><path d="M320.01,125.59 C362.32,126.14 448.89,132.82 505,175 C522.55,188.19 532.95,212.28 538.06,227.42 " fill="none" id="null-*end" style="stroke: #A80036; stroke-width: 1.0;"/><polygon fill="#A80036" points="539.59,232.19,540.645,222.3978,538.0604,227.4297,533.0285,224.8451,539.59,232.19" style="stroke: #A80036; stroke-width: 1.0;"/><!--link authorize_event_attempt to analyse_information--><path d="M136.63,262.06 C120.53,280.18 98.3,309.06 89,339 C77.31,376.64 84.23,422.9 90.48,450.61 " fill="none" id="authorize_event_attempt-analyse_information" style="stroke: #A80036; stroke-width: 1.0;"/><polygon fill="#A80036" points="91.64,455.56,93.4786,445.8843,90.498,450.6922,85.6901,447.7115,91.64,455.56" style="stroke: #A80036; stroke-width: 1.0;"/><text fill="#000000" font-family="sans-serif" font-size="13" lengthAdjust="spacingAndGlyphs" textLength="124" x="90" y="363.5669">Success &amp; Granted</text><!--link authorize_event_attempt to collect_information--><path d="M179.6,262.25 C205.36,282.4 245.78,314.02 273.05,335.36 " fill="none" id="authorize_event_attempt-collect_information" style="stroke: #A80036; stroke-width: 1.0;"/><polygon fill="#A80036" points="277.31,338.69,272.6681,330.0036,273.3655,335.6173,267.7519,336.3148,277.31,338.69" style="stroke: #A80036; stroke-width: 1.0;"/><text fill="#000000" font-family="sans-serif" font-size="13" lengthAdjust="spacingAndGlyphs" textLength="53" x="239" y="305.0669">Success</text><!--link collect_information to active--><path d="M302,379.38 C302,421.54 302,521.48 302,567.73 " fill="none" id="collect_information-active" style="stroke: #A80036; stroke-width: 1.0;"/><polygon fill="#A80036" points="302,572.84,306,563.84,302,567.84,298,563.84,302,572.84" style="stroke: #A80036; stroke-width: 1.0;"/><text fill="#000000" font-family="sans-serif" font-size="13" lengthAdjust="spacingAndGlyphs" textLength="105" x="303" y="480.5669">Success &amp; Used</text><!--link collect_information to analyse_information--><path d="M232.21,371.37 C202.96,378.62 169.83,390.31 144,409 C128.95,419.89 116.92,437.11 108.8,451.23 " fill="none" id="collect_information-analyse_information" style="stroke: #A80036; stroke-width: 1.0;"/><polygon fill="#A80036" points="106.19,455.89,114.0722,449.9848,108.6291,451.5253,107.0886,446.0822,106.19,455.89" style="stroke: #A80036; stroke-width: 1.0;"/><text fill="#000000" font-family="sans-serif" font-size="13" lengthAdjust="spacingAndGlyphs" textLength="130" x="145" y="422.0669">Success &amp; Recipient</text><!--link collect_information to collect_information--><path d="M371.83,348.18 C391.44,348.65 406.5,352.26 406.5,359 C406.5,365.11 394.13,368.64 377.22,369.61 " fill="none" id="collect_information-collect_information" style="stroke: #A80036; stroke-width: 1.0;"/><polygon fill="#A80036" points="371.83,369.82,380.9827,373.4571,376.826,369.6202,380.6629,365.4635,371.83,369.82" style="stroke: #A80036; stroke-width: 1.0;"/><text fill="#000000" font-family="sans-serif" font-size="13" lengthAdjust="spacingAndGlyphs" textLength="7" x="412.5" y="363.5669">*</text><!--link collect_information to null--><path d="M304.06,338.96 C307.31,305.62 312.6,234.54 306,175 C305.11,166.97 303.42,158.34 301.63,150.59 " fill="none" id="collect_information-null" style="stroke: #A80036; stroke-width: 1.0;"/><polygon fill="#A80036" points="300.39,145.39,298.6116,155.077,301.5623,150.2506,306.3886,153.2013,300.39,145.39" style="stroke: #A80036; stroke-width: 1.0;"/><text fill="#000000" font-family="sans-serif" font-size="13" lengthAdjust="spacingAndGlyphs" textLength="65" x="311" y="246.5669">Terminate</text><!--link analyse_information to active--><path d="M114.03,496.25 C127.69,510.73 148,530.2 169,543 C201.73,562.96 243.89,576.77 271.87,584.53 " fill="none" id="analyse_information-active" style="stroke: #A80036; stroke-width: 1.0;"/><polygon fill="#A80036" points="276.92,585.91,269.2865,579.6867,272.0955,584.5968,267.1854,587.4059,276.92,585.91" style="stroke: #A80036; stroke-width: 1.0;"/><text fill="#000000" font-family="sans-serif" font-size="13" lengthAdjust="spacingAndGlyphs" textLength="105" x="170" y="539.0669">Success &amp; Used</text><!--link analyse_information to analyse_information--><path d="M170.19,465.21 C189.96,465.77 205,469.37 205,476 C205,482.01 192.65,485.52 175.62,486.55 " fill="none" id="analyse_information-analyse_information" style="stroke: #A80036; stroke-width: 1.0;"/><polygon fill="#A80036" points="170.19,486.79,179.3535,490.3998,175.1854,486.5753,179.0099,482.4072,170.19,486.79" style="stroke: #A80036; stroke-width: 1.0;"/><text fill="#000000" font-family="sans-serif" font-size="13" lengthAdjust="spacingAndGlyphs" textLength="7" x="211" y="480.5669">*</text><!--link analyse_information to null--><path d="M83.31,455.69 C48.09,403.47 -37.95,257.81 35,175 C64.9,141.06 202.7,130.34 264.66,127.2 " fill="none" id="analyse_information-null" style="stroke: #A80036; stroke-width: 1.0;"/><polygon fill="#A80036" points="269.71,126.95,260.5265,123.3913,264.7159,127.1926,260.9147,131.3819,269.71,126.95" style="stroke: #A80036; stroke-width: 1.0;"/><text fill="#000000" font-family="sans-serif" font-size="13" lengthAdjust="spacingAndGlyphs" textLength="65" x="14" y="305.0669">Terminate</text><!--link active to active--><path d="M327.28,583.19 C344.77,580.21 362,583.48 362,593 C362,601.55 348.09,605.06 332.58,603.53 " fill="none" id="active-active" style="stroke: #A80036; stroke-width: 1.0;"/><polygon fill="#A80036" points="327.28,602.81,335.6763,607.958,332.2366,603.4671,336.7276,600.0274,327.28,602.81" style="stroke: #A80036; stroke-width: 1.0;"/><text fill="#000000" font-family="sans-serif" font-size="13" lengthAdjust="spacingAndGlyphs" textLength="7" x="368" y="597.5669">*</text><!--link active to null--><path d="M327.36,587.7 C376.3,577.78 479,548.46 479,477 C479,241 479,241 479,241 C479,169.44 377.67,140.76 325.4,130.72 " fill="none" id="active-null" style="stroke: #A80036; stroke-width: 1.0;"/><polygon fill="#A80036" points="320.2,129.75,328.3165,135.3287,325.1157,130.6645,329.7798,127.4637,320.2,129.75" style="stroke: #A80036; stroke-width: 1.0;"/><text fill="#000000" font-family="sans-serif" font-size="13" lengthAdjust="spacingAndGlyphs" textLength="65" x="480" y="363.5669">Terminate</text><!--
@startuml

hide empty description
skinparam shadowing false
state null #white ##f57f17
state authorize_event_attempt #white ##f57f17
state collect_information #white##f57f17
state analyse_information #white##f57f17
state active #white ##f57f17

[*] - -> null : CCR
null - -> authorize_event_attempt : CCR
null - -> [*]

authorize_event_attempt - -> null : One-Time
authorize_event_attempt - -> analyse_information : Success & Granted
authorize_event_attempt - -> collect_information : Success
authorize_event_attempt - -> null : Fail | Terminate

collect_information - -> active : Success & Used
collect_information - -> analyse_information : Success & Recipient
collect_information - -> collect_information : *
collect_information - -> null : Terminate

analyse_information - -> active : Success & Used
analyse_information - -> analyse_information : *
analyse_information - -> null : Terminate

active - -> active : *
active - -> null : Terminate

@enduml

PlantUML version 1.2018.13(Mon Nov 26 17:11:51 UTC 2018)
(GPL source distribution)
Java Runtime: OpenJDK Runtime Environment
JVM: OpenJDK 64-Bit Server VM
Java Version: 11.0.17+8-post-Ubuntu-1ubuntu220.04
Operating System: Linux
OS Version: 5.15.0-1025-gcp
Default Encoding: ANSI_X3.4-1968
Language: en
Country: US
--></g></svg>