<?xml version="1.0" encoding="UTF-8" standalone="no"?><svg xmlns="http://www.w3.org/2000/svg" xmlns:xlink="http://www.w3.org/1999/xlink" contentScriptType="application/ecmascript" contentStyleType="text/css" height="801px" preserveAspectRatio="none" style="width:822px;height:801px;" version="1.1" viewBox="0 0 822 801" width="822px" zoomAndPan="magnify"><defs><filter height="300%" id="f18qhv3fyrsnor" width="300%" x="-1" y="-1"><feGaussianBlur result="blurOut" stdDeviation="2.0"/><feColorMatrix in="blurOut" result="blurOut2" type="matrix" values="0 0 0 0 0 0 0 0 0 0 0 0 0 0 0 0 0 0 .4 0"/><feOffset dx="4.0" dy="4.0" in="blurOut2" result="blurOut3"/><feBlend in="SourceGraphic" in2="blurOut3" mode="normal"/></filter></defs><g><ellipse cx="497.71" cy="18" fill="#000000" filter="url(#f18qhv3fyrsnor)" rx="10" ry="10" style="stroke: none; stroke-width: 1.0;"/><ellipse cx="21.71" cy="257" fill="none" filter="url(#f18qhv3fyrsnor)" rx="10" ry="10" style="stroke: #000000; stroke-width: 1.0;"/><ellipse cx="22.21" cy="257.5" fill="#000000" rx="6" ry="6" style="stroke: none; stroke-width: 1.0;"/><rect fill="#FEFECE" filter="url(#f18qhv3fyrsnor)" height="50" rx="12.5" ry="12.5" style="stroke: #A80036; stroke-width: 1.5;" width="50" x="472.71" y="105"/><line style="stroke: #A80036; stroke-width: 1.5;" x1="472.71" x2="522.71" y1="131.2969" y2="131.2969"/><text fill="#000000" font-family="sans-serif" font-size="14" lengthAdjust="spacingAndGlyphs" textLength="24" x="485.71" y="122.9951">null</text><rect fill="#FEFECE" filter="url(#f18qhv3fyrsnor)" height="50" rx="12.5" ry="12.5" style="stroke: #A80036; stroke-width: 1.5;" width="225" x="67.21" y="232"/><line style="stroke: #A80036; stroke-width: 1.5;" x1="67.21" x2="292.21" y1="258.2969" y2="258.2969"/><text fill="#000000" font-family="sans-serif" font-size="14" lengthAdjust="spacingAndGlyphs" textLength="205" x="77.21" y="249.9951">authorize_origination_attempt</text><rect fill="#FEFECE" filter="url(#f18qhv3fyrsnor)" height="50" rx="12.5" ry="12.5" style="stroke: #A80036; stroke-width: 1.5;" width="149" x="317.21" y="359"/><line style="stroke: #A80036; stroke-width: 1.5;" x1="317.21" x2="466.21" y1="385.2969" y2="385.2969"/><text fill="#000000" font-family="sans-serif" font-size="14" lengthAdjust="spacingAndGlyphs" textLength="129" x="327.21" y="376.9951">collect_information</text><rect fill="#FEFECE" filter="url(#f18qhv3fyrsnor)" height="50" rx="12.5" ry="12.5" style="stroke: #A80036; stroke-width: 1.5;" width="156" x="323.71" y="486"/><line style="stroke: #A80036; stroke-width: 1.5;" x1="323.71" x2="479.71" y1="512.2969" y2="512.2969"/><text fill="#000000" font-family="sans-serif" font-size="14" lengthAdjust="spacingAndGlyphs" textLength="136" x="333.71" y="503.9951">analyse_information</text><rect fill="#FEFECE" filter="url(#f18qhv3fyrsnor)" height="50" rx="12.5" ry="12.5" style="stroke: #A80036; stroke-width: 1.5;" width="69" x="569.21" y="613"/><line style="stroke: #A80036; stroke-width: 1.5;" x1="569.21" x2="638.21" y1="639.2969" y2="639.2969"/><text fill="#000000" font-family="sans-serif" font-size="14" lengthAdjust="spacingAndGlyphs" textLength="49" x="579.21" y="630.9951">routing</text><rect fill="#FEFECE" filter="url(#f18qhv3fyrsnor)" height="50" rx="12.5" ry="12.5" style="stroke: #A80036; stroke-width: 1.5;" width="60" x="573.71" y="740"/><line style="stroke: #A80036; stroke-width: 1.5;" x1="573.71" x2="633.71" y1="766.2969" y2="766.2969"/><text fill="#000000" font-family="sans-serif" font-size="14" lengthAdjust="spacingAndGlyphs" textLength="40" x="583.71" y="757.9951">active</text><!--link *start to null--><path d="M497.71,28 C497.71,43.46 497.71,75.68 497.71,99.6 " fill="none" id="*start-null" style="stroke: #A80036; stroke-width: 1.0;"/><polygon fill="#A80036" points="497.71,104.87,501.71,95.87,497.71,99.87,493.71,95.87,497.71,104.87" style="stroke: #A80036; stroke-width: 1.0;"/><text fill="#000000" font-family="sans-serif" font-size="13" lengthAdjust="spacingAndGlyphs" textLength="26" x="498.71" y="71.0669">CCR</text><!--link null to authorize_origination_attempt--><path d="M472.64,134.55 C432.01,140.91 349.87,156.36 285.71,185 C260.03,196.46 233.74,214.02 213.77,228.81 " fill="none" id="null-authorize_origination_attempt" style="stroke: #A80036; stroke-width: 1.0;"/><polygon fill="#A80036" points="209.61,231.92,219.2187,229.7584,213.622,228.936,214.4443,223.3393,209.61,231.92" style="stroke: #A80036; stroke-width: 1.0;"/><text fill="#000000" font-family="sans-serif" font-size="13" lengthAdjust="spacingAndGlyphs" textLength="67" x="286.71" y="198.0669">originating</text><!--link authorize_origination_attempt to null--><path d="M270.94,231.91 C299.42,223.48 330.7,213.27 358.71,202 C397.56,186.36 440.17,163.73 467.83,148.24 " fill="none" id="authorize_origination_attempt-null" style="stroke: #A80036; stroke-width: 1.0;"/><polygon fill="#A80036" points="472.48,145.63,462.6758,146.5667,468.1248,148.0861,466.6055,153.5351,472.48,145.63" style="stroke: #A80036; stroke-width: 1.0;"/><text fill="#000000" font-family="sans-serif" font-size="13" lengthAdjust="spacingAndGlyphs" textLength="38" x="394.71" y="198.0669">CCR-T</text><!--link null to *end--><path d="M472.46,132.34 C401.84,136.99 197.81,156.5 49.71,232 C43.11,235.36 36.76,240.58 31.78,245.3 " fill="none" id="null-*end" style="stroke: #A80036; stroke-width: 1.0;"/><polygon fill="#A80036" points="27.94,249.09,37.1536,245.6102,31.4969,245.576,31.5312,239.9192,27.94,249.09" style="stroke: #A80036; stroke-width: 1.0;"/><!--link authorize_origination_attempt to collect_information--><path d="M205.31,282.09 C221.93,296.9 244.55,315.53 266.71,329 C283.93,339.47 303.55,348.96 322.06,356.95 " fill="none" id="authorize_origination_attempt-collect_information" style="stroke: #A80036; stroke-width: 1.0;"/><polygon fill="#A80036" points="326.74,358.95,320.0434,351.7281,322.1443,356.9804,316.892,359.0813,326.74,358.95" style="stroke: #A80036; stroke-width: 1.0;"/><text fill="#000000" font-family="sans-serif" font-size="13" lengthAdjust="spacingAndGlyphs" textLength="65" x="267.71" y="325.0669">CCR-I RSU</text><!--link authorize_origination_attempt to collect_information--><path d="M279.35,282.04 C299.77,289.64 320.31,299.45 337.71,312 C353.19,323.17 366.28,340.04 375.69,354.53 " fill="none" id="authorize_origination_attempt-collect_information" style="stroke: #A80036; stroke-width: 1.0;"/><polygon fill="#A80036" points="378.49,358.95,377.0499,349.207,375.813,354.727,370.2931,353.4901,378.49,358.95" style="stroke: #A80036; stroke-width: 1.0;"/><text fill="#000000" font-family="sans-serif" font-size="13" lengthAdjust="spacingAndGlyphs" textLength="72" x="355.71" y="325.0669">CCR-U RSU</text><!--link authorize_origination_attempt to analyse_information--><path d="M117.94,282.02 C57.52,309.23 -20.53,356.66 15.71,409 C49.98,458.5 215.65,487.34 318.5,500.76 " fill="none" id="authorize_origination_attempt-analyse_information" style="stroke: #A80036; stroke-width: 1.0;"/><polygon fill="#A80036" points="323.65,501.43,315.2392,496.3058,318.6915,500.787,314.2103,504.2393,323.65,501.43" style="stroke: #A80036; stroke-width: 1.0;"/><text fill="#000000" font-family="sans-serif" font-size="13" lengthAdjust="spacingAndGlyphs" textLength="106" x="16.71" y="388.5669">CCR-I RSU called</text><!--link authorize_origination_attempt to analyse_information--><path d="M173.35,282.01 C166.39,313.88 159.32,370.6 184.71,409 C214.78,454.49 271.05,479.89 318.76,493.83 " fill="none" id="authorize_origination_attempt-analyse_information" style="stroke: #A80036; stroke-width: 1.0;"/><polygon fill="#A80036" points="323.64,495.23,316.0802,488.9173,318.8313,493.8602,313.8885,496.6113,323.64,495.23" style="stroke: #A80036; stroke-width: 1.0;"/><text fill="#000000" font-family="sans-serif" font-size="13" lengthAdjust="spacingAndGlyphs" textLength="113" x="185.71" y="388.5669">CCR-U RSU called</text><!--link authorize_origination_attempt to authorize_origination_attempt--><path d="M292.25,251.51 C312.8,252.2 327.21,254.03 327.21,257 C327.21,259.71 315.17,261.47 297.41,262.29 " fill="none" id="authorize_origination_attempt-authorize_origination_attempt" style="stroke: #A80036; stroke-width: 1.0;"/><polygon fill="#A80036" points="292.25,262.49,301.4031,266.126,297.246,262.2896,301.0824,258.1325,292.25,262.49" style="stroke: #A80036; stroke-width: 1.0;"/><text fill="#000000" font-family="sans-serif" font-size="13" lengthAdjust="spacingAndGlyphs" textLength="34" x="333.21" y="261.5669">CCR-I</text><!--link authorize_origination_attempt to authorize_origination_attempt--><path d="M292.52,245.41 C336.31,244.96 373.21,248.83 373.21,257 C373.21,264.85 339.14,268.73 297.62,268.62 " fill="none" id="authorize_origination_attempt-authorize_origination_attempt" style="stroke: #A80036; stroke-width: 1.0;"/><polygon fill="#A80036" points="292.52,268.59,301.4854,272.667,297.5198,268.6329,301.554,264.6673,292.52,268.59" style="stroke: #A80036; stroke-width: 1.0;"/><text fill="#000000" font-family="sans-serif" font-size="13" lengthAdjust="spacingAndGlyphs" textLength="41" x="379.21" y="261.5669">CCR-U</text><!--link collect_information to analyse_information--><path d="M393.63,409.1 C395.27,429.59 397.63,459.08 399.38,480.88 " fill="none" id="collect_information-analyse_information" style="stroke: #A80036; stroke-width: 1.0;"/><polygon fill="#A80036" points="399.78,485.97,403.0474,476.6789,399.3801,480.986,395.0731,477.3187,399.78,485.97" style="stroke: #A80036; stroke-width: 1.0;"/><text fill="#000000" font-family="sans-serif" font-size="13" lengthAdjust="spacingAndGlyphs" textLength="113" x="397.71" y="452.0669">CCR-U RSU called</text><!--link collect_information to collect_information--><path d="M466.43,372.48 C486.22,373.14 501.21,376.98 501.21,384 C501.21,390.36 488.9,394.12 471.86,395.25 " fill="none" id="collect_information-collect_information" style="stroke: #A80036; stroke-width: 1.0;"/><polygon fill="#A80036" points="466.43,395.52,475.614,399.0774,471.4241,395.2767,475.2247,391.0869,466.43,395.52" style="stroke: #A80036; stroke-width: 1.0;"/><text fill="#000000" font-family="sans-serif" font-size="13" lengthAdjust="spacingAndGlyphs" textLength="41" x="507.21" y="388.5669">CCR-U</text><!--link collect_information to null--><path d="M415.23,358.97 C422.91,350.1 430.95,339.62 436.71,329 C466.98,273.17 484.51,200.16 492.48,160.23 " fill="none" id="collect_information-null" style="stroke: #A80036; stroke-width: 1.0;"/><polygon fill="#A80036" points="493.49,155.06,487.8206,163.1135,492.5204,159.9651,495.6688,164.6648,493.49,155.06" style="stroke: #A80036; stroke-width: 1.0;"/><text fill="#000000" font-family="sans-serif" font-size="13" lengthAdjust="spacingAndGlyphs" textLength="38" x="474.71" y="261.5669">CCR-T</text><!--link analyse_information to active--><path d="M409.7,536.12 C420.95,567.6 443.7,623.36 475.71,663 C502.21,695.82 541.23,724.66 569.22,743.03 " fill="none" id="analyse_information-active" style="stroke: #A80036; stroke-width: 1.0;"/><polygon fill="#A80036" points="573.61,745.88,568.2549,737.6143,569.4214,743.1495,563.8861,744.3161,573.61,745.88" style="stroke: #A80036; stroke-width: 1.0;"/><text fill="#000000" font-family="sans-serif" font-size="13" lengthAdjust="spacingAndGlyphs" textLength="74" x="476.71" y="642.5669">CCR-U USU</text><!--link analyse_information to routing--><path d="M440.65,536.1 C476.35,558.19 528.93,590.72 564.65,612.83 " fill="none" id="analyse_information-routing" style="stroke: #A80036; stroke-width: 1.0;"/><polygon fill="#A80036" points="568.92,615.48,563.3759,607.3398,564.6696,612.8467,559.1627,614.1405,568.92,615.48" style="stroke: #A80036; stroke-width: 1.0;"/><text fill="#000000" font-family="sans-serif" font-size="13" lengthAdjust="spacingAndGlyphs" textLength="41" x="515.71" y="579.0669">CCR-U</text><!--link analyse_information to null--><path d="M474.37,485.86 C507.75,470.12 542.59,445.56 554.71,409 C584.05,320.48 538.84,210.88 513.28,159.76 " fill="none" id="analyse_information-null" style="stroke: #A80036; stroke-width: 1.0;"/><polygon fill="#A80036" points="511.02,155.3,511.5175,165.1363,513.2789,159.7606,518.6546,161.522,511.02,155.3" style="stroke: #A80036; stroke-width: 1.0;"/><text fill="#000000" font-family="sans-serif" font-size="13" lengthAdjust="spacingAndGlyphs" textLength="38" x="563.71" y="325.0669">CCR-T</text><!--link routing to active--><path d="M603.71,663.1 C603.71,683.59 603.71,713.08 603.71,734.88 " fill="none" id="routing-active" style="stroke: #A80036; stroke-width: 1.0;"/><polygon fill="#A80036" points="603.71,739.97,607.71,730.97,603.71,734.97,599.71,730.97,603.71,739.97" style="stroke: #A80036; stroke-width: 1.0;"/><text fill="#000000" font-family="sans-serif" font-size="13" lengthAdjust="spacingAndGlyphs" textLength="74" x="604.71" y="706.0669">CCR-U USU</text><!--link routing to routing--><path d="M638.39,626.82 C656.66,625.01 673.21,628.74 673.21,638 C673.21,646.4 659.61,650.24 643.47,649.54 " fill="none" id="routing-routing" style="stroke: #A80036; stroke-width: 1.0;"/><polygon fill="#A80036" points="638.39,649.18,647.0812,653.8128,643.3772,649.5373,647.6528,645.8333,638.39,649.18" style="stroke: #A80036; stroke-width: 1.0;"/><text fill="#000000" font-family="sans-serif" font-size="13" lengthAdjust="spacingAndGlyphs" textLength="41" x="679.21" y="642.5669">CCR-U</text><!--link routing to null--><path d="M629.1,612.75 C650.86,589.26 678.71,551.48 678.71,512 C678.71,256 678.71,256 678.71,256 C678.71,183.63 579.54,149.91 528.01,137.27 " fill="none" id="routing-null" style="stroke: #A80036; stroke-width: 1.0;"/><polygon fill="#A80036" points="522.87,136.05,530.698,142.0268,527.7339,137.2087,532.552,134.2446,522.87,136.05" style="stroke: #A80036; stroke-width: 1.0;"/><text fill="#000000" font-family="sans-serif" font-size="13" lengthAdjust="spacingAndGlyphs" textLength="38" x="679.71" y="388.5669">CCR-T</text><!--link active to null--><path d="M633.74,756.47 C682.06,742.35 771.71,706.98 771.71,639 C771.71,256 771.71,256 771.71,256 C771.71,150.01 599.89,133.5 528.37,131.22 " fill="none" id="active-null" style="stroke: #A80036; stroke-width: 1.0;"/><polygon fill="#A80036" points="522.99,131.07,531.8717,135.3261,527.9879,131.2132,532.1009,127.3294,522.99,131.07" style="stroke: #A80036; stroke-width: 1.0;"/><text fill="#000000" font-family="sans-serif" font-size="13" lengthAdjust="spacingAndGlyphs" textLength="38" x="772.71" y="452.0669">CCR-T</text><!--link active to active--><path d="M633.79,754.1 C651.78,751.68 668.71,755.31 668.71,765 C668.71,773.78 654.8,777.59 638.81,776.42 " fill="none" id="active-active" style="stroke: #A80036; stroke-width: 1.0;"/><polygon fill="#A80036" points="633.79,775.9,642.3321,780.8024,638.7636,776.413,643.1529,772.8446,633.79,775.9" style="stroke: #A80036; stroke-width: 1.0;"/><text fill="#000000" font-family="sans-serif" font-size="13" lengthAdjust="spacingAndGlyphs" textLength="41" x="674.71" y="769.5669">CCR-U</text><!--
@startuml

state null {
}
state authorize_origination_attempt {
}
state collect_information {
}
state analyse_information {
}
state routing {
}
state active {
}

[*] - -> null : CCR
null - -> authorize_origination_attempt : originating
null - -> [*]

authorize_origination_attempt - -> collect_information : CCR-I RSU
authorize_origination_attempt - -> collect_information : CCR-U RSU
authorize_origination_attempt - -> analyse_information : CCR-I RSU called
authorize_origination_attempt - -> analyse_information : CCR-U RSU called
authorize_origination_attempt - -> authorize_origination_attempt : CCR-I
authorize_origination_attempt - -> authorize_origination_attempt : CCR-U
authorize_origination_attempt - -> null : CCR-T

collect_information - -> analyse_information : CCR-U RSU called
collect_information - -> collect_information : CCR-U 
collect_information - -> null : CCR-T

analyse_information - -> active : CCR-U USU
analyse_information - -> routing : CCR-U
analyse_information - -> null : CCR-T

routing - -> active : CCR-U USU
routing - -> routing : CCR-U
routing - -> null : CCR-T

active - -> null : CCR-T
active - -> active : CCR-U

@enduml

PlantUML version 1.2018.13(Mon Nov 26 17:11:51 UTC 2018)
(GPL source distribution)
Java Runtime: OpenJDK Runtime Environment
JVM: OpenJDK 64-Bit Server VM
Java Version: 11.0.17+8-post-Ubuntu-1ubuntu220.04
Operating System: Linux
OS Version: 5.15.0-1025-gcp
Default Encoding: ANSI_X3.4-1968
Language: en
Country: US
--></g></svg>