<?xml version="1.0" encoding="UTF-8" standalone="no"?><svg xmlns="http://www.w3.org/2000/svg" xmlns:xlink="http://www.w3.org/1999/xlink" contentScriptType="application/ecmascript" contentStyleType="text/css" height="741px" preserveAspectRatio="none" style="width:1109px;height:741px;" version="1.1" viewBox="0 0 1109 741" width="1109px" zoomAndPan="magnify"><defs/><g><rect fill="#FFFFFF" height="40" rx="12.5" ry="12.5" style="stroke: #A80036; stroke-width: 1.5;" width="50" x="470" y="105"/><text fill="#000000" font-family="sans-serif" font-size="14" lengthAdjust="spacingAndGlyphs" textLength="24" x="483" y="129.8467">null</text><rect fill="#FFFFFF" height="40" rx="12.5" ry="12.5" style="stroke: #A80036; stroke-width: 1.5;" width="215" x="180.5" y="222"/><text fill="#000000" font-family="sans-serif" font-size="14" lengthAdjust="spacingAndGlyphs" textLength="205" x="185.5" y="246.8467">authorize_origination_attempt</text><rect fill="#FFFFFF" height="40" rx="12.5" ry="12.5" style="stroke: #A80036; stroke-width: 1.5;" width="183" x="568.5" y="222"/><text fill="#000000" font-family="sans-serif" font-size="14" lengthAdjust="spacingAndGlyphs" textLength="173" x="573.5" y="246.8467">terminating_call_handling</text><rect fill="#FFFFFF" height="40" rx="12.5" ry="12.5" style="stroke: #A80036; stroke-width: 1.5;" width="139" x="396.5" y="339"/><text fill="#000000" font-family="sans-serif" font-size="14" lengthAdjust="spacingAndGlyphs" textLength="129" x="401.5" y="363.8467">collect_information</text><rect fill="#FFFFFF" height="40" rx="12.5" ry="12.5" style="stroke: #A80036; stroke-width: 1.5;" width="146" x="141" y="456"/><text fill="#000000" font-family="sans-serif" font-size="14" lengthAdjust="spacingAndGlyphs" textLength="136" x="146" y="480.8467">analyse_information</text><rect fill="#FFFFFF" height="40" rx="12.5" ry="12.5" style="stroke: #A80036; stroke-width: 1.5;" width="77" x="361.5" y="573"/><text fill="#000000" font-family="sans-serif" font-size="14" lengthAdjust="spacingAndGlyphs" textLength="67" x="366.5" y="597.8467">o_alerting</text><rect fill="#FFFFFF" height="40" rx="12.5" ry="12.5" style="stroke: #A80036; stroke-width: 1.5;" width="73" x="821.5" y="339"/><text fill="#000000" font-family="sans-serif" font-size="14" lengthAdjust="spacingAndGlyphs" textLength="63" x="826.5" y="363.8467">t_alerting</text><rect fill="#FFFFFF" height="40" rx="12.5" ry="12.5" style="stroke: #A80036; stroke-width: 1.5;" width="50" x="624" y="690"/><text fill="#000000" font-family="sans-serif" font-size="14" lengthAdjust="spacingAndGlyphs" textLength="40" x="629" y="714.8467">active</text><ellipse cx="495" cy="18" fill="#000000" rx="10" ry="10" style="stroke: none; stroke-width: 1.0;"/><ellipse cx="1088" cy="242" fill="none" rx="10" ry="10" style="stroke: #000000; stroke-width: 1.0;"/><ellipse cx="1088.5" cy="242.5" fill="#000000" rx="6" ry="6" style="stroke: none; stroke-width: 1.0;"/><!--link *start to null--><path d="M495,28.32 C495,44.12 495,76.65 495,99.38 " fill="none" id="*start-null" style="stroke: #A80036; stroke-width: 1.0;"/><polygon fill="#A80036" points="495,104.64,499,95.64,495,99.64,491,95.64,495,104.64" style="stroke: #A80036; stroke-width: 1.0;"/><text fill="#000000" font-family="sans-serif" font-size="13" lengthAdjust="spacingAndGlyphs" textLength="26" x="496" y="71.0669">CCR</text><!--link null to authorize_origination_attempt--><path d="M469.71,125.97 C402.28,126.47 220.85,131.89 184,175 C168.04,193.67 187.34,208.87 213.46,219.96 " fill="none" id="null-authorize_origination_attempt" style="stroke: #A80036; stroke-width: 1.0;"/><polygon fill="#A80036" points="218.41,221.98,211.6032,214.8619,213.7845,220.0813,208.5652,222.2627,218.41,221.98" style="stroke: #A80036; stroke-width: 1.0;"/><text fill="#000000" font-family="sans-serif" font-size="13" lengthAdjust="spacingAndGlyphs" textLength="114" x="185" y="188.0669">CCR &amp; Originating</text><!--link authorize_origination_attempt to null--><path d="M298.66,221.93 C307.83,207.15 322.36,187.19 340,175 C378.34,148.49 431.73,135.79 464.79,130.12 " fill="none" id="authorize_origination_attempt-null" style="stroke: #A80036; stroke-width: 1.0;"/><polygon fill="#A80036" points="469.91,129.27,460.3714,126.8175,464.9792,130.0989,461.6977,134.7067,469.91,129.27" style="stroke: #A80036; stroke-width: 1.0;"/><text fill="#000000" font-family="sans-serif" font-size="13" lengthAdjust="spacingAndGlyphs" textLength="98" x="341" y="188.0669">Fail | Terminate</text><!--link null to terminating_call_handling--><path d="M498.11,145.17 C501.42,159.81 508.06,179.52 521,192 C533.44,203.99 548.98,213.07 565.13,219.93 " fill="none" id="null-terminating_call_handling" style="stroke: #A80036; stroke-width: 1.0;"/><polygon fill="#A80036" points="570.16,221.99,563.3344,214.89,565.5295,220.1035,560.316,222.2987,570.16,221.99" style="stroke: #A80036; stroke-width: 1.0;"/><text fill="#000000" font-family="sans-serif" font-size="13" lengthAdjust="spacingAndGlyphs" textLength="121" x="522" y="188.0669">CCR &amp; Terminating</text><!--link terminating_call_handling to null--><path d="M661.47,221.99 C661.54,207.45 659.22,187.78 648,175 C616.87,139.54 560.07,129.55 525.12,126.85 " fill="none" id="terminating_call_handling-null" style="stroke: #A80036; stroke-width: 1.0;"/><polygon fill="#A80036" points="520.12,126.5,528.8244,131.108,525.1082,126.843,529.3732,123.1269,520.12,126.5" style="stroke: #A80036; stroke-width: 1.0;"/><text fill="#000000" font-family="sans-serif" font-size="13" lengthAdjust="spacingAndGlyphs" textLength="98" x="658" y="188.0669">Fail | Terminate</text><!--link null to *end--><path d="M520.12,126.84 C622.62,130.47 1005.94,145.87 1051,175 C1069.44,186.92 1079.57,211.4 1084.38,226.96 " fill="none" id="null-*end" style="stroke: #A80036; stroke-width: 1.0;"/><polygon fill="#A80036" points="1085.82,231.87,1087.14,222.11,1084.42,227.07,1079.46,224.35,1085.82,231.87" style="stroke: #A80036; stroke-width: 1.0;"/><!--link authorize_origination_attempt to analyse_information--><path d="M273.75,262.11 C260.65,280.73 241.81,310.34 232,339 C219.13,376.6 215.39,422.97 214.35,450.7 " fill="none" id="authorize_origination_attempt-analyse_information" style="stroke: #A80036; stroke-width: 1.0;"/><polygon fill="#A80036" points="214.17,455.99,218.4769,447.1328,214.3418,450.993,210.4816,446.8579,214.17,455.99" style="stroke: #A80036; stroke-width: 1.0;"/><text fill="#000000" font-family="sans-serif" font-size="13" lengthAdjust="spacingAndGlyphs" textLength="145" x="233" y="363.5669">Success &amp; Destination</text><!--link authorize_origination_attempt to collect_information--><path d="M315.33,262.17 C334.63,275.56 361.18,293.7 385,309 C399.17,318.09 414.96,327.76 428.82,336.07 " fill="none" id="authorize_origination_attempt-collect_information" style="stroke: #A80036; stroke-width: 1.0;"/><polygon fill="#A80036" points="433.44,338.84,427.7608,330.7935,429.1462,336.2781,423.6617,337.6635,433.44,338.84" style="stroke: #A80036; stroke-width: 1.0;"/><text fill="#000000" font-family="sans-serif" font-size="13" lengthAdjust="spacingAndGlyphs" textLength="53" x="386" y="305.0669">Success</text><!--link terminating_call_handling to t_alerting--><path d="M684.44,262.2 C702.74,276.1 728.7,294.86 753,309 C773.2,320.75 796.68,331.93 816.31,340.63 " fill="none" id="terminating_call_handling-t_alerting" style="stroke: #A80036; stroke-width: 1.0;"/><polygon fill="#A80036" points="821.22,342.79,814.5969,335.5006,816.6445,340.7739,811.3712,342.8215,821.22,342.79" style="stroke: #A80036; stroke-width: 1.0;"/><text fill="#000000" font-family="sans-serif" font-size="13" lengthAdjust="spacingAndGlyphs" textLength="124" x="754" y="305.0669">Success &amp; Granted</text><!--link terminating_call_handling to active--><path d="M665.19,262.34 C677.3,310.06 705.47,437.26 692,543 C685.43,594.58 667.81,653.05 657.27,684.99 " fill="none" id="terminating_call_handling-active" style="stroke: #A80036; stroke-width: 1.0;"/><polygon fill="#A80036" points="655.65,689.89,662.2908,682.6168,657.2311,685.1466,654.7013,680.0869,655.65,689.89" style="stroke: #A80036; stroke-width: 1.0;"/><text fill="#000000" font-family="sans-serif" font-size="13" lengthAdjust="spacingAndGlyphs" textLength="105" x="697" y="480.5669">Success &amp; Used</text><!--link terminating_call_handling to terminating_call_handling--><path d="M751.54,231.42 C771.77,232.41 786.5,235.94 786.5,242 C786.5,247.54 774.19,250.96 756.63,252.27 " fill="none" id="terminating_call_handling-terminating_call_handling" style="stroke: #A80036; stroke-width: 1.0;"/><polygon fill="#A80036" points="751.54,252.58,760.7738,256.0059,756.5301,252.2654,760.2705,248.0217,751.54,252.58" style="stroke: #A80036; stroke-width: 1.0;"/><text fill="#000000" font-family="sans-serif" font-size="13" lengthAdjust="spacingAndGlyphs" textLength="53" x="792.5" y="246.5669">Success</text><!--link collect_information to o_alerting--><path d="M460.49,379.38 C448.47,421.62 419.95,521.88 406.82,568.02 " fill="none" id="collect_information-o_alerting" style="stroke: #A80036; stroke-width: 1.0;"/><polygon fill="#A80036" points="405.45,572.84,411.7686,565.2852,406.8236,568.0324,404.0764,563.0874,405.45,572.84" style="stroke: #A80036; stroke-width: 1.0;"/><text fill="#000000" font-family="sans-serif" font-size="13" lengthAdjust="spacingAndGlyphs" textLength="124" x="440" y="480.5669">Success &amp; Granted</text><!--link collect_information to analyse_information--><path d="M396.3,375.11 C344.17,386.78 280.05,402.07 269,409 C252.05,419.63 237.76,437.23 228,451.59 " fill="none" id="collect_information-analyse_information" style="stroke: #A80036; stroke-width: 1.0;"/><polygon fill="#A80036" points="225.12,455.93,233.4279,450.6405,227.8836,451.7632,226.761,446.2188,225.12,455.93" style="stroke: #A80036; stroke-width: 1.0;"/><text fill="#000000" font-family="sans-serif" font-size="13" lengthAdjust="spacingAndGlyphs" textLength="145" x="270" y="422.0669">Success &amp; Destination</text><!--link collect_information to active--><path d="M496.53,379.23 C520.76,396.27 553.24,423.45 570,456 C587.84,490.65 571.08,505.31 581,543 C594.8,595.46 621.3,653.38 636.83,685.05 " fill="none" id="collect_information-active" style="stroke: #A80036; stroke-width: 1.0;"/><polygon fill="#A80036" points="639.23,689.9,638.8331,680.0591,637.0168,685.4165,631.6595,683.6003,639.23,689.9" style="stroke: #A80036; stroke-width: 1.0;"/><text fill="#000000" font-family="sans-serif" font-size="13" lengthAdjust="spacingAndGlyphs" textLength="105" x="582" y="539.0669">Success &amp; Used</text><!--link collect_information to collect_information--><path d="M535.84,348.18 C555.45,348.65 570.5,352.26 570.5,359 C570.5,365.11 558.14,368.64 541.22,369.61 " fill="none" id="collect_information-collect_information" style="stroke: #A80036; stroke-width: 1.0;"/><polygon fill="#A80036" points="535.84,369.82,544.9927,373.4571,540.836,369.6202,544.6729,365.4635,535.84,369.82" style="stroke: #A80036; stroke-width: 1.0;"/><text fill="#000000" font-family="sans-serif" font-size="13" lengthAdjust="spacingAndGlyphs" textLength="7" x="576.5" y="363.5669">*</text><!--link collect_information to null--><path d="M468.4,338.84 C473.64,296.88 486.13,196.95 491.94,150.51 " fill="none" id="collect_information-null" style="stroke: #A80036; stroke-width: 1.0;"/><polygon fill="#A80036" points="492.58,145.38,487.5036,153.8198,491.9651,150.342,495.4428,154.8036,492.58,145.38" style="stroke: #A80036; stroke-width: 1.0;"/><text fill="#000000" font-family="sans-serif" font-size="13" lengthAdjust="spacingAndGlyphs" textLength="65" x="484" y="246.5669">Terminate</text><!--link analyse_information to active--><path d="M211.28,496.02 C208.27,525.16 207.24,580.84 237,613 C289.34,669.56 532.73,697.9 618.77,706.28 " fill="none" id="analyse_information-active" style="stroke: #A80036; stroke-width: 1.0;"/><polygon fill="#A80036" points="623.96,706.78,615.3778,701.9482,618.9823,706.308,614.6226,709.9125,623.96,706.78" style="stroke: #A80036; stroke-width: 1.0;"/><text fill="#000000" font-family="sans-serif" font-size="13" lengthAdjust="spacingAndGlyphs" textLength="105" x="238" y="597.5669">Success &amp; Used</text><!--link analyse_information to o_alerting--><path d="M223.49,496.24 C231.61,510.92 244.59,530.65 261,543 C276.34,554.55 321.49,569.41 356.21,579.72 " fill="none" id="analyse_information-o_alerting" style="stroke: #A80036; stroke-width: 1.0;"/><polygon fill="#A80036" points="361.25,581.2,353.7475,574.8194,356.4539,579.7869,351.4864,582.4932,361.25,581.2" style="stroke: #A80036; stroke-width: 1.0;"/><text fill="#000000" font-family="sans-serif" font-size="13" lengthAdjust="spacingAndGlyphs" textLength="124" x="262" y="539.0669">Success &amp; Granted</text><!--link analyse_information to analyse_information--><path d="M287.19,465.21 C306.96,465.77 322,469.37 322,476 C322,482.01 309.65,485.52 292.62,486.55 " fill="none" id="analyse_information-analyse_information" style="stroke: #A80036; stroke-width: 1.0;"/><polygon fill="#A80036" points="287.19,486.79,296.3535,490.3998,292.1854,486.5753,296.0099,482.4072,287.19,486.79" style="stroke: #A80036; stroke-width: 1.0;"/><text fill="#000000" font-family="sans-serif" font-size="13" lengthAdjust="spacingAndGlyphs" textLength="7" x="328" y="480.5669">*</text><!--link analyse_information to null--><path d="M202.02,455.79 C170.47,402.52 92.71,251.85 171,175 C212.23,134.52 392.01,127.43 464.52,126.23 " fill="none" id="analyse_information-null" style="stroke: #A80036; stroke-width: 1.0;"/><polygon fill="#A80036" points="469.55,126.15,460.4938,122.279,464.5505,126.2214,460.6081,130.2782,469.55,126.15" style="stroke: #A80036; stroke-width: 1.0;"/><text fill="#000000" font-family="sans-serif" font-size="13" lengthAdjust="spacingAndGlyphs" textLength="65" x="143" y="305.0669">Terminate</text><!--link o_alerting to active--><path d="M409.99,613.08 C418.81,628.07 433.05,648.3 451,660 C503.34,694.13 577.6,704.49 618.69,707.63 " fill="none" id="o_alerting-active" style="stroke: #A80036; stroke-width: 1.0;"/><polygon fill="#A80036" points="623.78,708,615.0888,703.3672,618.7928,707.6427,614.5172,711.3467,623.78,708" style="stroke: #A80036; stroke-width: 1.0;"/><text fill="#000000" font-family="sans-serif" font-size="13" lengthAdjust="spacingAndGlyphs" textLength="105" x="452" y="656.0669">Success + Used</text><!--link o_alerting to o_alerting--><path d="M438.57,582.39 C457.12,581.08 473.5,584.62 473.5,593 C473.5,600.6 460.05,604.21 443.72,603.85 " fill="none" id="o_alerting-o_alerting" style="stroke: #A80036; stroke-width: 1.0;"/><polygon fill="#A80036" points="438.57,603.61,447.3653,608.0419,443.5641,603.8526,447.7535,600.0513,438.57,603.61" style="stroke: #A80036; stroke-width: 1.0;"/><text fill="#000000" font-family="sans-serif" font-size="13" lengthAdjust="spacingAndGlyphs" textLength="7" x="479.5" y="597.5669">*</text><!--link o_alerting to null--><path d="M361.38,576.24 C358.22,575.09 355.07,574 352,573 C200.26,523.56 6,636.59 6,477 C6,241 6,241 6,241 C6,146.34 357.63,129.53 464.54,126.6 " fill="none" id="o_alerting-null" style="stroke: #A80036; stroke-width: 1.0;"/><polygon fill="#A80036" points="469.74,126.47,460.6294,122.7287,464.742,126.6128,460.8579,130.7254,469.74,126.47" style="stroke: #A80036; stroke-width: 1.0;"/><text fill="#000000" font-family="sans-serif" font-size="13" lengthAdjust="spacingAndGlyphs" textLength="65" x="7" y="363.5669">Terminate</text><!--link t_alerting to active--><path d="M855.4,379.06 C847.45,430.64 818.98,574.86 740,660 C723.35,677.95 698.6,690.68 679.11,698.66 " fill="none" id="t_alerting-active" style="stroke: #A80036; stroke-width: 1.0;"/><polygon fill="#A80036" points="674.28,700.59,684.1204,700.9979,678.9292,698.7503,681.1768,693.5591,674.28,700.59" style="stroke: #A80036; stroke-width: 1.0;"/><text fill="#000000" font-family="sans-serif" font-size="13" lengthAdjust="spacingAndGlyphs" textLength="105" x="819" y="539.0669">Success &amp; Used</text><!--link t_alerting to t_alerting--><path d="M894.79,348.45 C913.13,346.99 929.5,350.5 929.5,359 C929.5,366.7 916.06,370.31 899.88,369.83 " fill="none" id="t_alerting-t_alerting" style="stroke: #A80036; stroke-width: 1.0;"/><polygon fill="#A80036" points="894.79,369.55,903.5464,374.0584,899.7818,369.8361,904.0041,366.0715,894.79,369.55" style="stroke: #A80036; stroke-width: 1.0;"/><text fill="#000000" font-family="sans-serif" font-size="13" lengthAdjust="spacingAndGlyphs" textLength="7" x="935.5" y="363.5669">*</text><!--link t_alerting to null--><path d="M870.46,338.8 C875.4,330.08 880.5,319.4 883,309 C892.59,269.09 879.87,252.14 852,222 C822.17,189.73 806.47,189.55 765,175 C681.12,145.57 576.08,133.01 525.28,128.36 " fill="none" id="t_alerting-null" style="stroke: #A80036; stroke-width: 1.0;"/><polygon fill="#A80036" points="520.24,127.91,528.8508,132.6906,525.2204,128.3524,529.5586,124.722,520.24,127.91" style="stroke: #A80036; stroke-width: 1.0;"/><text fill="#000000" font-family="sans-serif" font-size="13" lengthAdjust="spacingAndGlyphs" textLength="65" x="883" y="246.5669">Terminate</text><!--link active to active--><path d="M674.28,700.19 C691.77,697.21 709,700.48 709,710 C709,718.55 695.09,722.06 679.58,720.53 " fill="none" id="active-active" style="stroke: #A80036; stroke-width: 1.0;"/><polygon fill="#A80036" points="674.28,719.81,682.6617,724.9818,679.2348,720.4811,683.7354,717.0542,674.28,719.81" style="stroke: #A80036; stroke-width: 1.0;"/><text fill="#000000" font-family="sans-serif" font-size="13" lengthAdjust="spacingAndGlyphs" textLength="7" x="715" y="714.5669">*</text><!--link active to null--><path d="M674.25,706.8 C758.56,698.76 1025,667.55 1025,594 C1025,241 1025,241 1025,241 C1025,138.01 637.92,127.06 525.36,126.05 " fill="none" id="active-null" style="stroke: #A80036; stroke-width: 1.0;"/><polygon fill="#A80036" points="520.21,126.01,529.1754,130.087,525.2098,126.0529,529.244,122.0873,520.21,126.01" style="stroke: #A80036; stroke-width: 1.0;"/><text fill="#000000" font-family="sans-serif" font-size="13" lengthAdjust="spacingAndGlyphs" textLength="65" x="1026" y="422.0669">Terminate</text><!--
@startuml

hide empty description
skinparam shadowing false
state null #white ##f57f17
state authorize_origination_attempt #white ##f57f17
state terminating_call_handling #white ##f57f17
state collect_information #white ##f57f17
state analyse_information #white ##f57f17
state o_alerting #white ##f57f17
state t_alerting #white ##f57f17
state active #white ##f57f17

[*] - -> null : CCR
null - -> authorize_origination_attempt : CCR & Originating
null - -> terminating_call_handling : CCR & Terminating
null - -> [*]

authorize_origination_attempt - -> analyse_information : Success & Destination
authorize_origination_attempt - -> collect_information : Success
authorize_origination_attempt - -> null : Fail | Terminate

terminating_call_handling - -> t_alerting : Success & Granted
terminating_call_handling - -> active : Success & Used
terminating_call_handling - -> terminating_call_handling : Success
terminating_call_handling - -> null : Fail | Terminate

collect_information - -> o_alerting : Success & Granted
collect_information - -> analyse_information : Success & Destination
collect_information - -> active : Success & Used
collect_information - -> collect_information : *
collect_information - -> null : Terminate

analyse_information - -> active : Success & Used
analyse_information - -> o_alerting: Success & Granted
analyse_information - -> analyse_information : *
analyse_information - -> null : Terminate

o_alerting - -> active : Success + Used
o_alerting - -> o_alerting : *
o_alerting - -> null : Terminate

t_alerting - -> active : Success & Used
t_alerting - -> t_alerting : *
t_alerting - -> null : Terminate

active - -> active : *
active - -> null : Terminate

@enduml

PlantUML version 1.2018.13(Mon Nov 26 17:11:51 UTC 2018)
(GPL source distribution)
Java Runtime: OpenJDK Runtime Environment
JVM: OpenJDK 64-Bit Server VM
Java Version: 11.0.17+8-post-Ubuntu-1ubuntu220.04
Operating System: Linux
OS Version: 5.15.0-1025-gcp
Default Encoding: ANSI_X3.4-1968
Language: en
Country: US
--></g></svg>