<?xml version="1.0" encoding="UTF-8" standalone="no"?><svg xmlns="http://www.w3.org/2000/svg" xmlns:xlink="http://www.w3.org/1999/xlink" contentScriptType="application/ecmascript" contentStyleType="text/css" height="624px" preserveAspectRatio="none" style="width:552px;height:624px;" version="1.1" viewBox="0 0 552 624" width="552px" zoomAndPan="magnify"><defs/><g><rect fill="#FFFFFF" height="40" rx="12.5" ry="12.5" style="stroke: #A80036; stroke-width: 1.5;" width="50" x="283.38" y="105"/><text fill="#000000" font-family="sans-serif" font-size="14" lengthAdjust="spacingAndGlyphs" textLength="24" x="296.38" y="129.8467">null</text><rect fill="#FFFFFF" height="40" rx="12.5" ry="12.5" style="stroke: #A80036; stroke-width: 1.5;" width="215" x="42.88" y="222"/><text fill="#000000" font-family="sans-serif" font-size="14" lengthAdjust="spacingAndGlyphs" textLength="205" x="47.88" y="246.8467">authorize_origination_attempt</text><rect fill="#FFFFFF" height="40" rx="12.5" ry="12.5" style="stroke: #A80036; stroke-width: 1.5;" width="139" x="221.88" y="339"/><text fill="#000000" font-family="sans-serif" font-size="14" lengthAdjust="spacingAndGlyphs" textLength="129" x="226.88" y="363.8467">collect_information</text><rect fill="#FFFFFF" height="40" rx="12.5" ry="12.5" style="stroke: #A80036; stroke-width: 1.5;" width="146" x="13.38" y="456"/><text fill="#000000" font-family="sans-serif" font-size="14" lengthAdjust="spacingAndGlyphs" textLength="136" x="18.38" y="480.8467">analyse_information</text><rect fill="#FFFFFF" height="40" rx="12.5" ry="12.5" style="stroke: #A80036; stroke-width: 1.5;" width="50" x="266.38" y="573"/><text fill="#000000" font-family="sans-serif" font-size="14" lengthAdjust="spacingAndGlyphs" textLength="40" x="271.38" y="597.8467">active</text><ellipse cx="308.38" cy="18" fill="#000000" rx="10" ry="10" style="stroke: none; stroke-width: 1.0;"/><ellipse cx="531.38" cy="242" fill="none" rx="10" ry="10" style="stroke: #000000; stroke-width: 1.0;"/><ellipse cx="531.88" cy="242.5" fill="#000000" rx="6" ry="6" style="stroke: none; stroke-width: 1.0;"/><!--link *start to null--><path d="M308.38,28.32 C308.38,44.12 308.38,76.65 308.38,99.38 " fill="none" id="*start-null" style="stroke: #A80036; stroke-width: 1.0;"/><polygon fill="#A80036" points="308.38,104.64,312.38,95.64,308.38,99.64,304.38,95.64,308.38,104.64" style="stroke: #A80036; stroke-width: 1.0;"/><text fill="#000000" font-family="sans-serif" font-size="13" lengthAdjust="spacingAndGlyphs" textLength="26" x="309.38" y="71.0669">CCR</text><!--link null to authorize_origination_attempt--><path d="M292.68,145.25 C280.51,159.36 262.68,178.36 244.38,192 C230.48,202.37 214.07,211.74 198.89,219.45 " fill="none" id="null-authorize_origination_attempt" style="stroke: #A80036; stroke-width: 1.0;"/><polygon fill="#A80036" points="194.22,221.79,204.0593,221.3554,198.695,219.5597,200.4907,214.1954,194.22,221.79" style="stroke: #A80036; stroke-width: 1.0;"/><text fill="#000000" font-family="sans-serif" font-size="13" lengthAdjust="spacingAndGlyphs" textLength="26" x="265.38" y="188.0669">CCR</text><!--link authorize_origination_attempt to null--><path d="M138.85,221.89 C131.92,207.66 126.22,188.46 136.38,175 C153.45,152.39 233.57,137.12 278.19,130.21 " fill="none" id="authorize_origination_attempt-null" style="stroke: #A80036; stroke-width: 1.0;"/><polygon fill="#A80036" points="283.18,129.45,273.6855,126.832,278.2355,130.1931,274.8744,134.7432,283.18,129.45" style="stroke: #A80036; stroke-width: 1.0;"/><text fill="#000000" font-family="sans-serif" font-size="13" lengthAdjust="spacingAndGlyphs" textLength="98" x="137.38" y="188.0669">Fail | Terminate</text><!--link null to *end--><path d="M333.66,126.57 C372.18,128.68 446.19,137.7 494.38,175 C511.59,188.32 522.02,212.04 527.24,227.12 " fill="none" id="null-*end" style="stroke: #A80036; stroke-width: 1.0;"/><polygon fill="#A80036" points="528.93,232.25,529.9052,222.4495,527.3617,227.5023,522.3089,224.9588,528.93,232.25" style="stroke: #A80036; stroke-width: 1.0;"/><!--link authorize_origination_attempt to analyse_information--><path d="M130.03,262.08 C112.52,280.01 88.53,308.56 78.38,339 C65.85,376.6 73.15,423.25 79.69,450.99 " fill="none" id="authorize_origination_attempt-analyse_information" style="stroke: #A80036; stroke-width: 1.0;"/><polygon fill="#A80036" points="80.9,455.94,82.6515,446.2481,79.7142,451.0826,74.8797,448.1454,80.9,455.94" style="stroke: #A80036; stroke-width: 1.0;"/><text fill="#000000" font-family="sans-serif" font-size="13" lengthAdjust="spacingAndGlyphs" textLength="124" x="79.38" y="363.5669">Success &amp; Granted</text><!--link authorize_origination_attempt to collect_information--><path d="M173.98,262.25 C198.69,282.4 237.46,314.02 263.62,335.36 " fill="none" id="authorize_origination_attempt-collect_information" style="stroke: #A80036; stroke-width: 1.0;"/><polygon fill="#A80036" points="267.71,338.69,263.2632,329.9022,263.8351,335.53,258.2073,336.102,267.71,338.69" style="stroke: #A80036; stroke-width: 1.0;"/><text fill="#000000" font-family="sans-serif" font-size="13" lengthAdjust="spacingAndGlyphs" textLength="53" x="230.38" y="305.0669">Success</text><!--link collect_information to active--><path d="M291.38,379.38 C291.38,421.54 291.38,521.48 291.38,567.73 " fill="none" id="collect_information-active" style="stroke: #A80036; stroke-width: 1.0;"/><polygon fill="#A80036" points="291.38,572.84,295.38,563.84,291.38,567.84,287.38,563.84,291.38,572.84" style="stroke: #A80036; stroke-width: 1.0;"/><text fill="#000000" font-family="sans-serif" font-size="13" lengthAdjust="spacingAndGlyphs" textLength="105" x="292.38" y="480.5669">Success &amp; Used</text><!--link collect_information to analyse_information--><path d="M257.07,379.25 C220.6,399.71 163.04,432 125.01,453.33 " fill="none" id="collect_information-analyse_information" style="stroke: #A80036; stroke-width: 1.0;"/><polygon fill="#A80036" points="120.47,455.88,130.2765,454.9677,124.8313,453.4348,126.3642,447.9896,120.47,455.88" style="stroke: #A80036; stroke-width: 1.0;"/><text fill="#000000" font-family="sans-serif" font-size="13" lengthAdjust="spacingAndGlyphs" textLength="53" x="202.38" y="422.0669">Success</text><!--link collect_information to collect_information--><path d="M361.22,348.18 C380.83,348.65 395.88,352.26 395.88,359 C395.88,365.11 383.52,368.64 366.61,369.61 " fill="none" id="collect_information-collect_information" style="stroke: #A80036; stroke-width: 1.0;"/><polygon fill="#A80036" points="361.22,369.82,370.3727,373.4571,366.216,369.6202,370.0529,365.4635,361.22,369.82" style="stroke: #A80036; stroke-width: 1.0;"/><text fill="#000000" font-family="sans-serif" font-size="13" lengthAdjust="spacingAndGlyphs" textLength="7" x="401.88" y="363.5669">*</text><!--link collect_information to null--><path d="M292.79,338.84 C295.86,296.88 303.19,196.95 306.59,150.51 " fill="none" id="collect_information-null" style="stroke: #A80036; stroke-width: 1.0;"/><polygon fill="#A80036" points="306.96,145.38,302.3024,154.058,306.5885,150.3662,310.2803,154.6523,306.96,145.38" style="stroke: #A80036; stroke-width: 1.0;"/><text fill="#000000" font-family="sans-serif" font-size="13" lengthAdjust="spacingAndGlyphs" textLength="65" x="302.38" y="246.5669">Terminate</text><!--link analyse_information to active--><path d="M103.41,496.25 C117.08,510.73 137.39,530.2 158.38,543 C191.12,562.96 233.27,576.77 261.25,584.53 " fill="none" id="analyse_information-active" style="stroke: #A80036; stroke-width: 1.0;"/><polygon fill="#A80036" points="266.31,585.91,258.6936,579.6657,261.4892,584.5836,256.5713,587.3791,266.31,585.91" style="stroke: #A80036; stroke-width: 1.0;"/><text fill="#000000" font-family="sans-serif" font-size="13" lengthAdjust="spacingAndGlyphs" textLength="105" x="159.38" y="539.0669">Success &amp; Used</text><!--link analyse_information to analyse_information--><path d="M159.58,465.21 C179.34,465.77 194.38,469.37 194.38,476 C194.38,482.01 182.03,485.52 165,486.55 " fill="none" id="analyse_information-analyse_information" style="stroke: #A80036; stroke-width: 1.0;"/><polygon fill="#A80036" points="159.58,486.79,168.7537,490.3736,164.5748,486.561,168.3874,482.382,159.58,486.79" style="stroke: #A80036; stroke-width: 1.0;"/><text fill="#000000" font-family="sans-serif" font-size="13" lengthAdjust="spacingAndGlyphs" textLength="7" x="200.38" y="480.5669">*</text><!--link analyse_information to null--><path d="M72.39,455.95 C41.25,411.05 -27.02,296.72 25.38,222 C83.51,139.12 217.42,126.81 277.84,125.64 " fill="none" id="analyse_information-null" style="stroke: #A80036; stroke-width: 1.0;"/><polygon fill="#A80036" points="283.1,125.57,274.0438,121.699,278.1005,125.6414,274.1581,129.6982,283.1,125.57" style="stroke: #A80036; stroke-width: 1.0;"/><text fill="#000000" font-family="sans-serif" font-size="13" lengthAdjust="spacingAndGlyphs" textLength="65" x="9.38" y="305.0669">Terminate</text><!--link active to active--><path d="M316.66,583.19 C334.16,580.21 351.38,583.48 351.38,593 C351.38,601.55 337.48,605.06 321.97,603.53 " fill="none" id="active-active" style="stroke: #A80036; stroke-width: 1.0;"/><polygon fill="#A80036" points="316.66,602.81,325.0417,607.9818,321.6148,603.4811,326.1154,600.0542,316.66,602.81" style="stroke: #A80036; stroke-width: 1.0;"/><text fill="#000000" font-family="sans-serif" font-size="13" lengthAdjust="spacingAndGlyphs" textLength="7" x="357.38" y="597.5669">*</text><!--link active to null--><path d="M316.74,587.7 C365.69,577.78 468.38,548.46 468.38,477 C468.38,241 468.38,241 468.38,241 C468.38,177.79 385.04,145.92 338.65,133.08 " fill="none" id="active-null" style="stroke: #A80036; stroke-width: 1.0;"/><polygon fill="#A80036" points="333.74,131.75,341.3906,137.9522,338.5681,133.0499,343.4704,130.2273,333.74,131.75" style="stroke: #A80036; stroke-width: 1.0;"/><text fill="#000000" font-family="sans-serif" font-size="13" lengthAdjust="spacingAndGlyphs" textLength="65" x="469.38" y="363.5669">Terminate</text><!--
@startuml

hide empty description
skinparam shadowing false
state null #white ##f57f17
state authorize_origination_attempt #white ##f57f17
state collect_information #white##f57f17
state analyse_information #white##f57f17
state active #white ##f57f17

[*] - -> null : CCR
null - -> authorize_origination_attempt : CCR
null - -> [*]

authorize_origination_attempt - -> analyse_information : Success & Granted
authorize_origination_attempt - -> collect_information : Success
authorize_origination_attempt - -> null : Fail | Terminate

collect_information - -> active : Success & Used
collect_information - -> analyse_information : Success
collect_information - -> collect_information : *
collect_information - -> null : Terminate

analyse_information - -> active : Success & Used
analyse_information - -> analyse_information : *
analyse_information - -> null : Terminate

active - -> active : *
active - -> null : Terminate

@enduml

PlantUML version 1.2018.13(Mon Nov 26 17:11:51 UTC 2018)
(GPL source distribution)
Java Runtime: OpenJDK Runtime Environment
JVM: OpenJDK 64-Bit Server VM
Java Version: 11.0.17+8-post-Ubuntu-1ubuntu220.04
Operating System: Linux
OS Version: 5.15.0-1025-gcp
Default Encoding: ANSI_X3.4-1968
Language: en
Country: US
--></g></svg>