<svg xmlns="http://www.w3.org/2000/svg" xmlns:xlink="http://www.w3.org/1999/xlink" contentStyleType="text/css" data-diagram-type="SEQUENCE" height="565px" preserveAspectRatio="none" style="width:990px;height:565px;background:#FFFFFF;" version="1.1" viewBox="0 0 990 565" width="990px" zoomAndPan="magnify"><defs/><g><rect fill="#DDDDDD" height="546.791" style="stroke:#181818;stroke-width:0.5;" width="556.354" x="1" y="6"/><text fill="#000000" font-family="sans-serif" font-size="13" font-weight="bold" lengthAdjust="spacing" textLength="24.4956" x="266.9292" y="18.5684">CSE</text><g><title>config</title><rect fill="#000000" fill-opacity="0.00000" height="273.3281" width="8" x="25.1914" y="73.7988"/><line style="stroke:#F57F17;stroke-width:0.5;stroke-dasharray:5,5;" x1="29" x2="29" y1="73.7988" y2="347.127"/></g><line style="stroke:#F57F17;stroke-width:0.5;stroke-dasharray:1,4;" x1="29" x2="29" y1="347.127" y2="375.127"/><g><title>config</title><rect fill="#000000" fill-opacity="0.00000" height="44.2656" width="8" x="25.1914" y="375.127"/><line style="stroke:#F57F17;stroke-width:0.5;stroke-dasharray:5,5;" x1="29" x2="29" y1="375.127" y2="419.3926"/></g><line style="stroke:#F57F17;stroke-width:0.5;stroke-dasharray:1,4;" x1="29" x2="29" y1="419.3926" y2="447.3926"/><g><title>config</title><rect fill="#000000" fill-opacity="0.00000" height="73.3984" width="8" x="25.1914" y="447.3926"/><line style="stroke:#F57F17;stroke-width:0.5;stroke-dasharray:5,5;" x1="29" x2="29" y1="447.3926" y2="520.791"/></g><line style="stroke:#F57F17;stroke-width:0.5;stroke-dasharray:1,4;" x1="29" x2="29" y1="520.791" y2="548.791"/><g><title>config</title><rect fill="#000000" fill-opacity="0.00000" height="10" width="8" x="25.1914" y="548.791"/><line style="stroke:#F57F17;stroke-width:0.5;stroke-dasharray:5,5;" x1="29" x2="29" y1="548.791" y2="558.791"/></g><g><title>OCF</title><rect fill="#000000" fill-opacity="0.00000" height="273.3281" width="8" x="377.9111" y="73.7988"/><line style="stroke:#F57F17;stroke-width:0.5;stroke-dasharray:5,5;" x1="381.877" x2="381.877" y1="73.7988" y2="347.127"/></g><line style="stroke:#F57F17;stroke-width:0.5;stroke-dasharray:1,4;" x1="381.877" x2="381.877" y1="347.127" y2="375.127"/><g><title>OCF</title><rect fill="#000000" fill-opacity="0.00000" height="44.2656" width="8" x="377.9111" y="375.127"/><line style="stroke:#F57F17;stroke-width:0.5;stroke-dasharray:5,5;" x1="381.877" x2="381.877" y1="375.127" y2="419.3926"/></g><line style="stroke:#F57F17;stroke-width:0.5;stroke-dasharray:1,4;" x1="381.877" x2="381.877" y1="419.3926" y2="447.3926"/><g><title>OCF</title><rect fill="#000000" fill-opacity="0.00000" height="73.3984" width="8" x="377.9111" y="447.3926"/><line style="stroke:#F57F17;stroke-width:0.5;stroke-dasharray:5,5;" x1="381.877" x2="381.877" y1="447.3926" y2="520.791"/></g><line style="stroke:#F57F17;stroke-width:0.5;stroke-dasharray:1,4;" x1="381.877" x2="381.877" y1="520.791" y2="548.791"/><g><title>OCF</title><rect fill="#000000" fill-opacity="0.00000" height="10" width="8" x="377.9111" y="548.791"/><line style="stroke:#F57F17;stroke-width:0.5;stroke-dasharray:5,5;" x1="381.877" x2="381.877" y1="548.791" y2="558.791"/></g><g><title>resolver</title><rect fill="#000000" fill-opacity="0.00000" height="273.3281" width="8" x="519.311" y="73.7988"/><line style="stroke:#F57F17;stroke-width:0.5;stroke-dasharray:5,5;" x1="523.2681" x2="523.2681" y1="73.7988" y2="347.127"/></g><line style="stroke:#F57F17;stroke-width:0.5;stroke-dasharray:1,4;" x1="523.2681" x2="523.2681" y1="347.127" y2="375.127"/><g><title>resolver</title><rect fill="#000000" fill-opacity="0.00000" height="44.2656" width="8" x="519.311" y="375.127"/><line style="stroke:#F57F17;stroke-width:0.5;stroke-dasharray:5,5;" x1="523.2681" x2="523.2681" y1="375.127" y2="419.3926"/></g><line style="stroke:#F57F17;stroke-width:0.5;stroke-dasharray:1,4;" x1="523.2681" x2="523.2681" y1="419.3926" y2="447.3926"/><g><title>resolver</title><rect fill="#000000" fill-opacity="0.00000" height="73.3984" width="8" x="519.311" y="447.3926"/><line style="stroke:#F57F17;stroke-width:0.5;stroke-dasharray:5,5;" x1="523.2681" x2="523.2681" y1="447.3926" y2="520.791"/></g><line style="stroke:#F57F17;stroke-width:0.5;stroke-dasharray:1,4;" x1="523.2681" x2="523.2681" y1="520.791" y2="548.791"/><g><title>resolver</title><rect fill="#000000" fill-opacity="0.00000" height="10" width="8" x="519.311" y="548.791"/><line style="stroke:#F57F17;stroke-width:0.5;stroke-dasharray:5,5;" x1="523.2681" x2="523.2681" y1="548.791" y2="558.791"/></g><g><title>RF1</title><rect fill="#000000" fill-opacity="0.00000" height="273.3281" width="8" x="707.1509" y="73.7988"/><line style="stroke:#F57F17;stroke-width:0.5;stroke-dasharray:5,5;" x1="711.0962" x2="711.0962" y1="73.7988" y2="347.127"/></g><line style="stroke:#F57F17;stroke-width:0.5;stroke-dasharray:1,4;" x1="711.0962" x2="711.0962" y1="347.127" y2="375.127"/><g><title>RF1</title><rect fill="#000000" fill-opacity="0.00000" height="44.2656" width="8" x="707.1509" y="375.127"/><line style="stroke:#F57F17;stroke-width:0.5;stroke-dasharray:5,5;" x1="711.0962" x2="711.0962" y1="375.127" y2="419.3926"/></g><line style="stroke:#F57F17;stroke-width:0.5;stroke-dasharray:1,4;" x1="711.0962" x2="711.0962" y1="419.3926" y2="447.3926"/><g><title>RF1</title><rect fill="#000000" fill-opacity="0.00000" height="73.3984" width="8" x="707.1509" y="447.3926"/><line style="stroke:#F57F17;stroke-width:0.5;stroke-dasharray:5,5;" x1="711.0962" x2="711.0962" y1="447.3926" y2="520.791"/></g><line style="stroke:#F57F17;stroke-width:0.5;stroke-dasharray:1,4;" x1="711.0962" x2="711.0962" y1="520.791" y2="548.791"/><g><title>RF1</title><rect fill="#000000" fill-opacity="0.00000" height="10" width="8" x="707.1509" y="548.791"/><line style="stroke:#F57F17;stroke-width:0.5;stroke-dasharray:5,5;" x1="711.0962" x2="711.0962" y1="548.791" y2="558.791"/></g><g><title>RF2</title><rect fill="#000000" fill-opacity="0.00000" height="273.3281" width="8" x="815.2603" y="73.7988"/><line style="stroke:#F57F17;stroke-width:0.5;stroke-dasharray:5,5;" x1="819.2056" x2="819.2056" y1="73.7988" y2="347.127"/></g><line style="stroke:#F57F17;stroke-width:0.5;stroke-dasharray:1,4;" x1="819.2056" x2="819.2056" y1="347.127" y2="375.127"/><g><title>RF2</title><rect fill="#000000" fill-opacity="0.00000" height="44.2656" width="8" x="815.2603" y="375.127"/><line style="stroke:#F57F17;stroke-width:0.5;stroke-dasharray:5,5;" x1="819.2056" x2="819.2056" y1="375.127" y2="419.3926"/></g><line style="stroke:#F57F17;stroke-width:0.5;stroke-dasharray:1,4;" x1="819.2056" x2="819.2056" y1="419.3926" y2="447.3926"/><g><title>RF2</title><rect fill="#000000" fill-opacity="0.00000" height="73.3984" width="8" x="815.2603" y="447.3926"/><line style="stroke:#F57F17;stroke-width:0.5;stroke-dasharray:5,5;" x1="819.2056" x2="819.2056" y1="447.3926" y2="520.791"/></g><line style="stroke:#F57F17;stroke-width:0.5;stroke-dasharray:1,4;" x1="819.2056" x2="819.2056" y1="520.791" y2="548.791"/><g><title>RF2</title><rect fill="#000000" fill-opacity="0.00000" height="10" width="8" x="815.2603" y="548.791"/><line style="stroke:#F57F17;stroke-width:0.5;stroke-dasharray:5,5;" x1="819.2056" x2="819.2056" y1="548.791" y2="558.791"/></g><g><title>RF3</title><rect fill="#000000" fill-opacity="0.00000" height="273.3281" width="8" x="923.3696" y="73.7988"/><line style="stroke:#F57F17;stroke-width:0.5;stroke-dasharray:5,5;" x1="927.3149" x2="927.3149" y1="73.7988" y2="347.127"/></g><line style="stroke:#F57F17;stroke-width:0.5;stroke-dasharray:1,4;" x1="927.3149" x2="927.3149" y1="347.127" y2="375.127"/><g><title>RF3</title><rect fill="#000000" fill-opacity="0.00000" height="44.2656" width="8" x="923.3696" y="375.127"/><line style="stroke:#F57F17;stroke-width:0.5;stroke-dasharray:5,5;" x1="927.3149" x2="927.3149" y1="375.127" y2="419.3926"/></g><line style="stroke:#F57F17;stroke-width:0.5;stroke-dasharray:1,4;" x1="927.3149" x2="927.3149" y1="419.3926" y2="447.3926"/><g><title>RF3</title><rect fill="#000000" fill-opacity="0.00000" height="73.3984" width="8" x="923.3696" y="447.3926"/><line style="stroke:#F57F17;stroke-width:0.5;stroke-dasharray:5,5;" x1="927.3149" x2="927.3149" y1="447.3926" y2="520.791"/></g><line style="stroke:#F57F17;stroke-width:0.5;stroke-dasharray:1,4;" x1="927.3149" x2="927.3149" y1="520.791" y2="548.791"/><g><title>RF3</title><rect fill="#000000" fill-opacity="0.00000" height="10" width="8" x="923.3696" y="548.791"/><line style="stroke:#F57F17;stroke-width:0.5;stroke-dasharray:5,5;" x1="927.3149" x2="927.3149" y1="548.791" y2="558.791"/></g><g class="participant participant-head" data-participant="cnf"><text fill="#000000" font-family="sans-serif" font-size="14" lengthAdjust="spacing" textLength="42.3828" x="5" y="70.8457">config</text><ellipse cx="29.1914" cy="41.3105" fill="#E2E2F0" rx="12" ry="12" style="stroke:#181818;stroke-width:0.5;"/><line style="stroke:#181818;stroke-width:0.5;" x1="17.1914" x2="41.1914" y1="55.3105" y2="55.3105"/></g><g class="participant participant-head" data-participant="ocf"><rect fill="#FFFFFF" height="30.4883" rx="2.5" ry="2.5" style="stroke:#F57F17;stroke-width:0.5;" width="42.0684" x="360.877" y="42.3105"/><text fill="#000000" font-family="sans-serif" font-size="14" lengthAdjust="spacing" textLength="28.0684" x="367.877" y="62.8457">OCF</text></g><g class="participant participant-head" data-participant="res"><text fill="#000000" font-family="sans-serif" font-size="14" lengthAdjust="spacing" textLength="54.0859" x="493.2681" y="70.8457">resolver</text><ellipse cx="523.311" cy="41.3105" fill="#E2E2F0" rx="12" ry="12" style="stroke:#181818;stroke-width:0.5;"/><line style="stroke:#181818;stroke-width:0.5;" x1="511.311" x2="535.311" y1="55.3105" y2="55.3105"/></g><g class="participant participant-head" data-participant="rf1"><rect fill="#FFFFFF" height="46.9766" rx="2.5" ry="2.5" style="stroke:#F57F17;stroke-width:0.5;" width="98.1094" x="662.0962" y="25.8223"/><text fill="#000000" font-family="sans-serif" font-size="14" lengthAdjust="spacing" textLength="25.2109" x="698.5454" y="46.3574">RF1</text><text fill="#000000" font-family="sans-serif" font-size="14" lengthAdjust="spacing" textLength="84.1094" x="669.0962" y="62.8457">172.16.16.1</text></g><g class="participant participant-head" data-participant="rf2"><rect fill="#FFFFFF" height="46.9766" rx="2.5" ry="2.5" style="stroke:#F57F17;stroke-width:0.5;" width="98.1094" x="770.2056" y="25.8223"/><text fill="#000000" font-family="sans-serif" font-size="14" lengthAdjust="spacing" textLength="25.2109" x="806.6548" y="46.3574">RF2</text><text fill="#000000" font-family="sans-serif" font-size="14" lengthAdjust="spacing" textLength="84.1094" x="777.2056" y="62.8457">172.16.32.1</text></g><g class="participant participant-head" data-participant="rf3"><rect fill="#FFFFFF" height="46.9766" rx="2.5" ry="2.5" style="stroke:#F57F17;stroke-width:0.5;" width="98.1094" x="878.3149" y="25.8223"/><text fill="#000000" font-family="sans-serif" font-size="14" lengthAdjust="spacing" textLength="25.2109" x="914.7642" y="46.3574">RF3</text><text fill="#000000" font-family="sans-serif" font-size="14" lengthAdjust="spacing" textLength="84.1094" x="885.3149" y="62.8457">172.16.64.1</text></g><g class="message" data-participant-1="ocf" data-participant-2="cnf"><line style="stroke:#181818;stroke-width:1;" x1="30.1914" x2="40.1914" y1="104.9316" y2="100.9316"/><line style="stroke:#181818;stroke-width:1;stroke-dasharray:2,2;" x1="29.1914" x2="380.9111" y1="104.9316" y2="104.9316"/><text fill="#000000" font-family="monospace" font-size="13" lengthAdjust="spacing" textLength="54.7866" x="46.1914" y="99.8657">nrf_uri</text></g><g class="message" data-participant-1="cnf" data-participant-2="ocf"><line style="stroke:#181818;stroke-width:1;" x1="379.9111" x2="369.9111" y1="134.0645" y2="138.0645"/><line style="stroke:#181818;stroke-width:1;stroke-dasharray:2,2;" x1="29.1914" x2="380.9111" y1="134.0645" y2="134.0645"/><text fill="#000000" font-family="monospace" font-size="13" lengthAdjust="spacing" textLength="320.8931" x="36.1914" y="128.9985">http://ocs.example.net:8080/nrf-rating/v1</text></g><g class="message" data-participant-1="ocf" data-participant-2="res"><line style="stroke:#181818;stroke-width:1;" x1="521.311" x2="511.311" y1="163.1973" y2="159.1973"/><line style="stroke:#181818;stroke-width:1;stroke-dasharray:2,2;" x1="381.9111" x2="522.311" y1="163.1973" y2="163.1973"/><text fill="#000000" font-family="monospace" font-size="13" lengthAdjust="spacing" textLength="117.3999" x="388.9111" y="158.1313">ocs.example.net</text></g><g class="message" data-participant-1="res" data-participant-2="ocf"><line style="stroke:#181818;stroke-width:1;" x1="382.9111" x2="392.9111" y1="222.5957" y2="226.5957"/><line style="stroke:#181818;stroke-width:1;stroke-dasharray:2,2;" x1="381.9111" x2="522.311" y1="222.5957" y2="222.5957"/><text fill="#000000" font-family="monospace" font-size="13" lengthAdjust="spacing" textLength="86.0933" x="398.9111" y="187.2642">172.16.16.1</text><text fill="#000000" font-family="monospace" font-size="13" lengthAdjust="spacing" textLength="86.0933" x="398.9111" y="202.397">172.16.32.1</text><text fill="#000000" font-family="monospace" font-size="13" lengthAdjust="spacing" textLength="86.0933" x="398.9111" y="217.5298">172.16.64.1</text></g><g class="message" data-participant-1="ocf" data-participant-2="cnf"><line style="stroke:#181818;stroke-width:1;" x1="30.1914" x2="40.1914" y1="251.7285" y2="247.7285"/><line style="stroke:#181818;stroke-width:1;stroke-dasharray:2,2;" x1="29.1914" x2="380.9111" y1="251.7285" y2="251.7285"/><text fill="#000000" font-family="monospace" font-size="13" lengthAdjust="spacing" textLength="62.6133" x="46.1914" y="246.6626">nrf_sort</text></g><g class="message" data-participant-1="cnf" data-participant-2="ocf"><line style="stroke:#181818;stroke-width:1;" x1="379.9111" x2="369.9111" y1="280.8613" y2="284.8613"/><line style="stroke:#181818;stroke-width:1;stroke-dasharray:2,2;" x1="29.1914" x2="380.9111" y1="280.8613" y2="280.8613"/><text fill="#000000" font-family="monospace" font-size="13" lengthAdjust="spacing" textLength="46.96" x="36.1914" y="275.7954">random</text></g><g class="message" data-participant-1="ocf" data-participant-2="cnf"><line style="stroke:#181818;stroke-width:1;" x1="30.1914" x2="40.1914" y1="309.9941" y2="305.9941"/><line style="stroke:#181818;stroke-width:1;stroke-dasharray:2,2;" x1="29.1914" x2="380.9111" y1="309.9941" y2="309.9941"/><text fill="#000000" font-family="monospace" font-size="13" lengthAdjust="spacing" textLength="125.2266" x="46.1914" y="304.9282">nrf_http_options</text></g><g class="message" data-participant-1="cnf" data-participant-2="ocf"><line style="stroke:#181818;stroke-width:1;" x1="379.9111" x2="369.9111" y1="339.127" y2="343.127"/><line style="stroke:#181818;stroke-width:1;stroke-dasharray:2,2;" x1="29.1914" x2="380.9111" y1="339.127" y2="339.127"/><text fill="#000000" font-family="monospace" font-size="13" lengthAdjust="spacing" textLength="328.7197" x="36.1914" y="334.061">[{timeout,&#160;1500},&#160;{connect_timeout,&#160;1500}]</text></g><g class="message" data-participant-1="ocf" data-participant-2="rf2"><line style="stroke:#181818;stroke-width:2;" x1="801.2603" x2="811.2603" y1="406.3926" y2="416.3926"/><line style="stroke:#181818;stroke-width:2;" x1="801.2603" x2="811.2603" y1="416.3926" y2="406.3926"/><line style="stroke:#181818;stroke-width:1;" x1="381.9111" x2="806.2603" y1="411.3926" y2="411.3926"/><text fill="#000000" font-family="monospace" font-size="13" lengthAdjust="spacing" textLength="305.2397" x="388.9111" y="391.1938">POST&#160;/nrf-rating/v1/ratingdata&#160;HTTP/1.1</text><text fill="#000000" font-family="monospace" font-size="13" lengthAdjust="spacing" textLength="203.4932" x="388.9111" y="406.3267">Host:&#160;ocs.example.net:8080</text></g><path d="M824,384.6045 L824,409.6045 L983,409.6045 L983,394.6045 L973,384.6045 L824,384.6045" fill="#FEFFDD" style="stroke:#181818;stroke-width:0.5;"/><path d="M973,384.6045 L973,394.6045 L983,394.6045 L973,384.6045" fill="#FEFFDD" style="stroke:#181818;stroke-width:0.5;"/><text fill="#000000" font-family="sans-serif" font-size="13" lengthAdjust="spacing" textLength="138.1694" x="830" y="402.1729">timeout after 1500ms</text><g class="message" data-participant-1="ocf" data-participant-2="rf1"><polygon fill="#181818" points="699.1509,479.6582,709.1509,483.6582,699.1509,487.6582,703.1509,483.6582" style="stroke:#181818;stroke-width:1;"/><line style="stroke:#181818;stroke-width:1;" x1="381.9111" x2="705.1509" y1="483.6582" y2="483.6582"/><text fill="#000000" font-family="monospace" font-size="13" lengthAdjust="spacing" textLength="305.2397" x="388.9111" y="463.4595">POST&#160;/nrf-rating/v1/ratingdata&#160;HTTP/1.1</text><text fill="#000000" font-family="monospace" font-size="13" lengthAdjust="spacing" textLength="203.4932" x="388.9111" y="478.5923">Host:&#160;ocs.example.net:8080</text></g><g class="message" data-participant-1="rf1" data-participant-2="ocf"><polygon fill="#181818" points="392.9111,508.791,382.9111,512.791,392.9111,516.791,388.9111,512.791" style="stroke:#181818;stroke-width:1;"/><line style="stroke:#181818;stroke-width:1;" x1="386.9111" x2="710.1509" y1="512.791" y2="512.791"/><text fill="#000000" font-family="monospace" font-size="13" lengthAdjust="spacing" textLength="86.0933" x="398.9111" y="507.7251">201&#160;Created</text></g><!--SRC=[hL91Rjim4Bph5Glr6ecYtCI1KVHGeq4E0M8qlaM5mKXBYuX5gkGwSM7axoLbMOaDzHQ01s9dPdU6I_UiT2kiQC3LeZAlIgz1Yet3oBqZ-6UBkaJOHmjXIPMg5Pf-65kXdPkDiV15Naubdvx0ednUMxFLrO7oMYl2w4v9l5CQnyG3DgfyYvxC3kOFFoFKfEWlb4PBjGRXeDGoQjydm_ty9fHDAOzSYyviNj26ih_xSWM-tOag_dN32ysdUSglkXDtRCdFMVd0ckG3ApzdJGRMrTU1DObgLI58OoYCZxnpO2n9WbUOGHnhArTRg-AuWvA4iG6gYTePOwPqAUv4qsumrKYpw-mwOrwMM45-UUo5Ut7G94bHXB2T-4pLKuh2ZpvIFYQF2pqKkf0V2rsUUDoxCvR6p5kXAzFyJnMYhKnBocWtfdxSashGREa2-6MMlLt0tczVOqchK-2tLwTfUiZ_VHVsqZLOt3yiuVILsE5M2H9mkrmk63_6l3MEPZ3spdrtRGZ1gdLDldbl08Ga_x-2YyRryyFd-UJneV6tP6YSPnpc5WLXrNlx1m00]--></g></svg>