<svg xmlns="http://www.w3.org/2000/svg" xmlns:xlink="http://www.w3.org/1999/xlink" contentStyleType="text/css" data-diagram-type="SEQUENCE" height="851px" preserveAspectRatio="none" style="width:570px;height:851px;background:#FFFFFF;" version="1.1" viewBox="0 0 570 851" width="570px" zoomAndPan="magnify"><defs/><g><g><title>SSF</title><rect fill="#FFFFFF" height="205.1738" style="stroke:#FFFFFF;stroke-width:1;" width="10" x="33.293" y="46.4883"/><line style="stroke:#F57F17;stroke-width:1;" x1="33.293" x2="33.293" y1="46.4883" y2="251.6621"/><line style="stroke:#F57F17;stroke-width:1;" x1="43.293" x2="43.293" y1="46.4883" y2="251.6621"/><line style="stroke:#F57F17;stroke-width:1;" x1="33.293" x2="43.293" y1="46.4883" y2="46.4883"/></g><g><title>SSF</title><rect fill="#FFFFFF" height="29.3105" style="stroke:#FFFFFF;stroke-width:1;" width="10" x="33.293" y="279.6621"/><line style="stroke:#F57F17;stroke-width:1;" x1="33.293" x2="33.293" y1="279.6621" y2="308.9727"/><line style="stroke:#F57F17;stroke-width:1;" x1="43.293" x2="43.293" y1="279.6621" y2="308.9727"/></g><g><title>SSF</title><rect fill="#FFFFFF" height="117.2422" style="stroke:#FFFFFF;stroke-width:1;" width="10" x="33.293" y="336.9727"/><line style="stroke:#F57F17;stroke-width:1;" x1="33.293" x2="33.293" y1="336.9727" y2="454.2148"/><line style="stroke:#F57F17;stroke-width:1;" x1="43.293" x2="43.293" y1="336.9727" y2="454.2148"/></g><g><title>SSF</title><rect fill="#FFFFFF" height="43.3105" style="stroke:#FFFFFF;stroke-width:1;" width="10" x="33.293" y="482.2148"/><line style="stroke:#F57F17;stroke-width:1;" x1="33.293" x2="33.293" y1="482.2148" y2="525.5254"/><line style="stroke:#F57F17;stroke-width:1;" x1="43.293" x2="43.293" y1="482.2148" y2="525.5254"/></g><g><title>SSF</title><rect fill="#FFFFFF" height="272.75" style="stroke:#FFFFFF;stroke-width:1;" width="10" x="33.293" y="553.5254"/><line style="stroke:#F57F17;stroke-width:1;" x1="33.293" x2="33.293" y1="553.5254" y2="826.2754"/><line style="stroke:#F57F17;stroke-width:1;" x1="43.293" x2="43.293" y1="553.5254" y2="826.2754"/><line style="stroke:#F57F17;stroke-width:1;" x1="33.293" x2="43.293" y1="826.2754" y2="826.2754"/></g><g><title>SCF/OCF</title><rect fill="#FFFFFF" height="183.8633" style="stroke:#FFFFFF;stroke-width:1;" width="10" x="225.2671" y="67.7988"/><line style="stroke:#F57F17;stroke-width:1;" x1="225.2671" x2="225.2671" y1="67.7988" y2="251.6621"/><line style="stroke:#F57F17;stroke-width:1;" x1="235.2671" x2="235.2671" y1="67.7988" y2="251.6621"/><line style="stroke:#F57F17;stroke-width:1;" x1="225.2671" x2="235.2671" y1="67.7988" y2="67.7988"/></g><g><title>SCF/OCF</title><rect fill="#FFFFFF" height="29.3105" style="stroke:#FFFFFF;stroke-width:1;" width="10" x="225.2671" y="279.6621"/><line style="stroke:#F57F17;stroke-width:1;" x1="225.2671" x2="225.2671" y1="279.6621" y2="308.9727"/><line style="stroke:#F57F17;stroke-width:1;" x1="235.2671" x2="235.2671" y1="279.6621" y2="308.9727"/></g><g><title>SCF/OCF</title><rect fill="#FFFFFF" height="117.2422" style="stroke:#FFFFFF;stroke-width:1;" width="10" x="225.2671" y="336.9727"/><line style="stroke:#F57F17;stroke-width:1;" x1="225.2671" x2="225.2671" y1="336.9727" y2="454.2148"/><line style="stroke:#F57F17;stroke-width:1;" x1="235.2671" x2="235.2671" y1="336.9727" y2="454.2148"/></g><g><title>SCF/OCF</title><rect fill="#FFFFFF" height="43.3105" style="stroke:#FFFFFF;stroke-width:1;" width="10" x="225.2671" y="482.2148"/><line style="stroke:#F57F17;stroke-width:1;" x1="225.2671" x2="225.2671" y1="482.2148" y2="525.5254"/><line style="stroke:#F57F17;stroke-width:1;" x1="235.2671" x2="235.2671" y1="482.2148" y2="525.5254"/></g><g><title>SCF/OCF</title><rect fill="#FFFFFF" height="272.75" style="stroke:#FFFFFF;stroke-width:1;" width="10" x="225.2671" y="553.5254"/><line style="stroke:#F57F17;stroke-width:1;" x1="225.2671" x2="225.2671" y1="553.5254" y2="826.2754"/><line style="stroke:#F57F17;stroke-width:1;" x1="235.2671" x2="235.2671" y1="553.5254" y2="826.2754"/><line style="stroke:#F57F17;stroke-width:1;" x1="225.2671" x2="235.2671" y1="826.2754" y2="826.2754"/></g><g><title>RF</title><rect fill="#FFFFFF" height="154.5527" style="stroke:#FFFFFF;stroke-width:1;" width="10" x="523.4946" y="97.1094"/><line style="stroke:#F57F17;stroke-width:1;" x1="523.4946" x2="523.4946" y1="97.1094" y2="251.6621"/><line style="stroke:#F57F17;stroke-width:1;" x1="533.4946" x2="533.4946" y1="97.1094" y2="251.6621"/><line style="stroke:#F57F17;stroke-width:1;" x1="523.4946" x2="533.4946" y1="97.1094" y2="97.1094"/></g><g><title>RF</title><rect fill="#FFFFFF" height="29.3105" style="stroke:#FFFFFF;stroke-width:1;" width="10" x="523.4946" y="279.6621"/><line style="stroke:#F57F17;stroke-width:1;" x1="523.4946" x2="523.4946" y1="279.6621" y2="308.9727"/><line style="stroke:#F57F17;stroke-width:1;" x1="533.4946" x2="533.4946" y1="279.6621" y2="308.9727"/></g><g><title>RF</title><rect fill="#FFFFFF" height="117.2422" style="stroke:#FFFFFF;stroke-width:1;" width="10" x="523.4946" y="336.9727"/><line style="stroke:#F57F17;stroke-width:1;" x1="523.4946" x2="523.4946" y1="336.9727" y2="454.2148"/><line style="stroke:#F57F17;stroke-width:1;" x1="533.4946" x2="533.4946" y1="336.9727" y2="454.2148"/></g><g><title>RF</title><rect fill="#FFFFFF" height="43.3105" style="stroke:#FFFFFF;stroke-width:1;" width="10" x="523.4946" y="482.2148"/><line style="stroke:#F57F17;stroke-width:1;" x1="523.4946" x2="523.4946" y1="482.2148" y2="525.5254"/><line style="stroke:#F57F17;stroke-width:1;" x1="533.4946" x2="533.4946" y1="482.2148" y2="525.5254"/></g><g><title>RF</title><rect fill="#FFFFFF" height="243.4395" style="stroke:#FFFFFF;stroke-width:1;" width="10" x="523.4946" y="553.5254"/><line style="stroke:#F57F17;stroke-width:1;" x1="523.4946" x2="523.4946" y1="553.5254" y2="796.9648"/><line style="stroke:#F57F17;stroke-width:1;" x1="533.4946" x2="533.4946" y1="553.5254" y2="796.9648"/><line style="stroke:#F57F17;stroke-width:1;" x1="523.4946" x2="533.4946" y1="796.9648" y2="796.9648"/></g><rect fill="transparent" height="178.8184" style="stroke:#000000;stroke-width:1.5;" width="543.6738" x="10" y="560.5254"/><g><title>SSF</title><rect fill="transparent" height="215.1738" width="8" x="34.293" y="36.4883"/><line style="stroke:#F57F17;stroke-width:0.5;stroke-dasharray:5.0,5.0;" x1="38" x2="38" y1="36.4883" y2="251.6621"/></g><line style="stroke:#F57F17;stroke-width:1;stroke-dasharray:1.0,4.0;" x1="38" x2="38" y1="251.6621" y2="279.6621"/><g><title>SSF</title><rect fill="transparent" height="29.3105" width="8" x="34.293" y="279.6621"/><line style="stroke:#F57F17;stroke-width:0.5;stroke-dasharray:5.0,5.0;" x1="38" x2="38" y1="279.6621" y2="308.9727"/></g><line style="stroke:#F57F17;stroke-width:1;stroke-dasharray:1.0,4.0;" x1="38" x2="38" y1="308.9727" y2="336.9727"/><g><title>SSF</title><rect fill="transparent" height="117.2422" width="8" x="34.293" y="336.9727"/><line style="stroke:#F57F17;stroke-width:0.5;stroke-dasharray:5.0,5.0;" x1="38" x2="38" y1="336.9727" y2="454.2148"/></g><line style="stroke:#F57F17;stroke-width:1;stroke-dasharray:1.0,4.0;" x1="38" x2="38" y1="454.2148" y2="482.2148"/><g><title>SSF</title><rect fill="transparent" height="43.3105" width="8" x="34.293" y="482.2148"/><line style="stroke:#F57F17;stroke-width:0.5;stroke-dasharray:5.0,5.0;" x1="38" x2="38" y1="482.2148" y2="525.5254"/></g><line style="stroke:#F57F17;stroke-width:1;stroke-dasharray:1.0,4.0;" x1="38" x2="38" y1="525.5254" y2="553.5254"/><g><title>SSF</title><rect fill="transparent" height="290.75" width="8" x="34.293" y="553.5254"/><line style="stroke:#F57F17;stroke-width:0.5;stroke-dasharray:5.0,5.0;" x1="38" x2="38" y1="553.5254" y2="844.2754"/></g><g><title>SCF/OCF</title><rect fill="transparent" height="215.1738" width="8" x="226.2671" y="36.4883"/><line style="stroke:#F57F17;stroke-width:0.5;stroke-dasharray:5.0,5.0;" x1="230.1958" x2="230.1958" y1="36.4883" y2="251.6621"/></g><line style="stroke:#F57F17;stroke-width:1;stroke-dasharray:1.0,4.0;" x1="230.1958" x2="230.1958" y1="251.6621" y2="279.6621"/><g><title>SCF/OCF</title><rect fill="transparent" height="29.3105" width="8" x="226.2671" y="279.6621"/><line style="stroke:#F57F17;stroke-width:0.5;stroke-dasharray:5.0,5.0;" x1="230.1958" x2="230.1958" y1="279.6621" y2="308.9727"/></g><line style="stroke:#F57F17;stroke-width:1;stroke-dasharray:1.0,4.0;" x1="230.1958" x2="230.1958" y1="308.9727" y2="336.9727"/><g><title>SCF/OCF</title><rect fill="transparent" height="117.2422" width="8" x="226.2671" y="336.9727"/><line style="stroke:#F57F17;stroke-width:0.5;stroke-dasharray:5.0,5.0;" x1="230.1958" x2="230.1958" y1="336.9727" y2="454.2148"/></g><line style="stroke:#F57F17;stroke-width:1;stroke-dasharray:1.0,4.0;" x1="230.1958" x2="230.1958" y1="454.2148" y2="482.2148"/><g><title>SCF/OCF</title><rect fill="transparent" height="43.3105" width="8" x="226.2671" y="482.2148"/><line style="stroke:#F57F17;stroke-width:0.5;stroke-dasharray:5.0,5.0;" x1="230.1958" x2="230.1958" y1="482.2148" y2="525.5254"/></g><line style="stroke:#F57F17;stroke-width:1;stroke-dasharray:1.0,4.0;" x1="230.1958" x2="230.1958" y1="525.5254" y2="553.5254"/><g><title>SCF/OCF</title><rect fill="transparent" height="290.75" width="8" x="226.2671" y="553.5254"/><line style="stroke:#F57F17;stroke-width:0.5;stroke-dasharray:5.0,5.0;" x1="230.1958" x2="230.1958" y1="553.5254" y2="844.2754"/></g><g><title>RF</title><rect fill="transparent" height="215.1738" width="8" x="524.4946" y="36.4883"/><line style="stroke:#F57F17;stroke-width:0.5;stroke-dasharray:5.0,5.0;" x1="528.3154" x2="528.3154" y1="36.4883" y2="251.6621"/></g><line style="stroke:#F57F17;stroke-width:1;stroke-dasharray:1.0,4.0;" x1="528.3154" x2="528.3154" y1="251.6621" y2="279.6621"/><g><title>RF</title><rect fill="transparent" height="29.3105" width="8" x="524.4946" y="279.6621"/><line style="stroke:#F57F17;stroke-width:0.5;stroke-dasharray:5.0,5.0;" x1="528.3154" x2="528.3154" y1="279.6621" y2="308.9727"/></g><line style="stroke:#F57F17;stroke-width:1;stroke-dasharray:1.0,4.0;" x1="528.3154" x2="528.3154" y1="308.9727" y2="336.9727"/><g><title>RF</title><rect fill="transparent" height="117.2422" width="8" x="524.4946" y="336.9727"/><line style="stroke:#F57F17;stroke-width:0.5;stroke-dasharray:5.0,5.0;" x1="528.3154" x2="528.3154" y1="336.9727" y2="454.2148"/></g><line style="stroke:#F57F17;stroke-width:1;stroke-dasharray:1.0,4.0;" x1="528.3154" x2="528.3154" y1="454.2148" y2="482.2148"/><g><title>RF</title><rect fill="transparent" height="43.3105" width="8" x="524.4946" y="482.2148"/><line style="stroke:#F57F17;stroke-width:0.5;stroke-dasharray:5.0,5.0;" x1="528.3154" x2="528.3154" y1="482.2148" y2="525.5254"/></g><line style="stroke:#F57F17;stroke-width:1;stroke-dasharray:1.0,4.0;" x1="528.3154" x2="528.3154" y1="525.5254" y2="553.5254"/><g><title>RF</title><rect fill="transparent" height="290.75" width="8" x="524.4946" y="553.5254"/><line style="stroke:#F57F17;stroke-width:0.5;stroke-dasharray:5.0,5.0;" x1="528.3154" x2="528.3154" y1="553.5254" y2="844.2754"/></g><rect fill="#FFFFFF" height="30.4883" rx="2.5" ry="2.5" style="stroke:#F57F17;stroke-width:0.5;" width="36.5859" x="20" y="5"/><text fill="#000000" font-family="sans-serif" font-size="14" lengthAdjust="spacing" textLength="22.5859" x="27" y="25.5352">SSF</text><rect fill="#FFFFFF" height="30.4883" rx="2.5" ry="2.5" style="stroke:#F57F17;stroke-width:0.5;" width="74.1426" x="193.1958" y="5"/><text fill="#000000" font-family="sans-serif" font-size="14" lengthAdjust="spacing" textLength="60.1426" x="200.1958" y="25.5352">SCF/OCF</text><rect fill="#FFFFFF" height="30.4883" rx="2.5" ry="2.5" style="stroke:#F57F17;stroke-width:0.5;" width="30.3584" x="513.3154" y="5"/><text fill="#000000" font-family="sans-serif" font-size="14" lengthAdjust="spacing" textLength="16.3584" x="520.3154" y="25.5352">RF</text><g><title>SSF</title><rect fill="#FFFFFF" height="205.1738" style="stroke:#FFFFFF;stroke-width:1;" width="10" x="33.293" y="46.4883"/><line style="stroke:#F57F17;stroke-width:1;" x1="33.293" x2="33.293" y1="46.4883" y2="251.6621"/><line style="stroke:#F57F17;stroke-width:1;" x1="43.293" x2="43.293" y1="46.4883" y2="251.6621"/><line style="stroke:#F57F17;stroke-width:1;" x1="33.293" x2="43.293" y1="46.4883" y2="46.4883"/></g><g><title>SSF</title><rect fill="#FFFFFF" height="29.3105" style="stroke:#FFFFFF;stroke-width:1;" width="10" x="33.293" y="279.6621"/><line style="stroke:#F57F17;stroke-width:1;" x1="33.293" x2="33.293" y1="279.6621" y2="308.9727"/><line style="stroke:#F57F17;stroke-width:1;" x1="43.293" x2="43.293" y1="279.6621" y2="308.9727"/></g><g><title>SSF</title><rect fill="#FFFFFF" height="117.2422" style="stroke:#FFFFFF;stroke-width:1;" width="10" x="33.293" y="336.9727"/><line style="stroke:#F57F17;stroke-width:1;" x1="33.293" x2="33.293" y1="336.9727" y2="454.2148"/><line style="stroke:#F57F17;stroke-width:1;" x1="43.293" x2="43.293" y1="336.9727" y2="454.2148"/></g><g><title>SSF</title><rect fill="#FFFFFF" height="43.3105" style="stroke:#FFFFFF;stroke-width:1;" width="10" x="33.293" y="482.2148"/><line style="stroke:#F57F17;stroke-width:1;" x1="33.293" x2="33.293" y1="482.2148" y2="525.5254"/><line style="stroke:#F57F17;stroke-width:1;" x1="43.293" x2="43.293" y1="482.2148" y2="525.5254"/></g><g><title>SSF</title><rect fill="#FFFFFF" height="272.75" style="stroke:#FFFFFF;stroke-width:1;" width="10" x="33.293" y="553.5254"/><line style="stroke:#F57F17;stroke-width:1;" x1="33.293" x2="33.293" y1="553.5254" y2="826.2754"/><line style="stroke:#F57F17;stroke-width:1;" x1="43.293" x2="43.293" y1="553.5254" y2="826.2754"/><line style="stroke:#F57F17;stroke-width:1;" x1="33.293" x2="43.293" y1="826.2754" y2="826.2754"/></g><g><title>SCF/OCF</title><rect fill="#FFFFFF" height="183.8633" style="stroke:#FFFFFF;stroke-width:1;" width="10" x="225.2671" y="67.7988"/><line style="stroke:#F57F17;stroke-width:1;" x1="225.2671" x2="225.2671" y1="67.7988" y2="251.6621"/><line style="stroke:#F57F17;stroke-width:1;" x1="235.2671" x2="235.2671" y1="67.7988" y2="251.6621"/><line style="stroke:#F57F17;stroke-width:1;" x1="225.2671" x2="235.2671" y1="67.7988" y2="67.7988"/></g><g><title>SCF/OCF</title><rect fill="#FFFFFF" height="29.3105" style="stroke:#FFFFFF;stroke-width:1;" width="10" x="225.2671" y="279.6621"/><line style="stroke:#F57F17;stroke-width:1;" x1="225.2671" x2="225.2671" y1="279.6621" y2="308.9727"/><line style="stroke:#F57F17;stroke-width:1;" x1="235.2671" x2="235.2671" y1="279.6621" y2="308.9727"/></g><g><title>SCF/OCF</title><rect fill="#FFFFFF" height="117.2422" style="stroke:#FFFFFF;stroke-width:1;" width="10" x="225.2671" y="336.9727"/><line style="stroke:#F57F17;stroke-width:1;" x1="225.2671" x2="225.2671" y1="336.9727" y2="454.2148"/><line style="stroke:#F57F17;stroke-width:1;" x1="235.2671" x2="235.2671" y1="336.9727" y2="454.2148"/></g><g><title>SCF/OCF</title><rect fill="#FFFFFF" height="43.3105" style="stroke:#FFFFFF;stroke-width:1;" width="10" x="225.2671" y="482.2148"/><line style="stroke:#F57F17;stroke-width:1;" x1="225.2671" x2="225.2671" y1="482.2148" y2="525.5254"/><line style="stroke:#F57F17;stroke-width:1;" x1="235.2671" x2="235.2671" y1="482.2148" y2="525.5254"/></g><g><title>SCF/OCF</title><rect fill="#FFFFFF" height="272.75" style="stroke:#FFFFFF;stroke-width:1;" width="10" x="225.2671" y="553.5254"/><line style="stroke:#F57F17;stroke-width:1;" x1="225.2671" x2="225.2671" y1="553.5254" y2="826.2754"/><line style="stroke:#F57F17;stroke-width:1;" x1="235.2671" x2="235.2671" y1="553.5254" y2="826.2754"/><line style="stroke:#F57F17;stroke-width:1;" x1="225.2671" x2="235.2671" y1="826.2754" y2="826.2754"/></g><g><title>RF</title><rect fill="#FFFFFF" height="154.5527" style="stroke:#FFFFFF;stroke-width:1;" width="10" x="523.4946" y="97.1094"/><line style="stroke:#F57F17;stroke-width:1;" x1="523.4946" x2="523.4946" y1="97.1094" y2="251.6621"/><line style="stroke:#F57F17;stroke-width:1;" x1="533.4946" x2="533.4946" y1="97.1094" y2="251.6621"/><line style="stroke:#F57F17;stroke-width:1;" x1="523.4946" x2="533.4946" y1="97.1094" y2="97.1094"/></g><g><title>RF</title><rect fill="#FFFFFF" height="29.3105" style="stroke:#FFFFFF;stroke-width:1;" width="10" x="523.4946" y="279.6621"/><line style="stroke:#F57F17;stroke-width:1;" x1="523.4946" x2="523.4946" y1="279.6621" y2="308.9727"/><line style="stroke:#F57F17;stroke-width:1;" x1="533.4946" x2="533.4946" y1="279.6621" y2="308.9727"/></g><g><title>RF</title><rect fill="#FFFFFF" height="117.2422" style="stroke:#FFFFFF;stroke-width:1;" width="10" x="523.4946" y="336.9727"/><line style="stroke:#F57F17;stroke-width:1;" x1="523.4946" x2="523.4946" y1="336.9727" y2="454.2148"/><line style="stroke:#F57F17;stroke-width:1;" x1="533.4946" x2="533.4946" y1="336.9727" y2="454.2148"/></g><g><title>RF</title><rect fill="#FFFFFF" height="43.3105" style="stroke:#FFFFFF;stroke-width:1;" width="10" x="523.4946" y="482.2148"/><line style="stroke:#F57F17;stroke-width:1;" x1="523.4946" x2="523.4946" y1="482.2148" y2="525.5254"/><line style="stroke:#F57F17;stroke-width:1;" x1="533.4946" x2="533.4946" y1="482.2148" y2="525.5254"/></g><g><title>RF</title><rect fill="#FFFFFF" height="243.4395" style="stroke:#FFFFFF;stroke-width:1;" width="10" x="523.4946" y="553.5254"/><line style="stroke:#F57F17;stroke-width:1;" x1="523.4946" x2="523.4946" y1="553.5254" y2="796.9648"/><line style="stroke:#F57F17;stroke-width:1;" x1="533.4946" x2="533.4946" y1="553.5254" y2="796.9648"/><line style="stroke:#F57F17;stroke-width:1;" x1="523.4946" x2="533.4946" y1="796.9648" y2="796.9648"/></g><polygon fill="#181818" points="213.2671,63.7988,223.2671,67.7988,213.2671,71.7988,217.2671,67.7988" style="stroke:#181818;stroke-width:1;"/><line style="stroke:#181818;stroke-width:1;" x1="43.293" x2="219.2671" y1="67.7988" y2="67.7988"/><text fill="#000000" font-family="sans-serif" font-size="13" lengthAdjust="spacing" textLength="52.0635" x="50.293" y="63.0566">initialDP</text><polygon fill="#181818" points="511.4946,93.1094,521.4946,97.1094,511.4946,101.1094,515.4946,97.1094" style="stroke:#181818;stroke-width:1;"/><line style="stroke:#181818;stroke-width:1;" x1="235.2671" x2="517.4946" y1="97.1094" y2="97.1094"/><text fill="#000000" font-family="sans-serif" font-size="13" lengthAdjust="spacing" textLength="108.1323" x="242.2671" y="92.3672">POST /ratingdata</text><polygon fill="#181818" points="246.2671,122.4199,236.2671,126.4199,246.2671,130.4199,242.2671,126.4199" style="stroke:#181818;stroke-width:1;"/><line style="stroke:#181818;stroke-width:1;" x1="240.2671" x2="522.4946" y1="126.4199" y2="126.4199"/><text fill="#000000" font-family="sans-serif" font-size="13" lengthAdjust="spacing" textLength="77.7969" x="252.2671" y="121.6777">201 Created</text><polygon fill="#181818" points="54.293,151.7305,44.293,155.7305,54.293,159.7305,50.293,155.7305" style="stroke:#181818;stroke-width:1;"/><line style="stroke:#181818;stroke-width:1;" x1="48.293" x2="224.2671" y1="155.7305" y2="155.7305"/><text fill="#000000" font-family="sans-serif" font-size="13" lengthAdjust="spacing" textLength="157.9741" x="60.293" y="150.9883">requestReportBCSMEvent</text><polygon fill="#181818" points="54.293,181.041,44.293,185.041,54.293,189.041,50.293,185.041" style="stroke:#181818;stroke-width:1;"/><line style="stroke:#181818;stroke-width:1;" x1="48.293" x2="224.2671" y1="185.041" y2="185.041"/><text fill="#000000" font-family="sans-serif" font-size="13" lengthAdjust="spacing" textLength="145.6851" x="60.293" y="180.2988">callInformationRequest</text><polygon fill="#181818" points="54.293,210.3516,44.293,214.3516,54.293,218.3516,50.293,214.3516" style="stroke:#181818;stroke-width:1;"/><line style="stroke:#181818;stroke-width:1;" x1="48.293" x2="224.2671" y1="214.3516" y2="214.3516"/><text fill="#000000" font-family="sans-serif" font-size="13" lengthAdjust="spacing" textLength="91.6919" x="60.293" y="209.6094">applyCharging</text><polygon fill="#181818" points="54.293,239.6621,44.293,243.6621,54.293,247.6621,50.293,243.6621" style="stroke:#181818;stroke-width:1;"/><line style="stroke:#181818;stroke-width:1;" x1="48.293" x2="224.2671" y1="243.6621" y2="243.6621"/><text fill="#000000" font-family="sans-serif" font-size="13" lengthAdjust="spacing" textLength="54.7104" x="60.293" y="238.9199">continue</text><polygon fill="#181818" points="213.2671,296.9727,223.2671,300.9727,213.2671,304.9727,217.2671,300.9727" style="stroke:#181818;stroke-width:1;"/><line style="stroke:#181818;stroke-width:1;" x1="43.293" x2="219.2671" y1="300.9727" y2="300.9727"/><text fill="#000000" font-family="sans-serif" font-size="13" lengthAdjust="spacing" textLength="110.627" x="50.293" y="296.2305">eventReportBCSM</text><polygon fill="#181818" points="213.2671,354.2832,223.2671,358.2832,213.2671,362.2832,217.2671,358.2832" style="stroke:#181818;stroke-width:1;"/><line style="stroke:#181818;stroke-width:1;" x1="43.293" x2="219.2671" y1="358.2832" y2="358.2832"/><text fill="#000000" font-family="sans-serif" font-size="13" lengthAdjust="spacing" textLength="133.5039" x="50.293" y="353.541">applyChargingReport</text><polygon fill="#181818" points="511.4946,383.5938,521.4946,387.5938,511.4946,391.5938,515.4946,387.5938" style="stroke:#181818;stroke-width:1;"/><line style="stroke:#181818;stroke-width:1;" x1="235.2671" x2="517.4946" y1="387.5938" y2="387.5938"/><text fill="#000000" font-family="sans-serif" font-size="13" lengthAdjust="spacing" textLength="263.3325" x="242.2671" y="382.8516">POST /ratingdata/{RatingDataRef}/update</text><polygon fill="#181818" points="246.2671,412.9043,236.2671,416.9043,246.2671,420.9043,242.2671,416.9043" style="stroke:#181818;stroke-width:1;"/><line style="stroke:#181818;stroke-width:1;" x1="240.2671" x2="522.4946" y1="416.9043" y2="416.9043"/><text fill="#000000" font-family="sans-serif" font-size="13" lengthAdjust="spacing" textLength="47.3599" x="252.2671" y="412.1621">200 OK</text><polygon fill="#181818" points="54.293,442.2148,44.293,446.2148,54.293,450.2148,50.293,446.2148" style="stroke:#181818;stroke-width:1;"/><line style="stroke:#181818;stroke-width:1;" x1="48.293" x2="224.2671" y1="446.2148" y2="446.2148"/><text fill="#000000" font-family="sans-serif" font-size="13" lengthAdjust="spacing" textLength="91.6919" x="60.293" y="441.4727">applyCharging</text><rect fill="#EEEEEE" height="3" style="stroke:#EEEEEE;stroke-width:1;" width="563.6738" x="0" y="502.8701"/><line style="stroke:#000000;stroke-width:1;" x1="0" x2="563.6738" y1="502.8701" y2="502.8701"/><line style="stroke:#000000;stroke-width:1;" x1="0" x2="563.6738" y1="505.8701" y2="505.8701"/><rect fill="#EEEEEE" height="23.3105" style="stroke:#000000;stroke-width:2;" width="83.875" x="239.8994" y="492.2148"/><text fill="#000000" font-family="sans-serif" font-size="13" font-weight="bold" lengthAdjust="spacing" textLength="65.5903" x="245.8994" y="508.7832">repetition</text><path d="M10,560.5254 L72.1387,560.5254 L72.1387,567.8359 L62.1387,577.8359 L10,577.8359 L10,560.5254 " fill="#EEEEEE" style="stroke:#000000;stroke-width:1.5;"/><rect fill="transparent" height="178.8184" style="stroke:#000000;stroke-width:1.5;" width="543.6738" x="10" y="560.5254"/><text fill="#000000" font-family="sans-serif" font-size="13" font-weight="bold" lengthAdjust="spacing" textLength="17.1387" x="25" y="574.0938">alt</text><text fill="#000000" font-family="sans-serif" font-size="11" font-weight="bold" lengthAdjust="spacing" textLength="78.3213" x="87.1387" y="573.1602">[out of credit]</text><polygon fill="#181818" points="213.2671,595.1465,223.2671,599.1465,213.2671,603.1465,217.2671,599.1465" style="stroke:#181818;stroke-width:1;"/><line style="stroke:#181818;stroke-width:1;" x1="43.293" x2="219.2671" y1="599.1465" y2="599.1465"/><text fill="#000000" font-family="sans-serif" font-size="13" lengthAdjust="spacing" textLength="133.5039" x="50.293" y="594.4043">applyChargingReport</text><polygon fill="#181818" points="511.4946,624.457,521.4946,628.457,511.4946,632.457,515.4946,628.457" style="stroke:#181818;stroke-width:1;"/><line style="stroke:#181818;stroke-width:1;" x1="235.2671" x2="517.4946" y1="628.457" y2="628.457"/><text fill="#000000" font-family="sans-serif" font-size="13" lengthAdjust="spacing" textLength="263.3325" x="242.2671" y="623.7148">POST /ratingdata/{RatingDataRef}/update</text><polygon fill="#181818" points="246.2671,653.7676,236.2671,657.7676,246.2671,661.7676,242.2671,657.7676" style="stroke:#181818;stroke-width:1;"/><line style="stroke:#181818;stroke-width:1;" x1="240.2671" x2="522.4946" y1="657.7676" y2="657.7676"/><text fill="#000000" font-family="sans-serif" font-size="13" lengthAdjust="spacing" textLength="92.6631" x="252.2671" y="653.0254">403 Forbidden</text><line style="stroke:#000000;stroke-width:1;stroke-dasharray:2.0,2.0;" x1="10" x2="553.6738" y1="666.7676" y2="666.7676"/><text fill="#000000" font-family="sans-serif" font-size="11" font-weight="bold" lengthAdjust="spacing" textLength="95.7988" x="15" y="677.4023">[normal call end]</text><polygon fill="#181818" points="213.2671,698.0332,223.2671,702.0332,213.2671,706.0332,217.2671,702.0332" style="stroke:#181818;stroke-width:1;"/><line style="stroke:#181818;stroke-width:1;" x1="43.293" x2="219.2671" y1="702.0332" y2="702.0332"/><text fill="#000000" font-family="sans-serif" font-size="13" lengthAdjust="spacing" textLength="137.0522" x="50.293" y="697.291">callInformationReport</text><polygon fill="#181818" points="213.2671,727.3438,223.2671,731.3438,213.2671,735.3438,217.2671,731.3438" style="stroke:#181818;stroke-width:1;"/><line style="stroke:#181818;stroke-width:1;" x1="43.293" x2="219.2671" y1="731.3438" y2="731.3438"/><text fill="#000000" font-family="sans-serif" font-size="13" lengthAdjust="spacing" textLength="110.627" x="50.293" y="726.6016">eventReportBCSM</text><polygon fill="#181818" points="511.4946,763.6543,521.4946,767.6543,511.4946,771.6543,515.4946,767.6543" style="stroke:#181818;stroke-width:1;"/><line style="stroke:#181818;stroke-width:1;" x1="235.2671" x2="517.4946" y1="767.6543" y2="767.6543"/><text fill="#000000" font-family="sans-serif" font-size="13" lengthAdjust="spacing" textLength="264.2275" x="242.2671" y="762.9121">POST /ratingdata/{RatingDataRef}/release</text><polygon fill="#181818" points="246.2671,792.9648,236.2671,796.9648,246.2671,800.9648,242.2671,796.9648" style="stroke:#181818;stroke-width:1;"/><line style="stroke:#181818;stroke-width:1;" x1="240.2671" x2="527.4946" y1="796.9648" y2="796.9648"/><text fill="#000000" font-family="sans-serif" font-size="13" lengthAdjust="spacing" textLength="47.3599" x="252.2671" y="792.2227">200 OK</text><polygon fill="#181818" points="49.293,822.2754,39.293,826.2754,49.293,830.2754,45.293,826.2754" style="stroke:#181818;stroke-width:1;"/><line style="stroke:#181818;stroke-width:1;" x1="43.293" x2="229.2671" y1="826.2754" y2="826.2754"/><text fill="#000000" font-family="sans-serif" font-size="13" lengthAdjust="spacing" textLength="113.7944" x="55.293" y="821.5332">invoke releaseCall</text><!--SRC=[jLDDQnin43rNls98ph6TVX0eTG_Pr52QOhFk7vYiHhQm8cr6MYSXvBztj2grrp667deGIFFUp3ozaUB6-XOPxo6kKOT7wrTWq4LISOVGGqU-8NXH2-Ha6zkYJzU1DN4LN60uDv-kpENL0CPci-BGULqeZskRIDrQGxVMqx7alzZHp5VLxeh3sN8vEmEC4ACv0AhPU5xz0Pi3i2vnDcfjDO498Ts59wMmINQBYVfoik3YQqw6ps2zJHRTpMAF8rKpA1pEbCLy-Gl6Z4cyqvXmn-H2_79HYEydbr0n2QBx9X8lJJWR75DDRU1qNIr_VjkIJqDEWyvzzoRmlJGAlYufGmwshNkkriWhaNAG7hpewmZUgT5eDBmZvMwxvcy9Wxg5UDA1yKlTxszaNvDv7NUjXEd0Z0dCVvpIdsLCfs9EIydcEyDqsWVH9GYTB0CDaxRf_wlzEFa0iy1tLcloYkH_WC-ZSFrSWBmUQdWphQBYbEjzZN-HoUG8ur5NDGtUuBx7rc_3Hi8bkHAT- -pyjlUFyXr-0m00]--></g></svg>