<?xml version="1.0" encoding="UTF-8" standalone="no"?><svg xmlns="http://www.w3.org/2000/svg" xmlns:xlink="http://www.w3.org/1999/xlink" contentScriptType="application/ecmascript" contentStyleType="text/css" height="416px" preserveAspectRatio="none" style="width:870px;height:416px;" version="1.1" viewBox="0 0 870 416" width="870px" zoomAndPan="magnify"><defs/><g><rect fill="#FFFFFF" height="124.5313" style="stroke: #FFFFFF; stroke-width: 1.0;" width="10" x="226.5" y="96.4297"/><line style="stroke: #F57F17; stroke-width: 1.0;" x1="226.5" x2="226.5" y1="96.4297" y2="220.9609"/><line style="stroke: #F57F17; stroke-width: 1.0;" x1="236.5" x2="236.5" y1="96.4297" y2="220.9609"/><line style="stroke: #F57F17; stroke-width: 1.0;" x1="226.5" x2="236.5" y1="96.4297" y2="96.4297"/><rect fill="#FFFFFF" height="146.6641" style="stroke: #FFFFFF; stroke-width: 1.0;" width="10" x="226.5" y="248.9609"/><line style="stroke: #F57F17; stroke-width: 1.0;" x1="226.5" x2="226.5" y1="248.9609" y2="395.625"/><line style="stroke: #F57F17; stroke-width: 1.0;" x1="236.5" x2="236.5" y1="248.9609" y2="395.625"/><line style="stroke: #F57F17; stroke-width: 1.0;" x1="226.5" x2="236.5" y1="395.625" y2="395.625"/><line style="stroke: #F57F17; stroke-width: 1.0;" x1="45" x2="45" y1="65.2969" y2="220.9609"/><line style="stroke: #F57F17; stroke-width: 1.0; stroke-dasharray: 1.0,4.0;" x1="45" x2="45" y1="220.9609" y2="248.9609"/><line style="stroke: #F57F17; stroke-width: 1.0;" x1="45" x2="45" y1="248.9609" y2="404.625"/><line style="stroke: #F57F17; stroke-width: 1.0;" x1="231" x2="231" y1="65.2969" y2="220.9609"/><line style="stroke: #F57F17; stroke-width: 1.0; stroke-dasharray: 1.0,4.0;" x1="231" x2="231" y1="220.9609" y2="248.9609"/><line style="stroke: #F57F17; stroke-width: 1.0;" x1="231" x2="231" y1="248.9609" y2="404.625"/><line style="stroke: #F57F17; stroke-width: 1.0;" x1="405" x2="405" y1="65.2969" y2="220.9609"/><line style="stroke: #F57F17; stroke-width: 1.0; stroke-dasharray: 1.0,4.0;" x1="405" x2="405" y1="220.9609" y2="248.9609"/><line style="stroke: #F57F17; stroke-width: 1.0;" x1="405" x2="405" y1="248.9609" y2="404.625"/><line style="stroke: #F57F17; stroke-width: 1.0;" x1="481" x2="481" y1="65.2969" y2="220.9609"/><line style="stroke: #F57F17; stroke-width: 1.0; stroke-dasharray: 1.0,4.0;" x1="481" x2="481" y1="220.9609" y2="248.9609"/><line style="stroke: #F57F17; stroke-width: 1.0;" x1="481" x2="481" y1="248.9609" y2="404.625"/><line style="stroke: #F57F17; stroke-width: 1.0;" x1="580" x2="580" y1="65.2969" y2="220.9609"/><line style="stroke: #F57F17; stroke-width: 1.0; stroke-dasharray: 1.0,4.0;" x1="580" x2="580" y1="220.9609" y2="248.9609"/><line style="stroke: #F57F17; stroke-width: 1.0;" x1="580" x2="580" y1="248.9609" y2="404.625"/><line style="stroke: #F57F17; stroke-width: 1.0;" x1="664" x2="664" y1="65.2969" y2="220.9609"/><line style="stroke: #F57F17; stroke-width: 1.0; stroke-dasharray: 1.0,4.0;" x1="664" x2="664" y1="220.9609" y2="248.9609"/><line style="stroke: #F57F17; stroke-width: 1.0;" x1="664" x2="664" y1="248.9609" y2="404.625"/><line style="stroke: #F57F17; stroke-width: 1.0;" x1="789" x2="789" y1="65.2969" y2="220.9609"/><line style="stroke: #F57F17; stroke-width: 1.0; stroke-dasharray: 1.0,4.0;" x1="789" x2="789" y1="220.9609" y2="248.9609"/><line style="stroke: #F57F17; stroke-width: 1.0;" x1="789" x2="789" y1="248.9609" y2="404.625"/><rect fill="#FFFFFF" height="30.2969" style="stroke: #F57F17; stroke-width: 1.5;" width="75" x="8" y="34"/><text fill="#000000" font-family="sans-serif" font-size="14" lengthAdjust="spacingAndGlyphs" textLength="61" x="15" y="53.9951">diameter</text><rect fill="#FFFFFF" height="30.2969" style="stroke: #F57F17; stroke-width: 1.5;" width="277" x="93" y="34"/><text fill="#000000" font-family="sans-serif" font-size="14" lengthAdjust="spacingAndGlyphs" textLength="263" x="100" y="53.9951">cse_diameter_3gpp_sy_application_cb</text><rect fill="#FFFFFF" height="30.2969" style="stroke: #F57F17; stroke-width: 1.5;" width="50" x="380" y="34"/><text fill="#000000" font-family="sans-serif" font-size="14" lengthAdjust="spacingAndGlyphs" textLength="36" x="387" y="53.9951">httpc</text><text fill="#000000" font-family="sans-serif" font-size="14" lengthAdjust="spacingAndGlyphs" textLength="76" x="440" y="61.9951">sy_session</text><path d="M463,13 C463,3 481,3 481,3 C481,3 499,3 499,13 L499,39 C499,49 481,49 481,49 C481,49 463,49 463,39 L463,13 " fill="#FEFECE" style="stroke: #000000; stroke-width: 1.5;"/><path d="M463,13 C463,23 481,23 481,23 C481,23 499,23 499,13 " fill="none" style="stroke: #000000; stroke-width: 1.5;"/><text fill="#000000" font-family="sans-serif" font-size="14" lengthAdjust="spacingAndGlyphs" textLength="91" x="532" y="61.9951">nchf_session</text><path d="M562.5,13 C562.5,3 580.5,3 580.5,3 C580.5,3 598.5,3 598.5,13 L598.5,39 C598.5,49 580.5,49 580.5,49 C580.5,49 562.5,49 562.5,39 L562.5,13 " fill="#FEFECE" style="stroke: #000000; stroke-width: 1.5;"/><path d="M562.5,13 C562.5,23 580.5,23 580.5,23 C580.5,23 598.5,23 598.5,13 " fill="none" style="stroke: #000000; stroke-width: 1.5;"/><rect fill="#FFFFFF" height="30.2969" style="stroke: #F57F17; stroke-width: 1.5;" width="51" x="639" y="34"/><text fill="#000000" font-family="sans-serif" font-size="14" lengthAdjust="spacingAndGlyphs" textLength="37" x="646" y="53.9951">httpd</text><rect fill="#FFFFFF" height="30.2969" style="stroke: #F57F17; stroke-width: 1.5;" width="139" x="720" y="34"/><text fill="#000000" font-family="sans-serif" font-size="14" lengthAdjust="spacingAndGlyphs" textLength="125" x="727" y="53.9951">cse_rest_res_nchf</text><rect fill="#FFFFFF" height="124.5313" style="stroke: #FFFFFF; stroke-width: 1.0;" width="10" x="226.5" y="96.4297"/><line style="stroke: #F57F17; stroke-width: 1.0;" x1="226.5" x2="226.5" y1="96.4297" y2="220.9609"/><line style="stroke: #F57F17; stroke-width: 1.0;" x1="236.5" x2="236.5" y1="96.4297" y2="220.9609"/><line style="stroke: #F57F17; stroke-width: 1.0;" x1="226.5" x2="236.5" y1="96.4297" y2="96.4297"/><rect fill="#FFFFFF" height="146.6641" style="stroke: #FFFFFF; stroke-width: 1.0;" width="10" x="226.5" y="248.9609"/><line style="stroke: #F57F17; stroke-width: 1.0;" x1="226.5" x2="226.5" y1="248.9609" y2="395.625"/><line style="stroke: #F57F17; stroke-width: 1.0;" x1="236.5" x2="236.5" y1="248.9609" y2="395.625"/><line style="stroke: #F57F17; stroke-width: 1.0;" x1="226.5" x2="236.5" y1="395.625" y2="395.625"/><polygon fill="#A80036" points="214.5,92.4297,224.5,96.4297,214.5,100.4297,218.5,96.4297" style="stroke: #A80036; stroke-width: 1.0;"/><line style="stroke: #A80036; stroke-width: 1.0;" x1="45.5" x2="220.5" y1="96.4297" y2="96.4297"/><text fill="#000000" font-family="sans-serif" font-size="13" lengthAdjust="spacingAndGlyphs" textLength="24" x="52.5" y="91.3638">SLR</text><polygon fill="#A80036" points="393,121.5625,403,125.5625,393,129.5625,397,125.5625" style="stroke: #A80036; stroke-width: 1.0;"/><line style="stroke: #A80036; stroke-width: 1.0;" x1="236.5" x2="399" y1="125.5625" y2="125.5625"/><text fill="#000000" font-family="sans-serif" font-size="13" lengthAdjust="spacingAndGlyphs" textLength="126" x="243.5" y="120.4966">POST /subscriptions</text><polygon fill="#A80036" points="247.5,150.6953,237.5,154.6953,247.5,158.6953,243.5,154.6953" style="stroke: #A80036; stroke-width: 1.0;"/><line style="stroke: #A80036; stroke-width: 1.0;" x1="241.5" x2="404" y1="154.6953" y2="154.6953"/><text fill="#000000" font-family="sans-serif" font-size="13" lengthAdjust="spacingAndGlyphs" textLength="79" x="253.5" y="149.6294">201 Created</text><polygon fill="#A80036" points="469,179.8281,479,183.8281,469,183.8281" style="stroke: #A80036; stroke-width: 1.0;"/><line style="stroke: #A80036; stroke-width: 1.0;" x1="236.5" x2="480" y1="183.8281" y2="183.8281"/><text fill="#000000" font-family="sans-serif" font-size="13" lengthAdjust="spacingAndGlyphs" textLength="213" x="243.5" y="178.7622">{SessionId, SUPI, SubscriptionId}</text><polygon fill="#A80036" points="568.5,208.9609,578.5,212.9609,568.5,212.9609" style="stroke: #A80036; stroke-width: 1.0;"/><line style="stroke: #A80036; stroke-width: 1.0;" x1="236.5" x2="579.5" y1="212.9609" y2="212.9609"/><text fill="#000000" font-family="sans-serif" font-size="13" lengthAdjust="spacingAndGlyphs" textLength="115" x="243.5" y="207.895">{SUPI, SessionId}</text><polygon fill="#A80036" points="777.5,266.0938,787.5,270.0938,777.5,274.0938,781.5,270.0938" style="stroke: #A80036; stroke-width: 1.0;"/><line style="stroke: #A80036; stroke-width: 1.0;" x1="664.5" x2="783.5" y1="270.0938" y2="270.0938"/><text fill="#000000" font-family="sans-serif" font-size="13" lengthAdjust="spacingAndGlyphs" textLength="77" x="671.5" y="265.0278">POST /notify</text><polygon fill="#A80036" points="777.5,300.2266,787.5,300.2266,777.5,304.2266" style="stroke: #A80036; stroke-width: 1.0;"/><line style="stroke: #A80036; stroke-width: 1.0;" x1="580.5" x2="788.5" y1="299.2266" y2="299.2266"/><text fill="#000000" font-family="sans-serif" font-size="13" lengthAdjust="spacingAndGlyphs" textLength="61" x="587.5" y="294.1606">SessionId</text><polygon fill="#A80036" points="56.5,324.3594,46.5,328.3594,56.5,332.3594,52.5,328.3594" style="stroke: #A80036; stroke-width: 1.0;"/><line style="stroke: #A80036; stroke-width: 1.0;" x1="50.5" x2="788.5" y1="328.3594" y2="328.3594"/><text fill="#000000" font-family="sans-serif" font-size="13" lengthAdjust="spacingAndGlyphs" textLength="27" x="62.5" y="323.2935">SNR</text><polygon fill="#A80036" points="777.5,353.4922,787.5,357.4922,777.5,361.4922,781.5,357.4922" style="stroke: #A80036; stroke-width: 1.0;"/><line style="stroke: #A80036; stroke-width: 1.0;" x1="45.5" x2="783.5" y1="357.4922" y2="357.4922"/><text fill="#000000" font-family="sans-serif" font-size="13" lengthAdjust="spacingAndGlyphs" textLength="28" x="52.5" y="352.4263">SNA</text><polygon fill="#A80036" points="675.5,382.625,665.5,386.625,675.5,390.625,671.5,386.625" style="stroke: #A80036; stroke-width: 1.0;"/><line style="stroke: #A80036; stroke-width: 1.0;" x1="669.5" x2="788.5" y1="386.625" y2="386.625"/><text fill="#000000" font-family="sans-serif" font-size="13" lengthAdjust="spacingAndGlyphs" textLength="101" x="681.5" y="381.5591">204 No Content</text><!--MD5=[b0010fe7a057f633a82447e41411bc2f]
@startuml

skinparam shadowing false
skinparam sequence {
ParticipantBorderColor #f57f17
ParticipantBackgroundColor white
LifeLineBorderColor #f57f17
LifeLineBackgroundColor white
}
participant diameter
participant cse_diameter_3gpp_sy_application_cb
participant httpc
database sy_session
database nchf_session
participant httpd
participant cse_rest_res_nchf
hide footbox

diameter -> cse_diameter_3gpp_sy_application_cb : SLR
activate cse_diameter_3gpp_sy_application_cb
cse_diameter_3gpp_sy_application_cb -> httpc : POST /subscriptions
cse_diameter_3gpp_sy_application_cb <- httpc : 201 Created
cse_diameter_3gpp_sy_application_cb -\ sy_session : {SessionId, SUPI, SubscriptionId}
cse_diameter_3gpp_sy_application_cb -\ nchf_session : {SUPI, SessionId}
...
httpd -> cse_rest_res_nchf : POST /notify
nchf_session -/ cse_rest_res_nchf : SessionId
diameter <- cse_rest_res_nchf : SNR
diameter -> cse_rest_res_nchf : SNA
httpd <- cse_rest_res_nchf : 204 No Content

@enduml

PlantUML version 1.2020.02(Sun Mar 01 10:22:07 UTC 2020)
(GPL source distribution)
Java Runtime: OpenJDK Runtime Environment
JVM: OpenJDK 64-Bit Server VM
Java Version: 17.0.17+10-Debian-1deb12u1
Operating System: Linux
Default Encoding: UTF-8
Language: en
Country: null
--></g></svg>